Space-Mono-Regular-Italic_QUADRATIC.ufo
<glyph name="quotedbl" format="1">
  <advance width="612"/>
  <unicode hex="0022"/>
  <outline>
    <contour>
      <point x="204" y="644" type="qcurve"/>
      <point x="204" y="673"/>
      <point x="245" y="714"/>
      <point x="274" y="714" type="qcurve"/>
      <point x="303" y="714"/>
      <point x="344" y="673"/>
      <point x="344" y="644" type="qcurve"/>
      <point x="344" y="619"/>
      <point x="312" y="580"/>
      <point x="288" y="575" type="qcurve"/>
      <point x="265" y="468" type="line"/>
      <point x="212" y="479" type="line"/>
      <point x="236" y="585" type="line"/>
      <point x="222" y="595"/>
      <point x="204" y="626"/>
    </contour>
    <contour>
      <point x="386" y="644" type="qcurve"/>
      <point x="386" y="673"/>
      <point x="427" y="714"/>
      <point x="456" y="714" type="qcurve"/>
      <point x="485" y="714"/>
      <point x="526" y="673"/>
      <point x="526" y="644" type="qcurve"/>
      <point x="526" y="619"/>
      <point x="494" y="580"/>
      <point x="470" y="575" type="qcurve"/>
      <point x="447" y="468" type="line"/>
      <point x="394" y="479" type="line"/>
      <point x="418" y="585" type="line"/>
      <point x="404" y="595"/>
      <point x="386" y="626"/>
    </contour>
  </outline>
</glyph>
<glyph name="dollar" format="1">
  <advance width="612"/>
  <unicode hex="0024"/>
  <outline>
    <contour>
      <point x="386" y="608" type="line"/>
      <point x="446" y="597"/>
      <point x="510" y="525"/>
      <point x="510" y="480" type="qcurve"/>
      <point x="510" y="465"/>
      <point x="507" y="452" type="qcurve"/>
      <point x="503" y="434" type="line"/>
      <point x="427" y="434" type="line"/>
      <point x="430" y="446" type="line"/>
      <point x="433" y="456"/>
      <point x="433" y="467" type="qcurve"/>
      <point x="433" y="493"/>
      <point x="400" y="529"/>
      <point x="371" y="534" type="qcurve"/>
      <point x="340" y="391" type="line"/>
      <point x="414" y="382"/>
      <point x="483" y="318"/>
      <point x="483" y="270" type="qcurve"/>
      <point x="483" y="229"/>
      <point x="451" y="163"/>
      <point x="396" y="117"/>
      <point x="320" y="91"/>
      <point x="276" y="89" type="qcurve"/>
      <point x="263" y="28" type="line"/>
      <point x="191" y="28" type="line"/>
      <point x="204" y="91" type="line"/>
      <point x="168" y="97"/>
      <point x="118" y="124"/>
      <point x="85" y="162"/>
      <point x="70" y="208"/>
      <point x="70" y="232" type="qcurve"/>
      <point x="70" y="241"/>
      <point x="72" y="259"/>
      <point x="74" y="268" type="qcurve"/>
      <point x="79" y="292" type="line"/>
      <point x="155" y="292" type="line"/>
      <point x="151" y="270" type="line"/>
      <point x="148" y="253"/>
      <point x="148" y="241" type="qcurve"/>
      <point x="148" y="176"/>
      <point x="220" y="164" type="qcurve"/>
      <point x="255" y="326" type="line"/>
      <point x="198" y="334"/>
      <point x="126" y="395"/>
      <point x="126" y="453" type="qcurve"/>
      <point x="126" y="489"/>
      <point x="161" y="547"/>
      <point x="217" y="588"/>
      <point x="283" y="610"/>
      <point x="315" y="610" type="qcurve"/>
      <point x="328" y="672" type="line"/>
      <point x="400" y="672" type="line"/>
    </contour>
    <contour>
      <point x="291" y="161" type="line"/>
      <point x="337" y="165"/>
      <point x="403" y="215"/>
      <point x="403" y="256" type="qcurve"/>
      <point x="403" y="285"/>
      <point x="365" y="312"/>
      <point x="325" y="319" type="qcurve"/>
    </contour>
    <contour>
      <point x="299" y="538" type="line"/>
      <point x="262" y="533"/>
      <point x="207" y="491"/>
      <point x="207" y="452" type="qcurve"/>
      <point x="207" y="432"/>
      <point x="235" y="405"/>
      <point x="270" y="400" type="qcurve"/>
    </contour>
  </outline>
</glyph>
<glyph name="ampersand" format="1">
  <advance width="612"/>
  <unicode hex="0026"/>
  <outline>
    <contour>
      <point x="574" y="312" type="line"/>
      <point x="470" y="312" type="line"/>
      <point x="404" y="0" type="line"/>
      <point x="184" y="0" type="line"/>
      <point x="101" y="0"/>
      <point x="8" y="87"/>
      <point x="8" y="159" type="qcurve"/>
      <point x="8" y="229"/>
      <point x="92" y="328"/>
      <point x="167" y="345" type="qcurve"/>
      <point x="167" y="357" type="line"/>
      <point x="129" y="370"/>
      <point x="78" y="434"/>
      <point x="78" y="485" type="qcurve"/>
      <point x="78" y="533"/>
      <point x="116" y="612"/>
      <point x="183" y="669"/>
      <point x="275" y="700"/>
      <point x="329" y="700" type="qcurve"/>
      <point x="440" y="700" type="line"/>
      <point x="440" y="622" type="line"/>
      <point x="318" y="622" type="line"/>
      <point x="286" y="622"/>
      <point x="229" y="603"/>
      <point x="184" y="566"/>
      <point x="158" y="512"/>
      <point x="158" y="478" type="qcurve"/>
      <point x="158" y="436"/>
      <point x="215" y="390"/>
      <point x="266" y="390" type="qcurve"/>
      <point x="403" y="390" type="line"/>
      <point x="426" y="496" type="line"/>
      <point x="510" y="496" type="line"/>
      <point x="487" y="390" type="line"/>
      <point x="574" y="390" type="line"/>
    </contour>
    <contour>
      <point x="337" y="78" type="line"/>
      <point x="386" y="312" type="line"/>
      <point x="249" y="312" type="line"/>
      <point x="218" y="312"/>
      <point x="161" y="292"/>
      <point x="117" y="255"/>
      <point x="91" y="204"/>
      <point x="91" y="173" type="qcurve"/>
      <point x="91" y="128"/>
      <point x="152" y="78"/>
      <point x="203" y="78" type="qcurve"/>
    </contour>
  </outline>
</glyph>
<glyph name="asterisk" format="1">
  <advance width="612"/>
  <unicode hex="002A"/>
  <outline>
    <contour>
      <point x="534" y="455" type="line"/>
      <point x="429" y="387" type="line"/>
      <point x="375" y="370" type="line"/>
      <point x="377" y="357" type="line"/>
      <point x="424" y="362" type="line"/>
      <point x="556" y="334" type="line"/>
      <point x="541" y="263" type="line"/>
      <point x="409" y="291" type="line"/>
      <point x="368" y="314" type="line"/>
      <point x="361" y="304" type="line"/>
      <point x="404" y="266" type="line"/>
      <point x="471" y="161" type="line"/>
      <point x="411" y="122" type="line"/>
      <point x="343" y="227" type="line"/>
      <point x="326" y="281" type="line"/>
      <point x="313" y="279" type="line"/>
      <point x="318" y="232" type="line"/>
      <point x="290" y="100" type="line"/>
      <point x="219" y="115" type="line"/>
      <point x="247" y="247" type="line"/>
      <point x="270" y="288" type="line"/>
      <point x="260" y="295" type="line"/>
      <point x="222" y="252" type="line"/>
      <point x="117" y="185" type="line"/>
      <point x="78" y="245" type="line"/>
      <point x="183" y="313" type="line"/>
      <point x="237" y="330" type="line"/>
      <point x="235" y="343" type="line"/>
      <point x="188" y="338" type="line"/>
      <point x="56" y="366" type="line"/>
      <point x="71" y="437" type="line"/>
      <point x="203" y="409" type="line"/>
      <point x="244" y="386" type="line"/>
      <point x="251" y="396" type="line"/>
      <point x="208" y="434" type="line"/>
      <point x="141" y="539" type="line"/>
      <point x="201" y="578" type="line"/>
      <point x="269" y="473" type="line"/>
      <point x="286" y="419" type="line"/>
      <point x="299" y="421" type="line"/>
      <point x="294" y="468" type="line"/>
      <point x="322" y="600" type="line"/>
      <point x="393" y="585" type="line"/>
      <point x="365" y="453" type="line"/>
      <point x="342" y="412" type="line"/>
      <point x="352" y="405" type="line"/>
      <point x="390" y="448" type="line"/>
      <point x="495" y="515" type="line"/>
    </contour>
  </outline>
</glyph>
<glyph name="hyphen" format="1">
  <advance width="612"/>
  <unicode hex="002D"/>
  <outline>
    <contour>
      <point x="156" y="296" type="line"/>
      <point x="456" y="296" type="line"/>
      <point x="456" y="224" type="line"/>
      <point x="156" y="224" type="line"/>
    </contour>
  </outline>
</glyph>
<glyph name="zero" format="1">
  <advance width="612"/>
  <unicode hex="0030"/>
  <outline>
    <contour>
      <point x="240" y="350" type="qcurve"/>
      <point x="240" y="376"/>
      <point x="278" y="414"/>
      <point x="304" y="414" type="qcurve"/>
      <point x="330" y="414"/>
      <point x="368" y="376"/>
      <point x="368" y="350" type="qcurve"/>
      <point x="368" y="324"/>
      <point x="330" y="286"/>
      <point x="304" y="286" type="qcurve"/>
      <point x="278" y="286"/>
      <point x="240" y="324"/>
    </contour>
    <component base="O" xOffset="-2"/>
  </outline>
</glyph>
<glyph name="one" format="1">
  <advance width="612"/>
  <unicode hex="0031"/>
  <outline>
    <contour>
      <point x="222" y="78" type="line"/>
      <point x="346" y="663" type="line"/>
      <point x="334" y="663" type="line"/>
      <point x="158" y="400" type="line"/>
      <point x="67" y="400" type="line"/>
      <point x="67" y="406" type="line"/>
      <point x="268" y="700" type="line"/>
      <point x="438" y="700" type="line"/>
      <point x="306" y="78" type="line"/>
      <point x="504" y="78" type="line"/>
      <point x="504" y="0" type="line"/>
      <point x="24" y="0" type="line"/>
      <point x="24" y="78" type="line"/>
    </contour>
  </outline>
</glyph>
<glyph name="three" format="1">
  <advance width="612"/>
  <unicode hex="0033"/>
  <outline>
    <contour>
      <point x="239" y="348" type="line"/>
      <point x="239" y="466" type="line"/>
      <point x="520" y="610" type="line"/>
      <point x="520" y="622" type="line"/>
      <point x="145" y="622" type="line"/>
      <point x="145" y="700" type="line"/>
      <point x="586" y="700" type="line"/>
      <point x="586" y="564" type="line"/>
      <point x="319" y="426" type="line"/>
      <point x="319" y="414" type="line"/>
      <point x="361" y="414" type="line"/>
      <point x="399" y="414"/>
      <point x="462" y="391"/>
      <point x="508" y="349"/>
      <point x="534" y="289"/>
      <point x="534" y="252" type="qcurve"/>
      <point x="534" y="192"/>
      <point x="486" y="94"/>
      <point x="406" y="24"/>
      <point x="300" y="-14"/>
      <point x="242" y="-14" type="qcurve"/>
      <point x="191" y="-14"/>
      <point x="112" y="15"/>
      <point x="59" y="65"/>
      <point x="32" y="133"/>
      <point x="32" y="171" type="qcurve"/>
      <point x="32" y="182"/>
      <point x="35" y="206"/>
      <point x="37" y="218" type="qcurve"/>
      <point x="48" y="272" type="line"/>
      <point x="132" y="272" type="line"/>
      <point x="122" y="224" type="line"/>
      <point x="120" y="212"/>
      <point x="117" y="190"/>
      <point x="117" y="179" type="qcurve"/>
      <point x="117" y="119"/>
      <point x="191" y="64"/>
      <point x="253" y="64" type="qcurve"/>
      <point x="298" y="64"/>
      <point x="370" y="91"/>
      <point x="421" y="139"/>
      <point x="448" y="203"/>
      <point x="448" y="240" type="qcurve"/>
      <point x="448" y="293"/>
      <point x="383" y="348"/>
      <point x="331" y="348" type="qcurve"/>
    </contour>
  </outline>
</glyph>
<glyph name="eight" format="1">
  <advance width="612"/>
  <unicode hex="0038"/>
  <outline>
    <contour>
      <point x="226" y="-14" type="qcurve"/>
      <point x="177" y="-14"/>
      <point x="100" y="9"/>
      <point x="46" y="51"/>
      <point x="18" y="109"/>
      <point x="18" y="144" type="qcurve"/>
      <point x="18" y="186"/>
      <point x="45" y="257"/>
      <point x="91" y="311"/>
      <point x="155" y="348"/>
      <point x="193" y="357" type="qcurve"/>
      <point x="193" y="369" type="line"/>
      <point x="160" y="382"/>
      <point x="109" y="443"/>
      <point x="109" y="488" type="qcurve"/>
      <point x="109" y="540"/>
      <point x="151" y="623"/>
      <point x="223" y="682"/>
      <point x="320" y="714"/>
      <point x="376" y="714" type="qcurve"/>
      <point x="420" y="714"/>
      <point x="492" y="692"/>
      <point x="542" y="653"/>
      <point x="569" y="598"/>
      <point x="569" y="566" type="qcurve"/>
      <point x="569" y="531"/>
      <point x="548" y="469"/>
      <point x="509" y="417"/>
      <point x="452" y="379"/>
      <point x="416" y="369" type="qcurve"/>
      <point x="416" y="357" type="line"/>
      <point x="435" y="351"/>
      <point x="470" y="329"/>
      <point x="497" y="297"/>
      <point x="514" y="254"/>
      <point x="514" y="228" type="qcurve"/>
      <point x="514" y="170"/>
      <point x="471" y="80"/>
      <point x="394" y="18"/>
      <point x="288" y="-14"/>
    </contour>
    <contour>
      <point x="240" y="62" type="qcurve"/>
      <point x="276" y="62"/>
      <point x="344" y="82"/>
      <point x="398" y="123"/>
      <point x="430" y="183"/>
      <point x="430" y="223" type="qcurve"/>
      <point x="430" y="274"/>
      <point x="359" y="324"/>
      <point x="296" y="324" type="qcurve"/>
      <point x="259" y="324"/>
      <point x="191" y="303"/>
      <point x="138" y="262"/>
      <point x="106" y="201"/>
      <point x="106" y="161" type="qcurve"/>
      <point x="106" y="113"/>
      <point x="177" y="62"/>
    </contour>
    <contour>
      <point x="313" y="402" type="qcurve"/>
      <point x="345" y="402"/>
      <point x="406" y="422"/>
      <point x="453" y="459"/>
      <point x="482" y="513"/>
      <point x="482" y="547" type="qcurve"/>
      <point x="482" y="590"/>
      <point x="419" y="638"/>
      <point x="363" y="638" type="qcurve"/>
      <point x="332" y="638"/>
      <point x="271" y="619"/>
      <point x="223" y="583"/>
      <point x="194" y="530"/>
      <point x="194" y="496" type="qcurve"/>
      <point x="194" y="453"/>
      <point x="258" y="402"/>
    </contour>
  </outline>
</glyph>
<glyph name="nine" format="1">
  <advance width="612"/>
  <unicode hex="0039"/>
  <outline>
    <contour>
      <point x="123" y="204" type="line"/>
      <point x="118" y="181"/>
      <point x="118" y="164" type="qcurve"/>
      <point x="118" y="114"/>
      <point x="183" y="60"/>
      <point x="244" y="60" type="qcurve"/>
      <point x="278" y="60"/>
      <point x="340" y="84"/>
      <point x="390" y="129"/>
      <point x="427" y="190"/>
      <point x="435" y="228" type="qcurve"/>
      <point x="456" y="326" type="line"/>
      <point x="444" y="326" type="line"/>
      <point x="417" y="285"/>
      <point x="326" y="238"/>
      <point x="266" y="238" type="qcurve"/>
      <point x="226" y="238"/>
      <point x="158" y="263"/>
      <point x="107" y="309"/>
      <point x="78" y="374"/>
      <point x="78" y="414" type="qcurve"/>
      <point x="78" y="477"/>
      <point x="119" y="586"/>
      <point x="195" y="667"/>
      <point x="304" y="714"/>
      <point x="372" y="714" type="qcurve"/>
      <point x="417" y="714"/>
      <point x="493" y="686"/>
      <point x="547" y="636"/>
      <point x="577" y="567"/>
      <point x="577" y="526" type="qcurve"/>
      <point x="577" y="506"/>
      <point x="572" y="478" type="qcurve"/>
      <point x="519" y="228" type="line"/>
      <point x="506" y="166"/>
      <point x="453" y="75"/>
      <point x="379" y="15"/>
      <point x="286" y="-14"/>
      <point x="232" y="-14" type="qcurve"/>
      <point x="187" y="-14"/>
      <point x="113" y="11"/>
      <point x="61" y="56"/>
      <point x="33" y="119"/>
      <point x="33" y="156" type="qcurve"/>
      <point x="33" y="178"/>
      <point x="39" y="204" type="qcurve"/>
    </contour>
    <contour>
      <point x="363" y="640" type="qcurve"/>
      <point x="321" y="640"/>
      <point x="248" y="608"/>
      <point x="195" y="551"/>
      <point x="164" y="475"/>
      <point x="164" y="432" type="qcurve"/>
      <point x="164" y="375"/>
      <point x="230" y="312"/>
      <point x="293" y="312" type="qcurve"/>
      <point x="333" y="312"/>
      <point x="406" y="345"/>
      <point x="461" y="401"/>
      <point x="493" y="476"/>
      <point x="493" y="518" type="qcurve"/>
      <point x="493" y="577"/>
      <point x="424" y="640"/>
    </contour>
  </outline>
</glyph>
<glyph name="colon" format="1">
  <advance width="612"/>
  <unicode hex="003A"/>
  <outline>
    <contour>
      <point x="178" y="56" type="qcurve"/>
      <point x="178" y="85"/>
      <point x="219" y="126"/>
      <point x="248" y="126" type="qcurve"/>
      <point x="277" y="126"/>
      <point x="318" y="85"/>
      <point x="318" y="56" type="qcurve"/>
      <point x="318" y="27"/>
      <point x="277" y="-14"/>
      <point x="248" y="-14" type="qcurve"/>
      <point x="219" y="-14"/>
      <point x="178" y="27"/>
    </contour>
    <contour>
      <point x="262" y="440" type="qcurve"/>
      <point x="262" y="469"/>
      <point x="303" y="510"/>
      <point x="332" y="510" type="qcurve"/>
      <point x="361" y="510"/>
      <point x="402" y="469"/>
      <point x="402" y="440" type="qcurve"/>
      <point x="402" y="411"/>
      <point x="361" y="370"/>
      <point x="332" y="370" type="qcurve"/>
      <point x="303" y="370"/>
      <point x="262" y="411"/>
    </contour>
  </outline>
</glyph>
<glyph name="semicolon" format="1">
  <advance width="612"/>
  <unicode hex="003B"/>
  <outline>
    <contour>
      <point x="262" y="440" type="qcurve"/>
      <point x="262" y="469"/>
      <point x="303" y="510"/>
      <point x="332" y="510" type="qcurve"/>
      <point x="361" y="510"/>
      <point x="402" y="469"/>
      <point x="402" y="440" type="qcurve"/>
      <point x="402" y="411"/>
      <point x="361" y="370"/>
      <point x="332" y="370" type="qcurve"/>
      <point x="303" y="370"/>
      <point x="262" y="411"/>
    </contour>
    <contour>
      <point x="178" y="56" type="qcurve"/>
      <point x="178" y="85"/>
      <point x="219" y="126"/>
      <point x="248" y="126" type="qcurve"/>
      <point x="277" y="126"/>
      <point x="318" y="85"/>
      <point x="318" y="56" type="qcurve"/>
      <point x="318" y="49"/>
      <point x="317" y="44" type="qcurve"/>
      <point x="299" y="-42" type="line"/>
      <point x="291" y="-80"/>
      <point x="245" y="-120"/>
      <point x="206" y="-120" type="qcurve"/>
      <point x="154" y="-120" type="line"/>
      <point x="154" y="-66" type="line"/>
      <point x="213" y="-66" type="line"/>
      <point x="241" y="-66"/>
      <point x="247" y="-36" type="qcurve"/>
      <point x="252" y="-14" type="line"/>
      <point x="248" y="-14" type="line"/>
      <point x="219" y="-14"/>
      <point x="178" y="27"/>
    </contour>
  </outline>
</glyph>
<glyph name="less" format="1">
  <advance width="612"/>
  <unicode hex="003C"/>
  <outline>
    <contour>
      <point x="96" y="274" type="line"/>
      <point x="96" y="425" type="line"/>
      <point x="544" y="570" type="line"/>
      <point x="544" y="486" type="line"/>
      <point x="126" y="355" type="line"/>
      <point x="126" y="344" type="line"/>
      <point x="469" y="220" type="line"/>
      <point x="469" y="136" type="line"/>
    </contour>
  </outline>
</glyph>
<glyph name="question" format="1">
  <advance width="612"/>
  <unicode hex="003F"/>
  <outline>
    <contour>
      <point x="354" y="366" type="line"/>
      <point x="385" y="366"/>
      <point x="435" y="391"/>
      <point x="470" y="433"/>
      <point x="489" y="489"/>
      <point x="489" y="519" type="qcurve"/>
      <point x="489" y="568"/>
      <point x="423" y="636"/>
      <point x="360" y="636" type="qcurve"/>
      <point x="292" y="636"/>
      <point x="199" y="551"/>
      <point x="183" y="476" type="qcurve"/>
      <point x="174" y="434" type="line"/>
      <point x="90" y="434" type="line"/>
      <point x="100" y="482" type="line"/>
      <point x="123" y="589"/>
      <point x="260" y="714"/>
      <point x="370" y="714" type="qcurve"/>
      <point x="416" y="714"/>
      <point x="492" y="685"/>
      <point x="546" y="635"/>
      <point x="576" y="567"/>
      <point x="576" y="527" type="qcurve"/>
      <point x="576" y="484"/>
      <point x="546" y="399"/>
      <point x="488" y="332"/>
      <point x="403" y="290"/>
      <point x="348" y="290" type="qcurve"/>
      <point x="336" y="290" type="line"/>
      <point x="306" y="290"/>
      <point x="300" y="260" type="qcurve"/>
      <point x="285" y="186" type="line"/>
      <point x="205" y="186" type="line"/>
      <point x="225" y="280" type="line"/>
      <point x="233" y="321"/>
      <point x="286" y="366"/>
      <point x="330" y="366" type="qcurve"/>
    </contour>
    <contour>
      <point x="150" y="56" type="qcurve"/>
      <point x="150" y="85"/>
      <point x="191" y="126"/>
      <point x="220" y="126" type="qcurve"/>
      <point x="249" y="126"/>
      <point x="290" y="85"/>
      <point x="290" y="56" type="qcurve"/>
      <point x="290" y="27"/>
      <point x="249" y="-14"/>
      <point x="220" y="-14" type="qcurve"/>
      <point x="191" y="-14"/>
      <point x="150" y="27"/>
    </contour>
  </outline>
</glyph>
<glyph name="B" format="1">
  <advance width="612"/>
  <unicode hex="0042"/>
  <outline>
    <contour>
      <point x="2" y="78" type="line"/>
      <point x="68" y="78" type="line"/>
      <point x="183" y="622" type="line"/>
      <point x="117" y="622" type="line"/>
      <point x="117" y="700" type="line"/>
      <point x="393" y="700" type="line"/>
      <point x="484" y="700"/>
      <point x="575" y="607"/>
      <point x="575" y="535" type="qcurve"/>
      <point x="575" y="505"/>
      <point x="553" y="447"/>
      <point x="513" y="400"/>
      <point x="454" y="365"/>
      <point x="418" y="357" type="qcurve"/>
      <point x="418" y="345" type="line"/>
      <point x="460" y="333"/>
      <point x="506" y="264"/>
      <point x="506" y="219" type="qcurve"/>
      <point x="506" y="171"/>
      <point x="468" y="90"/>
      <point x="402" y="32"/>
      <point x="310" y="0"/>
      <point x="256" y="0" type="qcurve"/>
      <point x="2" y="0" type="line"/>
    </contour>
    <contour>
      <point x="152" y="78" type="line"/>
      <point x="267" y="78" type="line"/>
      <point x="300" y="78"/>
      <point x="359" y="98"/>
      <point x="403" y="135"/>
      <point x="428" y="186"/>
      <point x="428" y="216" type="qcurve"/>
      <point x="428" y="262"/>
      <point x="370" y="312"/>
      <point x="319" y="312" type="qcurve"/>
      <point x="201" y="312" type="line"/>
    </contour>
    <contour>
      <point x="218" y="390" type="line"/>
      <point x="336" y="390" type="line"/>
      <point x="366" y="390"/>
      <point x="423" y="409"/>
      <point x="467" y="445"/>
      <point x="493" y="498"/>
      <point x="493" y="532" type="qcurve"/>
      <point x="493" y="574"/>
      <point x="435" y="622"/>
      <point x="382" y="622" type="qcurve"/>
      <point x="267" y="622" type="line"/>
    </contour>
  </outline>
</glyph>
<glyph name="C" format="1">
  <advance width="612"/>
  <unicode hex="0043"/>
  <outline>
    <contour>
      <point x="248" y="64" type="qcurve"/>
      <point x="291" y="64"/>
      <point x="356" y="90"/>
      <point x="402" y="136"/>
      <point x="433" y="201"/>
      <point x="443" y="240" type="qcurve"/>
      <point x="446" y="252" type="line"/>
      <point x="530" y="252" type="line"/>
      <point x="527" y="240" type="line"/>
      <point x="512" y="180"/>
      <point x="467" y="85"/>
      <point x="400" y="20"/>
      <point x="304" y="-14"/>
      <point x="238" y="-14" type="qcurve"/>
      <point x="189" y="-14"/>
      <point x="115" y="14"/>
      <point x="64" y="65"/>
      <point x="38" y="135"/>
      <point x="38" y="178" type="qcurve"/>
      <point x="38" y="199"/>
      <point x="43" y="246"/>
      <point x="48" y="272" type="qcurve"/>
      <point x="81" y="428" type="line"/>
      <point x="111" y="570"/>
      <point x="260" y="714"/>
      <point x="382" y="714" type="qcurve"/>
      <point x="430" y="714"/>
      <point x="505" y="686"/>
      <point x="556" y="637"/>
      <point x="583" y="568"/>
      <point x="583" y="528" type="qcurve"/>
      <point x="583" y="496"/>
      <point x="574" y="460" type="qcurve"/>
      <point x="571" y="448" type="line"/>
      <point x="487" y="448" type="line"/>
      <point x="490" y="460" type="line"/>
      <point x="495" y="479"/>
      <point x="498" y="508"/>
      <point x="498" y="522" type="qcurve"/>
      <point x="498" y="575"/>
      <point x="437" y="638"/>
      <point x="369" y="638" type="qcurve"/>
      <point x="329" y="638"/>
      <point x="263" y="606"/>
      <point x="211" y="549"/>
      <point x="174" y="470"/>
      <point x="164" y="422" type="qcurve"/>
      <point x="133" y="278" type="line"/>
      <point x="128" y="255"/>
      <point x="123" y="215"/>
      <point x="123" y="197" type="qcurve"/>
      <point x="123" y="130"/>
      <point x="183" y="64"/>
    </contour>
  </outline>
</glyph>
<glyph name="I" format="1">
  <advance width="612"/>
  <unicode hex="0049"/>
  <outline>
    <contour>
      <point x="147" y="700" type="line"/>
      <point x="579" y="700" type="line"/>
      <point x="579" y="622" type="line"/>
      <point x="405" y="622" type="line"/>
      <point x="290" y="78" type="line"/>
      <point x="464" y="78" type="line"/>
      <point x="464" y="0" type="line"/>
      <point x="32" y="0" type="line"/>
      <point x="32" y="78" type="line"/>
      <point x="206" y="78" type="line"/>
      <point x="321" y="622" type="line"/>
      <point x="147" y="622" type="line"/>
    </contour>
  </outline>
</glyph>
<glyph name="K" format="1">
  <advance width="612"/>
  <unicode hex="004B"/>
  <outline>
    <contour>
      <point x="91" y="0" type="line"/>
      <point x="5" y="0" type="line"/>
      <point x="154" y="700" type="line"/>
      <point x="240" y="700" type="line"/>
      <point x="174" y="390" type="line"/>
      <point x="200" y="390" type="line"/>
      <point x="515" y="700" type="line"/>
      <point x="612" y="700" type="line"/>
      <point x="612" y="688" type="line"/>
      <point x="275" y="356" type="line"/>
      <point x="275" y="344" type="line"/>
      <point x="493" y="6" type="line"/>
      <point x="493" y="0" type="line"/>
      <point x="398" y="0" type="line"/>
      <point x="197" y="312" type="line"/>
      <point x="157" y="312" type="line"/>
    </contour>
  </outline>
</glyph>
<glyph name="O" format="1">
  <advance width="612"/>
  <unicode hex="004F"/>
  <outline>
    <contour>
      <point x="77" y="428" type="line"/>
      <point x="106" y="568"/>
      <point x="253" y="714"/>
      <point x="377" y="714" type="qcurve"/>
      <point x="474" y="714"/>
      <point x="577" y="603"/>
      <point x="577" y="505" type="qcurve"/>
      <point x="577" y="485"/>
      <point x="572" y="440"/>
      <point x="567" y="417" type="qcurve"/>
      <point x="536" y="272" type="line"/>
      <point x="507" y="132"/>
      <point x="360" y="-14"/>
      <point x="236" y="-14" type="qcurve"/>
      <point x="139" y="-14"/>
      <point x="36" y="97"/>
      <point x="36" y="195" type="qcurve"/>
      <point x="36" y="215"/>
      <point x="41" y="260"/>
      <point x="46" y="283" type="qcurve"/>
    </contour>
    <contour>
      <point x="248" y="62" type="qcurve"/>
      <point x="289" y="62"/>
      <point x="356" y="93"/>
      <point x="407" y="150"/>
      <point x="442" y="229"/>
      <point x="453" y="278" type="qcurve"/>
      <point x="485" y="428" type="line"/>
      <point x="493" y="468"/>
      <point x="493" y="498" type="qcurve"/>
      <point x="493" y="563"/>
      <point x="429" y="638"/>
      <point x="365" y="638" type="qcurve"/>
      <point x="282" y="638"/>
      <point x="181" y="520"/>
      <point x="160" y="422" type="qcurve"/>
      <point x="128" y="272" type="line"/>
      <point x="120" y="232"/>
      <point x="120" y="202" type="qcurve"/>
      <point x="120" y="137"/>
      <point x="184" y="62"/>
    </contour>
  </outline>
</glyph>
<glyph name="Q" format="1">
  <advance width="612"/>
  <unicode hex="0051"/>
  <outline>
    <contour>
      <point x="77" y="428" type="line"/>
      <point x="106" y="568"/>
      <point x="253" y="714"/>
      <point x="377" y="714" type="qcurve"/>
      <point x="474" y="714"/>
      <point x="577" y="603"/>
      <point x="577" y="505" type="qcurve"/>
      <point x="577" y="485"/>
      <point x="572" y="440"/>
      <point x="567" y="417" type="qcurve"/>
      <point x="536" y="272" type="line"/>
      <point x="508" y="139"/>
      <point x="374" y="-5"/>
      <point x="262" y="-13" type="qcurve"/>
      <point x="253" y="-54" type="line"/>
      <point x="252" y="-59"/>
      <point x="252" y="-62"/>
      <point x="252" y="-64" type="qcurve"/>
      <point x="252" y="-84"/>
      <point x="274" y="-84" type="qcurve"/>
      <point x="358" y="-84" type="line"/>
      <point x="358" y="-156" type="line"/>
      <point x="244" y="-156" type="line"/>
      <point x="212" y="-156"/>
      <point x="170" y="-116"/>
      <point x="170" y="-85" type="qcurve"/>
      <point x="170" y="-80"/>
      <point x="170" y="-74"/>
      <point x="172" y="-66" type="qcurve"/>
      <point x="184" y="-9" type="line"/>
      <point x="112" y="5"/>
      <point x="36" y="110"/>
      <point x="36" y="195" type="qcurve"/>
      <point x="36" y="215"/>
      <point x="41" y="260"/>
      <point x="46" y="283" type="qcurve"/>
    </contour>
    <contour>
      <point x="248" y="62" type="qcurve"/>
      <point x="289" y="62"/>
      <point x="356" y="93"/>
      <point x="407" y="150"/>
      <point x="442" y="229"/>
      <point x="453" y="278" type="qcurve"/>
      <point x="485" y="428" type="line"/>
      <point x="493" y="468"/>
      <point x="493" y="498" type="qcurve"/>
      <point x="493" y="563"/>
      <point x="429" y="638"/>
      <point x="365" y="638" type="qcurve"/>
      <point x="282" y="638"/>
      <point x="181" y="520"/>
      <point x="160" y="422" type="qcurve"/>
      <point x="128" y="272" type="line"/>
      <point x="120" y="232"/>
      <point x="120" y="202" type="qcurve"/>
      <point x="120" y="137"/>
      <point x="184" y="62"/>
    </contour>
  </outline>
</glyph>
<glyph name="R" format="1">
  <advance width="612"/>
  <unicode hex="0052"/>
  <outline>
    <contour>
      <point x="448" y="0" type="line"/>
      <point x="364" y="0" type="line"/>
      <point x="414" y="234" type="line"/>
      <point x="416" y="242"/>
      <point x="416" y="253" type="qcurve"/>
      <point x="416" y="270"/>
      <point x="397" y="288"/>
      <point x="374" y="288" type="qcurve"/>
      <point x="153" y="288" type="line"/>
      <point x="92" y="0" type="line"/>
      <point x="8" y="0" type="line"/>
      <point x="157" y="700" type="line"/>
      <point x="394" y="700" type="line"/>
      <point x="483" y="700"/>
      <point x="582" y="610"/>
      <point x="582" y="529" type="qcurve"/>
      <point x="582" y="463"/>
      <point x="512" y="367"/>
      <point x="452" y="342" type="qcurve"/>
      <point x="452" y="330" type="line"/>
      <point x="477" y="328"/>
      <point x="505" y="299"/>
      <point x="505" y="274" type="qcurve"/>
      <point x="505" y="265"/>
      <point x="502" y="252" type="qcurve"/>
    </contour>
    <contour>
      <point x="170" y="366" type="line"/>
      <point x="324" y="366" type="line"/>
      <point x="361" y="366"/>
      <point x="425" y="389"/>
      <point x="471" y="431"/>
      <point x="497" y="487"/>
      <point x="497" y="520" type="qcurve"/>
      <point x="497" y="570"/>
      <point x="437" y="622"/>
      <point x="378" y="622" type="qcurve"/>
      <point x="224" y="622" type="line"/>
    </contour>
  </outline>
</glyph>
<glyph name="T" format="1">
  <advance width="612"/>
  <unicode hex="0054"/>
  <outline>
    <contour>
      <point x="103" y="700" type="line"/>
      <point x="606" y="700" type="line"/>
      <point x="606" y="622" type="line"/>
      <point x="403" y="622" type="line"/>
      <point x="271" y="0" type="line"/>
      <point x="187" y="0" type="line"/>
      <point x="319" y="622" type="line"/>
      <point x="103" y="622" type="line"/>
    </contour>
  </outline>
</glyph>
<glyph name="U" format="1">
  <advance width="612"/>
  <unicode hex="0055"/>
  <outline>
    <contour>
      <point x="226" y="700" type="line"/>
      <point x="128" y="236" type="line"/>
      <point x="125" y="220"/>
      <point x="121" y="191"/>
      <point x="121" y="178" type="qcurve"/>
      <point x="121" y="62"/>
      <point x="244" y="62" type="qcurve"/>
      <point x="319" y="62"/>
      <point x="416" y="150"/>
      <point x="434" y="236" type="qcurve"/>
      <point x="532" y="700" type="line"/>
      <point x="616" y="700" type="line"/>
      <point x="518" y="236" type="line"/>
      <point x="492" y="111"/>
      <point x="355" y="-14"/>
      <point x="232" y="-14" type="qcurve"/>
      <point x="189" y="-14"/>
      <point x="117" y="10"/>
      <point x="66" y="57"/>
      <point x="37" y="125"/>
      <point x="37" y="170" type="qcurve"/>
      <point x="37" y="187"/>
      <point x="40" y="222"/>
      <point x="45" y="242" type="qcurve"/>
      <point x="142" y="700" type="line"/>
    </contour>
  </outline>
</glyph>
<glyph name="bracketleft" format="1">
  <advance width="612"/>
  <unicode hex="005B"/>
  <outline>
    <contour>
      <point x="358" y="778" type="line"/>
      <point x="366" y="814"/>
      <point x="414" y="856"/>
      <point x="452" y="856" type="qcurve"/>
      <point x="534" y="856" type="line"/>
      <point x="534" y="784" type="line"/>
      <point x="465" y="784" type="line"/>
      <point x="437" y="784"/>
      <point x="431" y="754" type="qcurve"/>
      <point x="254" y="-54" type="line"/>
      <point x="253" y="-57"/>
      <point x="253" y="-61" type="qcurve"/>
      <point x="253" y="-64" type="line"/>
      <point x="253" y="-84"/>
      <point x="276" y="-84" type="qcurve"/>
      <point x="343" y="-84" type="line"/>
      <point x="343" y="-156" type="line"/>
      <point x="254" y="-156" type="line"/>
      <point x="218" y="-156"/>
      <point x="172" y="-121"/>
      <point x="172" y="-86" type="qcurve"/>
      <point x="172" y="-74"/>
      <point x="175" y="-60" type="qcurve"/>
    </contour>
  </outline>
</glyph>
<glyph name="bracketright" format="1">
  <advance width="612"/>
  <unicode hex="005D"/>
  <outline>
    <contour>
      <point x="257" y="-78" type="line"/>
      <point x="249" y="-114"/>
      <point x="201" y="-156"/>
      <point x="163" y="-156" type="qcurve"/>
      <point x="81" y="-156" type="line"/>
      <point x="81" y="-84" type="line"/>
      <point x="150" y="-84" type="line"/>
      <point x="178" y="-84"/>
      <point x="184" y="-54" type="qcurve"/>
      <point x="361" y="754" type="line"/>
      <point x="361" y="756"/>
      <point x="362" y="759"/>
      <point x="362" y="761" type="qcurve"/>
      <point x="362" y="764" type="line"/>
      <point x="362" y="784"/>
      <point x="339" y="784" type="qcurve"/>
      <point x="272" y="784" type="line"/>
      <point x="272" y="856" type="line"/>
      <point x="361" y="856" type="line"/>
      <point x="397" y="856"/>
      <point x="443" y="821"/>
      <point x="443" y="786" type="qcurve"/>
      <point x="443" y="773"/>
      <point x="440" y="760" type="qcurve"/>
    </contour>
  </outline>
</glyph>
<glyph name="g" format="1">
  <advance width="612"/>
  <unicode hex="0067"/>
  <outline>
    <contour>
      <point x="395" y="70" type="line"/>
      <point x="383" y="70" type="line"/>
      <point x="354" y="28"/>
      <point x="267" y="-14"/>
      <point x="215" y="-14" type="qcurve"/>
      <point x="172" y="-14"/>
      <point x="101" y="15"/>
      <point x="51" y="67"/>
      <point x="24" y="141"/>
      <point x="24" y="186" type="qcurve"/>
      <point x="24" y="255"/>
      <point x="65" y="373"/>
      <point x="140" y="460"/>
      <point x="245" y="510"/>
      <point x="308" y="510" type="qcurve"/>
      <point x="367" y="510"/>
      <point x="444" y="459"/>
      <point x="456" y="418" type="qcurve"/>
      <point x="468" y="418" type="line"/>
      <point x="485" y="496" type="line"/>
      <point x="563" y="496" type="line"/>
      <point x="432" y="-122" type="line"/>
      <point x="424" y="-156"/>
      <point x="372" y="-200"/>
      <point x="338" y="-200" type="qcurve"/>
      <point x="36" y="-200" type="line"/>
      <point x="36" y="-128" type="line"/>
      <point x="325" y="-128" type="line"/>
      <point x="353" y="-128"/>
      <point x="359" y="-98" type="qcurve"/>
    </contour>
    <contour>
      <point x="232" y="60" type="qcurve"/>
      <point x="278" y="60"/>
      <point x="354" y="101"/>
      <point x="409" y="168"/>
      <point x="439" y="254"/>
      <point x="439" y="298" type="qcurve"/>
      <point x="439" y="360"/>
      <point x="369" y="436"/>
      <point x="310" y="436" type="qcurve"/>
      <point x="263" y="436"/>
      <point x="187" y="396"/>
      <point x="134" y="329"/>
      <point x="105" y="241"/>
      <point x="105" y="194" type="qcurve"/>
      <point x="105" y="132"/>
      <point x="170" y="60"/>
    </contour>
  </outline>
</glyph>
<glyph name="i" format="1">
  <advance width="612"/>
  <unicode hex="0069"/>
  <outline>
    <contour>
      <point x="303" y="644" type="qcurve"/>
      <point x="303" y="673"/>
      <point x="344" y="714"/>
      <point x="373" y="714" type="qcurve"/>
      <point x="402" y="714"/>
      <point x="443" y="673"/>
      <point x="443" y="644" type="qcurve"/>
      <point x="443" y="615"/>
      <point x="402" y="574"/>
      <point x="373" y="574" type="qcurve"/>
      <point x="344" y="574"/>
      <point x="303" y="615"/>
    </contour>
    <contour>
      <point x="287" y="409" type="line"/>
      <point x="289" y="419"/>
      <point x="280" y="434"/>
      <point x="269" y="434" type="qcurve"/>
      <point x="261" y="434"/>
      <point x="254" y="430" type="qcurve"/>
      <point x="137" y="350" type="line"/>
      <point x="97" y="409" type="line"/>
      <point x="215" y="489" type="line"/>
      <point x="246" y="510"/>
      <point x="282" y="510" type="qcurve"/>
      <point x="316" y="510"/>
      <point x="366" y="470"/>
      <point x="366" y="428" type="qcurve"/>
      <point x="366" y="412"/>
      <point x="362" y="396" type="qcurve"/>
      <point x="288" y="87" type="line"/>
      <point x="285" y="75"/>
      <point x="296" y="61"/>
      <point x="305" y="61" type="qcurve"/>
      <point x="312" y="61"/>
      <point x="320" y="66" type="qcurve"/>
      <point x="435" y="144" type="line"/>
      <point x="475" y="85" type="line"/>
      <point x="360" y="7" type="line"/>
      <point x="328" y="-14"/>
      <point x="293" y="-14" type="qcurve"/>
      <point x="259" y="-14"/>
      <point x="209" y="26"/>
      <point x="209" y="68" type="qcurve"/>
      <point x="209" y="84"/>
      <point x="213" y="100" type="qcurve"/>
    </contour>
  </outline>
</glyph>
<glyph name="j" format="1">
  <advance width="612"/>
  <unicode hex="006A"/>
  <outline>
    <contour>
      <point x="361" y="644" type="qcurve"/>
      <point x="361" y="673"/>
      <point x="402" y="714"/>
      <point x="431" y="714" type="qcurve"/>
      <point x="460" y="714"/>
      <point x="501" y="673"/>
      <point x="501" y="644" type="qcurve"/>
      <point x="501" y="615"/>
      <point x="460" y="574"/>
      <point x="431" y="574" type="qcurve"/>
      <point x="402" y="574"/>
      <point x="361" y="615"/>
    </contour>
    <contour>
      <point x="316" y="-122" type="line"/>
      <point x="309" y="-156"/>
      <point x="257" y="-200"/>
      <point x="223" y="-200" type="qcurve"/>
      <point x="0" y="-200" type="line"/>
      <point x="0" y="-128" type="line"/>
      <point x="210" y="-128" type="line"/>
      <point x="237" y="-128"/>
      <point x="243" y="-98" type="qcurve"/>
      <point x="352" y="412" type="line"/>
      <point x="354" y="423"/>
      <point x="344" y="434"/>
      <point x="337" y="434" type="qcurve"/>
      <point x="331" y="434"/>
      <point x="325" y="430" type="qcurve"/>
      <point x="208" y="350" type="line"/>
      <point x="168" y="409" type="line"/>
      <point x="286" y="489" type="line"/>
      <point x="317" y="510"/>
      <point x="349" y="510" type="qcurve"/>
      <point x="382" y="510"/>
      <point x="430" y="465"/>
      <point x="430" y="427" type="qcurve"/>
      <point x="430" y="416"/>
      <point x="427" y="401" type="qcurve"/>
    </contour>
  </outline>
</glyph>
<glyph name="m" format="1">
  <advance width="612"/>
  <unicode hex="006D"/>
  <outline>
    <contour>
      <point x="476" y="372" type="line"/>
      <point x="477" y="377"/>
      <point x="478" y="385"/>
      <point x="478" y="390" type="qcurve"/>
      <point x="478" y="410"/>
      <point x="456" y="436"/>
      <point x="433" y="436" type="qcurve"/>
      <point x="404" y="436"/>
      <point x="371" y="396"/>
      <point x="363" y="360" type="qcurve"/>
      <point x="286" y="0" type="line"/>
      <point x="208" y="0" type="line"/>
      <point x="287" y="372" type="line"/>
      <point x="289" y="382"/>
      <point x="289" y="393" type="qcurve"/>
      <point x="289" y="411"/>
      <point x="270" y="436"/>
      <point x="245" y="436" type="qcurve"/>
      <point x="213" y="436"/>
      <point x="181" y="390"/>
      <point x="174" y="360" type="qcurve"/>
      <point x="97" y="0" type="line"/>
      <point x="20" y="0" type="line"/>
      <point x="125" y="496" type="line"/>
      <point x="203" y="496" type="line"/>
      <point x="194" y="454" type="line"/>
      <point x="206" y="454" type="line"/>
      <point x="217" y="483"/>
      <point x="263" y="510"/>
      <point x="291" y="510" type="qcurve"/>
      <point x="322" y="510"/>
      <point x="361" y="480"/>
      <point x="366" y="454" type="qcurve"/>
      <point x="378" y="454" type="line"/>
      <point x="392" y="481"/>
      <point x="436" y="510"/>
      <point x="468" y="510" type="qcurve"/>
      <point x="513" y="510"/>
      <point x="559" y="457"/>
      <point x="559" y="414" type="qcurve"/>
      <point x="559" y="405"/>
      <point x="557" y="384"/>
      <point x="555" y="376" type="qcurve"/>
      <point x="491" y="78" type="line"/>
      <point x="489" y="70"/>
      <point x="497" y="62"/>
      <point x="503" y="62" type="qcurve"/>
      <point x="509" y="62"/>
      <point x="514" y="66" type="qcurve"/>
      <point x="556" y="97" type="line"/>
      <point x="598" y="38" type="line"/>
      <point x="553" y="4" type="line"/>
      <point x="542" y="-4"/>
      <point x="509" y="-14"/>
      <point x="492" y="-14" type="qcurve"/>
      <point x="477" y="-14"/>
      <point x="449" y="-6"/>
      <point x="426" y="11"/>
      <point x="412" y="38"/>
      <point x="412" y="58" type="qcurve"/>
      <point x="412" y="63"/>
      <point x="413" y="73"/>
      <point x="414" y="78" type="qcurve"/>
    </contour>
  </outline>
</glyph>
<glyph name="s" format="1">
  <advance width="612"/>
  <unicode hex="0073"/>
  <outline>
    <contour>
      <point x="336" y="440" type="qcurve"/>
      <point x="316" y="440"/>
      <point x="273" y="430"/>
      <point x="238" y="410"/>
      <point x="216" y="379"/>
      <point x="216" y="358" type="qcurve"/>
      <point x="216" y="326"/>
      <point x="273" y="294"/>
      <point x="343" y="289" type="qcurve"/>
      <point x="415" y="284"/>
      <point x="494" y="222"/>
      <point x="494" y="162" type="qcurve"/>
      <point x="494" y="120"/>
      <point x="459" y="54"/>
      <point x="397" y="9"/>
      <point x="312" y="-14"/>
      <point x="261" y="-14" type="qcurve"/>
      <point x="210" y="-14"/>
      <point x="139" y="13"/>
      <point x="93" y="58"/>
      <point x="72" y="115"/>
      <point x="72" y="145" type="qcurve"/>
      <point x="72" y="150"/>
      <point x="72" y="161"/>
      <point x="73" y="166" type="qcurve"/>
      <point x="151" y="176" type="line"/>
      <point x="150" y="168"/>
      <point x="150" y="164"/>
      <point x="150" y="160" type="qcurve"/>
      <point x="150" y="138"/>
      <point x="163" y="101"/>
      <point x="193" y="74"/>
      <point x="241" y="58"/>
      <point x="276" y="58" type="qcurve"/>
      <point x="299" y="58"/>
      <point x="348" y="69"/>
      <point x="388" y="92"/>
      <point x="414" y="127"/>
      <point x="414" y="152" type="qcurve"/>
      <point x="414" y="191"/>
      <point x="351" y="218"/>
      <point x="289" y="223" type="qcurve"/>
      <point x="218" y="228"/>
      <point x="137" y="286"/>
      <point x="137" y="348" type="qcurve"/>
      <point x="137" y="383"/>
      <point x="167" y="443"/>
      <point x="222" y="486"/>
      <point x="299" y="510"/>
      <point x="346" y="510" type="qcurve"/>
      <point x="392" y="510"/>
      <point x="459" y="485"/>
      <point x="502" y="445"/>
      <point x="523" y="394"/>
      <point x="523" y="367" type="qcurve"/>
      <point x="523" y="356" type="line"/>
      <point x="446" y="345" type="line"/>
      <point x="446" y="349" type="line"/>
      <point x="446" y="351"/>
      <point x="447" y="354"/>
      <point x="447" y="356" type="qcurve"/>
      <point x="447" y="394"/>
      <point x="390" y="440"/>
    </contour>
  </outline>
</glyph>
<glyph name="u" format="1">
  <advance width="612"/>
  <unicode hex="0075"/>
  <outline>
    <contour>
      <point x="365" y="84" type="line"/>
      <point x="353" y="84" type="line"/>
      <point x="326" y="36"/>
      <point x="242" y="-14"/>
      <point x="182" y="-14" type="qcurve"/>
      <point x="116" y="-14"/>
      <point x="34" y="61"/>
      <point x="34" y="135" type="qcurve"/>
      <point x="34" y="150"/>
      <point x="37" y="181"/>
      <point x="42" y="200" type="qcurve"/>
      <point x="108" y="496" type="line"/>
      <point x="186" y="496" type="line"/>
      <point x="122" y="210" type="line"/>
      <point x="115" y="179"/>
      <point x="115" y="152" type="qcurve"/>
      <point x="115" y="60"/>
      <point x="214" y="60" type="qcurve"/>
      <point x="283" y="60"/>
      <point x="380" y="157"/>
      <point x="398" y="238" type="qcurve"/>
      <point x="456" y="496" type="line"/>
      <point x="534" y="496" type="line"/>
      <point x="443" y="84" type="line"/>
      <point x="441" y="76"/>
      <point x="449" y="66"/>
      <point x="456" y="66" type="qcurve"/>
      <point x="463" y="66"/>
      <point x="470" y="71" type="qcurve"/>
      <point x="513" y="102" type="line"/>
      <point x="555" y="44" type="line"/>
      <point x="505" y="6" type="line"/>
      <point x="493" y="-4"/>
      <point x="458" y="-14"/>
      <point x="440" y="-14" type="qcurve"/>
      <point x="425" y="-14"/>
      <point x="397" y="-6"/>
      <point x="375" y="12"/>
      <point x="362" y="39"/>
      <point x="362" y="58" type="qcurve"/>
      <point x="362" y="63"/>
      <point x="363" y="73"/>
      <point x="364" y="78" type="qcurve"/>
    </contour>
  </outline>
</glyph>
<glyph name="v" format="1">
  <advance width="612"/>
  <unicode hex="0076"/>
  <outline>
    <contour>
      <point x="253" y="36" type="line"/>
      <point x="265" y="36" type="line"/>
      <point x="497" y="496" type="line"/>
      <point x="570" y="459" type="line"/>
      <point x="330" y="0" type="line"/>
      <point x="178" y="0" type="line"/>
      <point x="140" y="418" type="line"/>
      <point x="138" y="434"/>
      <point x="123" y="434" type="qcurve"/>
      <point x="112" y="434"/>
      <point x="105" y="425" type="qcurve"/>
      <point x="56" y="363" type="line"/>
      <point x="0" y="408" type="line"/>
      <point x="48" y="470" type="line"/>
      <point x="64" y="490"/>
      <point x="106" y="510"/>
      <point x="128" y="510" type="qcurve"/>
      <point x="161" y="510"/>
      <point x="214" y="468"/>
      <point x="218" y="426" type="qcurve"/>
    </contour>
  </outline>
</glyph>
<glyph name="x" format="1">
  <advance width="612"/>
  <unicode hex="0078"/>
  <outline>
    <contour>
      <point x="238" y="252" type="line"/>
      <point x="171" y="414" type="line"/>
      <point x="165" y="427"/>
      <point x="153" y="427" type="qcurve"/>
      <point x="141" y="427"/>
      <point x="135" y="415" type="qcurve"/>
      <point x="91" y="340" type="line"/>
      <point x="29" y="376" type="line"/>
      <point x="74" y="454" type="line"/>
      <point x="90" y="481"/>
      <point x="129" y="510"/>
      <point x="158" y="510" type="qcurve"/>
      <point x="212" y="510"/>
      <point x="237" y="451" type="qcurve"/>
      <point x="296" y="308" type="line"/>
      <point x="498" y="506" type="line"/>
      <point x="551" y="453" type="line"/>
      <point x="327" y="234" type="line"/>
      <point x="392" y="80" type="line"/>
      <point x="398" y="67"/>
      <point x="410" y="67" type="qcurve"/>
      <point x="421" y="67"/>
      <point x="427" y="78" type="qcurve"/>
      <point x="470" y="155" type="line"/>
      <point x="533" y="121" type="line"/>
      <point x="490" y="42" type="line"/>
      <point x="474" y="13"/>
      <point x="432" y="-14"/>
      <point x="405" y="-14" type="qcurve"/>
      <point x="381" y="-14"/>
      <point x="338" y="13"/>
      <point x="325" y="43" type="qcurve"/>
      <point x="269" y="177" type="line"/>
      <point x="76" y="-12" type="line"/>
      <point x="23" y="41" type="line"/>
    </contour>
  </outline>
</glyph>
<glyph name="braceleft" format="1">
  <advance width="612"/>
  <unicode hex="007B"/>
  <outline>
    <contour>
      <point x="373" y="778" type="line"/>
      <point x="381" y="816"/>
      <point x="427" y="856"/>
      <point x="467" y="856" type="qcurve"/>
      <point x="549" y="856" type="line"/>
      <point x="549" y="784" type="line"/>
      <point x="480" y="784" type="line"/>
      <point x="452" y="784"/>
      <point x="446" y="754" type="qcurve"/>
      <point x="376" y="434" type="line"/>
      <point x="368" y="398"/>
      <point x="320" y="356"/>
      <point x="282" y="356" type="qcurve"/>
      <point x="267" y="356" type="line"/>
      <point x="267" y="344" type="line"/>
      <point x="279" y="344" type="line"/>
      <point x="306" y="344"/>
      <point x="340" y="312"/>
      <point x="340" y="283" type="qcurve"/>
      <point x="340" y="278"/>
      <point x="340" y="270"/>
      <point x="338" y="262" type="qcurve"/>
      <point x="269" y="-55" type="line"/>
      <point x="268" y="-60"/>
      <point x="268" y="-64" type="qcurve"/>
      <point x="268" y="-84"/>
      <point x="293" y="-84" type="qcurve"/>
      <point x="358" y="-84" type="line"/>
      <point x="358" y="-156" type="line"/>
      <point x="272" y="-156" type="line"/>
      <point x="236" y="-156"/>
      <point x="188" y="-121"/>
      <point x="188" y="-83" type="qcurve"/>
      <point x="188" y="-75"/>
      <point x="189" y="-62"/>
      <point x="191" y="-54" type="qcurve"/>
      <point x="261" y="267" type="line"/>
      <point x="262" y="272"/>
      <point x="262" y="277" type="qcurve"/>
      <point x="262" y="296"/>
      <point x="240" y="296" type="qcurve"/>
      <point x="201" y="296" type="line"/>
      <point x="201" y="404" type="line"/>
      <point x="265" y="404" type="line"/>
      <point x="292" y="404"/>
      <point x="298" y="433" type="qcurve"/>
    </contour>
  </outline>
</glyph>
<glyph name="exclamdown" format="1">
  <advance width="612"/>
  <unicode hex="00A1"/>
  <outline>
    <contour>
      <point x="154" y="-200" type="line"/>
      <point x="271" y="314" type="line"/>
      <point x="351" y="314" type="line"/>
      <point x="234" y="-200" type="line"/>
    </contour>
    <contour>
      <point x="407" y="444" type="qcurve"/>
      <point x="407" y="415"/>
      <point x="366" y="374"/>
      <point x="337" y="374" type="qcurve"/>
      <point x="308" y="374"/>
      <point x="267" y="415"/>
      <point x="267" y="444" type="qcurve"/>
      <point x="267" y="473"/>
      <point x="308" y="514"/>
      <point x="337" y="514" type="qcurve"/>
      <point x="366" y="514"/>
      <point x="407" y="473"/>
    </contour>
  </outline>
</glyph>
<glyph name="cent" format="1">
  <advance width="612"/>
  <unicode hex="00A2"/>
  <outline>
    <contour>
      <point x="416" y="672" type="line"/>
      <point x="403" y="609" type="line"/>
      <point x="440" y="603"/>
      <point x="500" y="572"/>
      <point x="540" y="526"/>
      <point x="562" y="467"/>
      <point x="562" y="433" type="qcurve"/>
      <point x="562" y="422" type="line"/>
      <point x="480" y="404" type="line"/>
      <point x="481" y="412"/>
      <point x="481" y="417"/>
      <point x="481" y="419" type="qcurve"/>
      <point x="481" y="461"/>
      <point x="438" y="525"/>
      <point x="387" y="534" type="qcurve"/>
      <point x="308" y="165" type="line"/>
      <point x="368" y="175"/>
      <point x="444" y="249"/>
      <point x="459" y="296" type="qcurve"/>
      <point x="533" y="278" type="line"/>
      <point x="506" y="200"/>
      <point x="384" y="99"/>
      <point x="292" y="90" type="qcurve"/>
      <point x="279" y="28" type="line"/>
      <point x="207" y="28" type="line"/>
      <point x="220" y="90" type="line"/>
      <point x="183" y="95"/>
      <point x="120" y="126"/>
      <point x="74" y="175"/>
      <point x="48" y="242"/>
      <point x="48" y="284" type="qcurve"/>
      <point x="48" y="347"/>
      <point x="88" y="461"/>
      <point x="161" y="548"/>
      <point x="266" y="604"/>
      <point x="331" y="610" type="qcurve"/>
      <point x="344" y="672" type="line"/>
    </contour>
    <contour>
      <point x="130" y="297" type="qcurve"/>
      <point x="130" y="237"/>
      <point x="186" y="173"/>
      <point x="236" y="165" type="qcurve"/>
      <point x="315" y="535" type="line"/>
      <point x="273" y="528"/>
      <point x="205" y="485"/>
      <point x="157" y="421"/>
      <point x="130" y="341"/>
    </contour>
  </outline>
</glyph>
<glyph name="yen" format="1">
  <advance width="612"/>
  <unicode hex="00A5"/>
  <outline>
    <contour>
      <point x="124" y="366" type="line"/>
      <point x="216" y="366" type="line"/>
      <point x="143" y="598" type="line"/>
      <point x="223" y="598" type="line"/>
      <point x="292" y="366" type="line"/>
      <point x="304" y="366" type="line"/>
      <point x="471" y="598" type="line"/>
      <point x="556" y="598" type="line"/>
      <point x="556" y="592" type="line"/>
      <point x="390" y="366" type="line"/>
      <point x="472" y="366" type="line"/>
      <point x="472" y="294" type="line"/>
      <point x="319" y="294" type="line"/>
      <point x="311" y="258" type="line"/>
      <point x="449" y="258" type="line"/>
      <point x="449" y="186" type="line"/>
      <point x="296" y="186" type="line"/>
      <point x="278" y="102" type="line"/>
      <point x="206" y="102" type="line"/>
      <point x="224" y="186" type="line"/>
      <point x="101" y="186" type="line"/>
      <point x="101" y="258" type="line"/>
      <point x="239" y="258" type="line"/>
      <point x="247" y="294" type="line"/>
      <point x="124" y="294" type="line"/>
    </contour>
  </outline>
</glyph>
<glyph name="section" format="1">
  <advance width="612"/>
  <unicode hex="00A7"/>
  <outline>
    <contour>
      <point x="206" y="476" type="qcurve"/>
      <point x="206" y="499"/>
      <point x="225" y="531"/>
      <point x="238" y="545" type="qcurve"/>
      <point x="235" y="552"/>
      <point x="229" y="572"/>
      <point x="229" y="586" type="qcurve"/>
      <point x="229" y="615"/>
      <point x="251" y="663"/>
      <point x="291" y="696"/>
      <point x="344" y="714"/>
      <point x="376" y="714" type="qcurve"/>
      <point x="430" y="714"/>
      <point x="490" y="661"/>
      <point x="490" y="626" type="qcurve"/>
      <point x="490" y="621"/>
      <point x="489" y="602"/>
      <point x="485" y="588" type="qcurve"/>
      <point x="416" y="588" type="line"/>
      <point x="418" y="596"/>
      <point x="419" y="603"/>
      <point x="419" y="605" type="qcurve"/>
      <point x="419" y="622"/>
      <point x="390" y="648"/>
      <point x="364" y="648" type="qcurve"/>
      <point x="338" y="648"/>
      <point x="302" y="623"/>
      <point x="302" y="603" type="qcurve"/>
      <point x="302" y="583"/>
      <point x="334" y="562"/>
      <point x="377" y="554" type="qcurve"/>
      <point x="419" y="546"/>
      <point x="464" y="504"/>
      <point x="464" y="468" type="qcurve"/>
      <point x="464" y="428"/>
      <point x="431" y="393" type="qcurve"/>
      <point x="433" y="388"/>
      <point x="440" y="369"/>
      <point x="440" y="352" type="qcurve"/>
      <point x="440" y="320"/>
      <point x="416" y="271"/>
      <point x="375" y="236"/>
      <point x="319" y="218"/>
      <point x="286" y="218" type="qcurve"/>
      <point x="255" y="218"/>
      <point x="209" y="235"/>
      <point x="179" y="262"/>
      <point x="164" y="297"/>
      <point x="164" y="316" type="qcurve"/>
      <point x="164" y="328"/>
      <point x="166" y="347"/>
      <point x="169" y="359" type="qcurve"/>
      <point x="237" y="359" type="line"/>
      <point x="235" y="354"/>
      <point x="234" y="340"/>
      <point x="234" y="336" type="qcurve"/>
      <point x="234" y="315"/>
      <point x="266" y="284"/>
      <point x="296" y="284" type="qcurve"/>
      <point x="325" y="284"/>
      <point x="365" y="312"/>
      <point x="365" y="336" type="qcurve"/>
      <point x="365" y="356"/>
      <point x="332" y="376"/>
      <point x="296" y="384" type="qcurve"/>
      <point x="279" y="388"/>
      <point x="246" y="400"/>
      <point x="221" y="421"/>
      <point x="206" y="453"/>
    </contour>
    <contour>
      <point x="340" y="443" type="qcurve"/>
      <point x="360" y="439"/>
      <point x="373" y="434"/>
      <point x="379" y="432" type="qcurve"/>
      <point x="382" y="436"/>
      <point x="386" y="450"/>
      <point x="386" y="456" type="qcurve"/>
      <point x="386" y="476"/>
      <point x="357" y="493"/>
      <point x="321" y="501" type="qcurve"/>
      <point x="290" y="508" type="line"/>
      <point x="281" y="495"/>
      <point x="281" y="483" type="qcurve"/>
      <point x="281" y="469"/>
      <point x="308" y="448"/>
    </contour>
  </outline>
</glyph>
<glyph name="twosuperior" format="1">
  <advance width="612"/>
  <unicode hex="00B2"/>
  <outline>
    <contour>
      <point x="383" y="460" type="line"/>
      <point x="383" y="412" type="line"/>
      <point x="180" y="412" type="line"/>
      <point x="180" y="418" type="line"/>
      <point x="190" y="466" type="line"/>
      <point x="200" y="511"/>
      <point x="253" y="553"/>
      <point x="294" y="561" type="qcurve"/>
      <point x="329" y="568"/>
      <point x="366" y="598"/>
      <point x="366" y="622" type="qcurve"/>
      <point x="366" y="637"/>
      <point x="347" y="658"/>
      <point x="326" y="658" type="qcurve"/>
      <point x="303" y="658"/>
      <point x="270" y="630"/>
      <point x="265" y="598" type="qcurve"/>
      <point x="263" y="586" type="line"/>
      <point x="209" y="586" type="line"/>
      <point x="212" y="602" type="line"/>
      <point x="222" y="653"/>
      <point x="284" y="706"/>
      <point x="334" y="706" type="qcurve"/>
      <point x="378" y="706"/>
      <point x="422" y="658"/>
      <point x="422" y="626" type="qcurve"/>
      <point x="422" y="584"/>
      <point x="366" y="530"/>
      <point x="322" y="519" type="qcurve"/>
      <point x="301" y="514"/>
      <point x="273" y="504"/>
      <point x="255" y="491"/>
      <point x="246" y="475"/>
      <point x="243" y="464" type="qcurve"/>
      <point x="242" y="460" type="line"/>
    </contour>
  </outline>
</glyph>
<glyph name="mu" format="1">
  <advance width="612"/>
  <unicode hex="00B5"/>
  <outline>
    <contour>
      <point x="365" y="78" type="line"/>
      <point x="347" y="33"/>
      <point x="279" y="-14"/>
      <point x="223" y="-14" type="qcurve"/>
      <point x="179" y="-14"/>
      <point x="123" y="25"/>
      <point x="115" y="60" type="qcurve"/>
      <point x="103" y="60" type="line"/>
      <point x="48" y="-200" type="line"/>
      <point x="-30" y="-200" type="line"/>
      <point x="117" y="496" type="line"/>
      <point x="195" y="496" type="line"/>
      <point x="137" y="220" type="line"/>
      <point x="131" y="190"/>
      <point x="131" y="167" type="qcurve"/>
      <point x="131" y="110"/>
      <point x="189" y="60"/>
      <point x="232" y="60" type="qcurve"/>
      <point x="305" y="60"/>
      <point x="393" y="157"/>
      <point x="410" y="238" type="qcurve"/>
      <point x="465" y="496" type="line"/>
      <point x="543" y="496" type="line"/>
      <point x="456" y="86" type="line"/>
      <point x="454" y="77"/>
      <point x="462" y="66"/>
      <point x="469" y="66" type="qcurve"/>
      <point x="475" y="66"/>
      <point x="482" y="71" type="qcurve"/>
      <point x="518" y="97" type="line"/>
      <point x="560" y="38" type="line"/>
      <point x="517" y="6" type="line"/>
      <point x="504" y="-3"/>
      <point x="470" y="-14"/>
      <point x="452" y="-14" type="qcurve"/>
      <point x="422" y="-14"/>
      <point x="374" y="19"/>
      <point x="374" y="56" type="qcurve"/>
      <point x="374" y="68"/>
      <point x="376" y="78" type="qcurve"/>
    </contour>
  </outline>
</glyph>
<glyph name="ae" format="1">
  <advance width="612"/>
  <unicode hex="00E6"/>
  <outline>
    <contour>
      <point x="319" y="510" type="qcurve"/>
      <point x="369" y="510"/>
      <point x="445" y="478"/>
      <point x="497" y="425"/>
      <point x="524" y="356"/>
      <point x="524" y="320" type="qcurve"/>
      <point x="524" y="301"/>
      <point x="519" y="278" type="qcurve"/>
      <point x="507" y="224" type="line"/>
      <point x="308" y="224" type="line"/>
      <point x="274" y="62" type="line"/>
      <point x="326" y="68"/>
      <point x="397" y="125"/>
      <point x="414" y="162" type="qcurve"/>
      <point x="484" y="142" type="line"/>
      <point x="452" y="73"/>
      <point x="321" y="-14"/>
      <point x="223" y="-14" type="qcurve"/>
      <point x="179" y="-14" type="line"/>
      <point x="144" y="-14"/>
      <point x="84" y="4"/>
      <point x="40" y="38"/>
      <point x="16" y="89"/>
      <point x="16" y="122" type="qcurve"/>
      <point x="16" y="161"/>
      <point x="46" y="225"/>
      <point x="101" y="271"/>
      <point x="179" y="296"/>
      <point x="227" y="296" type="qcurve"/>
      <point x="246" y="296" type="line"/>
      <point x="276" y="437" type="line"/>
      <point x="231" y="432"/>
      <point x="165" y="378"/>
      <point x="148" y="330" type="qcurve"/>
      <point x="82" y="358" type="line"/>
      <point x="94" y="387"/>
      <point x="132" y="442"/>
      <point x="190" y="484"/>
      <point x="268" y="510"/>
    </contour>
    <contour>
      <point x="219" y="224" type="line"/>
      <point x="196" y="224"/>
      <point x="152" y="213"/>
      <point x="118" y="189"/>
      <point x="97" y="152"/>
      <point x="97" y="126" type="qcurve"/>
      <point x="97" y="93"/>
      <point x="141" y="58"/>
      <point x="183" y="58" type="qcurve"/>
      <point x="195" y="58" type="line"/>
      <point x="230" y="224" type="line"/>
    </contour>
    <contour>
      <point x="445" y="296" type="line"/>
      <point x="446" y="301"/>
      <point x="447" y="313"/>
      <point x="447" y="320" type="qcurve"/>
      <point x="447" y="365"/>
      <point x="396" y="424"/>
      <point x="353" y="432" type="qcurve"/>
      <point x="324" y="296" type="line"/>
    </contour>
  </outline>
</glyph>
<glyph name="ccedilla" format="1">
  <advance width="612"/>
  <unicode hex="00E7"/>
  <outline>
    <contour>
      <point x="510" y="170" type="line"/>
      <point x="498" y="133"/>
      <point x="453" y="67"/>
      <point x="387" y="18"/>
      <point x="301" y="-12"/>
      <point x="247" y="-14" type="qcurve"/>
      <point x="228" y="-68" type="line"/>
      <point x="234" y="-68" type="line"/>
      <point x="251" y="-36"/>
      <point x="288" y="-36" type="qcurve"/>
      <point x="321" y="-36"/>
      <point x="356" y="-80"/>
      <point x="356" y="-110" type="qcurve"/>
      <point x="356" y="-155"/>
      <point x="305" y="-212"/>
      <point x="252" y="-212" type="qcurve"/>
      <point x="211" y="-212"/>
      <point x="163" y="-173"/>
      <point x="158" y="-142" type="qcurve"/>
      <point x="208" y="-125" type="line"/>
      <point x="210" y="-141"/>
      <point x="231" y="-164"/>
      <point x="254" y="-164" type="qcurve"/>
      <point x="277" y="-164"/>
      <point x="302" y="-139"/>
      <point x="302" y="-118" type="qcurve"/>
      <point x="302" y="-100"/>
      <point x="283" y="-84"/>
      <point x="270" y="-84" type="qcurve"/>
      <point x="259" y="-84"/>
      <point x="247" y="-92"/>
      <point x="243" y="-98" type="qcurve"/>
      <point x="168" y="-98" type="line"/>
      <point x="168" y="-86" type="line"/>
      <point x="194" y="-11" type="line"/>
      <point x="116" y="0"/>
      <point x="26" y="107"/>
      <point x="26" y="192" type="qcurve"/>
      <point x="26" y="257"/>
      <point x="71" y="373"/>
      <point x="153" y="460"/>
      <point x="269" y="510"/>
      <point x="340" y="510" type="qcurve"/>
      <point x="386" y="510"/>
      <point x="460" y="484"/>
      <point x="512" y="437"/>
      <point x="540" y="372"/>
      <point x="540" y="333" type="qcurve"/>
      <point x="540" y="331"/>
      <point x="540" y="326"/>
      <point x="539" y="318" type="qcurve"/>
      <point x="459" y="306" type="line"/>
      <point x="460" y="312"/>
      <point x="460" y="318"/>
      <point x="460" y="322" type="qcurve"/>
      <point x="460" y="346"/>
      <point x="445" y="387"/>
      <point x="412" y="418"/>
      <point x="361" y="436"/>
      <point x="326" y="436" type="qcurve"/>
      <point x="279" y="436"/>
      <point x="200" y="398"/>
      <point x="141" y="333"/>
      <point x="108" y="247"/>
      <point x="108" y="200" type="qcurve"/>
      <point x="108" y="129"/>
      <point x="184" y="60"/>
      <point x="250" y="60" type="qcurve"/>
      <point x="290" y="60"/>
      <point x="352" y="83"/>
      <point x="398" y="120"/>
      <point x="428" y="168"/>
      <point x="436" y="194" type="qcurve"/>
    </contour>
  </outline>
</glyph>
<glyph name="oslash" format="1">
  <advance width="612"/>
  <unicode hex="00F8"/>
  <outline>
    <contour>
      <point x="329" y="510" type="qcurve"/>
      <point x="341" y="510"/>
      <point x="364" y="507"/>
      <point x="375" y="505" type="qcurve"/>
      <point x="404" y="558" type="line"/>
      <point x="464" y="524" type="line"/>
      <point x="440" y="479" type="line"/>
      <point x="482" y="453"/>
      <point x="531" y="364"/>
      <point x="531" y="306" type="qcurve"/>
      <point x="531" y="244"/>
      <point x="490" y="129"/>
      <point x="411" y="40"/>
      <point x="296" y="-14"/>
      <point x="223" y="-14" type="qcurve"/>
      <point x="201" y="-14"/>
      <point x="176" y="-9" type="qcurve"/>
      <point x="145" y="-68" type="line"/>
      <point x="85" y="-33" type="line"/>
      <point x="111" y="16" type="line"/>
      <point x="69" y="41"/>
      <point x="20" y="129"/>
      <point x="20" y="188" type="qcurve"/>
      <point x="20" y="260"/>
      <point x="69" y="379"/>
      <point x="154" y="463"/>
      <point x="266" y="510"/>
    </contour>
    <contour>
      <point x="240" y="60" type="qcurve"/>
      <point x="286" y="60"/>
      <point x="364" y="101"/>
      <point x="420" y="168"/>
      <point x="451" y="254"/>
      <point x="451" y="300" type="qcurve"/>
      <point x="451" y="369"/>
      <point x="401" y="408" type="qcurve"/>
      <point x="215" y="61" type="line"/>
      <point x="221" y="60"/>
      <point x="233" y="60"/>
    </contour>
    <contour>
      <point x="102" y="196" type="qcurve"/>
      <point x="102" y="124"/>
      <point x="150" y="87" type="qcurve"/>
      <point x="337" y="434" type="line"/>
      <point x="331" y="435"/>
      <point x="319" y="436"/>
      <point x="312" y="436" type="qcurve"/>
      <point x="269" y="436"/>
      <point x="193" y="398"/>
      <point x="136" y="332"/>
      <point x="102" y="245"/>
    </contour>
  </outline>
</glyph>
<glyph name="Aogonek" format="1">
  <advance width="612"/>
  <unicode hex="0104"/>
  <outline>
    <contour>
      <point x="419" y="174" type="line"/>
      <point x="138" y="174" type="line"/>
      <point x="53" y="0" type="line"/>
      <point x="-42" y="0" type="line"/>
      <point x="305" y="700" type="line"/>
      <point x="465" y="700" type="line"/>
      <point x="515" y="0" type="line"/>
      <point x="498" y="0" type="line"/>
      <point x="468" y="-68" type="line"/>
      <point x="465" y="-76"/>
      <point x="465" y="-81" type="qcurve"/>
      <point x="465" y="-98"/>
      <point x="484" y="-98" type="qcurve"/>
      <point x="526" y="-98" type="line"/>
      <point x="526" y="-164" type="line"/>
      <point x="456" y="-164" type="line"/>
      <point x="431" y="-164"/>
      <point x="394" y="-132"/>
      <point x="394" y="-103" type="qcurve"/>
      <point x="394" y="-85"/>
      <point x="402" y="-66" type="qcurve"/>
      <point x="430" y="0" type="line"/>
    </contour>
    <contour>
      <point x="176" y="252" type="line"/>
      <point x="414" y="252" type="line"/>
      <point x="388" y="663" type="line"/>
      <point x="376" y="663" type="line"/>
    </contour>
  </outline>
</glyph>
<glyph name="dcroat" format="1">
  <advance width="612"/>
  <unicode hex="0111"/>
  <outline>
    <contour>
      <point x="305" y="634" type="line"/>
      <point x="481" y="634" type="line"/>
      <point x="498" y="714" type="line"/>
      <point x="576" y="714" type="line"/>
      <point x="559" y="634" type="line"/>
      <point x="619" y="634" type="line"/>
      <point x="619" y="562" type="line"/>
      <point x="543" y="562" type="line"/>
      <point x="442" y="84" type="line"/>
      <point x="439" y="66"/>
      <point x="455" y="66" type="qcurve"/>
      <point x="461" y="66"/>
      <point x="468" y="71" type="qcurve"/>
      <point x="504" y="97" type="line"/>
      <point x="547" y="38" type="line"/>
      <point x="502" y="4" type="line"/>
      <point x="491" y="-4"/>
      <point x="460" y="-14"/>
      <point x="441" y="-14" type="qcurve"/>
      <point x="426" y="-14"/>
      <point x="398" y="-6"/>
      <point x="375" y="11"/>
      <point x="361" y="38"/>
      <point x="361" y="58" type="qcurve"/>
      <point x="361" y="63"/>
      <point x="362" y="73"/>
      <point x="363" y="78" type="qcurve"/>
      <point x="351" y="78" type="line"/>
      <point x="319" y="25"/>
      <point x="231" y="-14"/>
      <point x="182" y="-14" type="qcurve"/>
      <point x="142" y="-14"/>
      <point x="76" y="14"/>
      <point x="30" y="65"/>
      <point x="4" y="138"/>
      <point x="4" y="182" type="qcurve"/>
      <point x="4" y="244"/>
      <point x="42" y="362"/>
      <point x="114" y="454"/>
      <point x="219" y="510"/>
      <point x="287" y="510" type="qcurve"/>
      <point x="340" y="510"/>
      <point x="411" y="466"/>
      <point x="424" y="418" type="qcurve"/>
      <point x="436" y="418" type="line"/>
      <point x="466" y="562" type="line"/>
      <point x="305" y="562" type="line"/>
    </contour>
    <contour>
      <point x="206" y="60" type="qcurve"/>
      <point x="246" y="60"/>
      <point x="319" y="97"/>
      <point x="374" y="161"/>
      <point x="406" y="248"/>
      <point x="406" y="299" type="qcurve"/>
      <point x="406" y="361"/>
      <point x="344" y="436"/>
      <point x="285" y="436" type="qcurve"/>
      <point x="238" y="436"/>
      <point x="165" y="395"/>
      <point x="113" y="328"/>
      <point x="86" y="240"/>
      <point x="86" y="193" type="qcurve"/>
      <point x="86" y="60"/>
    </contour>
  </outline>
</glyph>
<glyph name="Eogonek" format="1">
  <advance width="612"/>
  <unicode hex="0118"/>
  <outline>
    <contour>
      <point x="177" y="700" type="line"/>
      <point x="572" y="700" type="line"/>
      <point x="572" y="622" type="line"/>
      <point x="244" y="622" type="line"/>
      <point x="195" y="390" type="line"/>
      <point x="500" y="390" type="line"/>
      <point x="500" y="312" type="line"/>
      <point x="178" y="312" type="line"/>
      <point x="129" y="78" type="line"/>
      <point x="446" y="78" type="line"/>
      <point x="446" y="0" type="line"/>
      <point x="415" y="-68" type="line"/>
      <point x="412" y="-76"/>
      <point x="412" y="-81" type="qcurve"/>
      <point x="412" y="-98"/>
      <point x="431" y="-98" type="qcurve"/>
      <point x="473" y="-98" type="line"/>
      <point x="473" y="-164" type="line"/>
      <point x="403" y="-164" type="line"/>
      <point x="378" y="-164"/>
      <point x="341" y="-132"/>
      <point x="341" y="-103" type="qcurve"/>
      <point x="341" y="-85"/>
      <point x="349" y="-66" type="qcurve"/>
      <point x="377" y="0" type="line"/>
      <point x="28" y="0" type="line"/>
    </contour>
  </outline>
</glyph>
<glyph name="Hbar" format="1">
  <advance width="612"/>
  <unicode hex="0126"/>
  <outline>
    <contour>
      <point x="113" y="496" type="line"/>
      <point x="54" y="496" type="line"/>
      <point x="54" y="574" type="line"/>
      <point x="129" y="574" type="line"/>
      <point x="156" y="700" type="line"/>
      <point x="242" y="700" type="line"/>
      <point x="215" y="574" type="line"/>
      <point x="491" y="574" type="line"/>
      <point x="518" y="700" type="line"/>
      <point x="604" y="700" type="line"/>
      <point x="577" y="574" type="line"/>
      <point x="630" y="574" type="line"/>
      <point x="630" y="496" type="line"/>
      <point x="560" y="496" type="line"/>
      <point x="455" y="0" type="line"/>
      <point x="369" y="0" type="line"/>
      <point x="435" y="312" type="line"/>
      <point x="159" y="312" type="line"/>
      <point x="93" y="0" type="line"/>
      <point x="8" y="0" type="line"/>
    </contour>
    <contour>
      <point x="452" y="390" type="line"/>
      <point x="474" y="496" type="line"/>
      <point x="198" y="496" type="line"/>
      <point x="176" y="390" type="line"/>
    </contour>
  </outline>
</glyph>
<glyph name="hbar" format="1">
  <advance width="612"/>
  <unicode hex="0127"/>
  <outline>
    <contour>
      <point x="89" y="634" type="line"/>
      <point x="157" y="634" type="line"/>
      <point x="171" y="700" type="line"/>
      <point x="246" y="700" type="line"/>
      <point x="232" y="634" type="line"/>
      <point x="405" y="634" type="line"/>
      <point x="405" y="562" type="line"/>
      <point x="217" y="562" type="line"/>
      <point x="189" y="422" type="line"/>
      <point x="201" y="422" type="line"/>
      <point x="226" y="469"/>
      <point x="306" y="510"/>
      <point x="356" y="510" type="qcurve"/>
      <point x="422" y="510"/>
      <point x="509" y="427"/>
      <point x="509" y="352" type="qcurve"/>
      <point x="509" y="320"/>
      <point x="502" y="288" type="qcurve"/>
      <point x="458" y="79" type="line"/>
      <point x="455" y="64"/>
      <point x="471" y="64" type="qcurve"/>
      <point x="477" y="64"/>
      <point x="483" y="69" type="qcurve"/>
      <point x="522" y="97" type="line"/>
      <point x="564" y="38" type="line"/>
      <point x="518" y="5" type="line"/>
      <point x="491" y="-14"/>
      <point x="457" y="-14" type="qcurve"/>
      <point x="426" y="-14"/>
      <point x="379" y="22"/>
      <point x="379" y="60" type="qcurve"/>
      <point x="379" y="71"/>
      <point x="382" y="86" type="qcurve"/>
      <point x="428" y="294" type="line"/>
      <point x="431" y="308"/>
      <point x="434" y="329"/>
      <point x="434" y="340" type="qcurve"/>
      <point x="434" y="392"/>
      <point x="373" y="436"/>
      <point x="328" y="436" type="qcurve"/>
      <point x="260" y="436"/>
      <point x="171" y="339"/>
      <point x="154" y="258" type="qcurve"/>
      <point x="99" y="0" type="line"/>
      <point x="22" y="0" type="line"/>
      <point x="141" y="562" type="line"/>
      <point x="89" y="562" type="line"/>
    </contour>
  </outline>
</glyph>
<glyph name="Iogonek" format="1">
  <advance width="612"/>
  <unicode hex="012E"/>
  <outline>
    <contour>
      <point x="147" y="700" type="line"/>
      <point x="579" y="700" type="line"/>
      <point x="579" y="622" type="line"/>
      <point x="405" y="622" type="line"/>
      <point x="290" y="78" type="line"/>
      <point x="464" y="78" type="line"/>
      <point x="464" y="0" type="line"/>
      <point x="433" y="-68" type="line"/>
      <point x="430" y="-76"/>
      <point x="430" y="-81" type="qcurve"/>
      <point x="430" y="-98"/>
      <point x="449" y="-98" type="qcurve"/>
      <point x="491" y="-98" type="line"/>
      <point x="491" y="-164" type="line"/>
      <point x="421" y="-164" type="line"/>
      <point x="396" y="-164"/>
      <point x="359" y="-132"/>
      <point x="359" y="-103" type="qcurve"/>
      <point x="359" y="-85"/>
      <point x="367" y="-66" type="qcurve"/>
      <point x="395" y="0" type="line"/>
      <point x="32" y="0" type="line"/>
      <point x="32" y="78" type="line"/>
      <point x="206" y="78" type="line"/>
      <point x="321" y="622" type="line"/>
      <point x="147" y="622" type="line"/>
    </contour>
  </outline>
</glyph>
<glyph name="iogonek" format="1">
  <advance width="612"/>
  <unicode hex="012F"/>
  <outline>
    <contour>
      <point x="287" y="409" type="line"/>
      <point x="289" y="419"/>
      <point x="280" y="434"/>
      <point x="269" y="434" type="qcurve"/>
      <point x="261" y="434"/>
      <point x="254" y="430" type="qcurve"/>
      <point x="137" y="350" type="line"/>
      <point x="97" y="409" type="line"/>
      <point x="215" y="489" type="line"/>
      <point x="246" y="510"/>
      <point x="282" y="510" type="qcurve"/>
      <point x="316" y="510"/>
      <point x="366" y="470"/>
      <point x="366" y="428" type="qcurve"/>
      <point x="366" y="412"/>
      <point x="362" y="396" type="qcurve"/>
      <point x="288" y="87" type="line"/>
      <point x="285" y="75"/>
      <point x="296" y="61"/>
      <point x="305" y="61" type="qcurve"/>
      <point x="312" y="61"/>
      <point x="320" y="66" type="qcurve"/>
      <point x="435" y="144" type="line"/>
      <point x="475" y="85" type="line"/>
      <point x="251" y="-67" type="line"/>
      <point x="241" y="-74"/>
      <point x="241" y="-83" type="qcurve"/>
      <point x="241" y="-89"/>
      <point x="249" y="-98"/>
      <point x="257" y="-98" type="qcurve"/>
      <point x="344" y="-98" type="line"/>
      <point x="344" y="-164" type="line"/>
      <point x="237" y="-164" type="line"/>
      <point x="207" y="-164"/>
      <point x="171" y="-125"/>
      <point x="171" y="-99" type="qcurve"/>
      <point x="171" y="-80"/>
      <point x="191" y="-42"/>
      <point x="214" y="-25" type="qcurve"/>
      <point x="246" y="-1" type="line"/>
      <point x="229" y="8"/>
      <point x="209" y="43"/>
      <point x="209" y="68" type="qcurve"/>
      <point x="209" y="84"/>
      <point x="213" y="100" type="qcurve"/>
    </contour>
    <contour>
      <point x="303" y="644" type="qcurve"/>
      <point x="303" y="673"/>
      <point x="344" y="714"/>
      <point x="373" y="714" type="qcurve"/>
      <point x="402" y="714"/>
      <point x="443" y="673"/>
      <point x="443" y="644" type="qcurve"/>
      <point x="443" y="615"/>
      <point x="402" y="574"/>
      <point x="373" y="574" type="qcurve"/>
      <point x="344" y="574"/>
      <point x="303" y="615"/>
    </contour>
  </outline>
</glyph>
<glyph name="ij" format="1">
  <advance width="612"/>
  <unicode hex="0133"/>
  <outline>
    <contour>
      <point x="483" y="644" type="qcurve"/>
      <point x="483" y="673"/>
      <point x="524" y="714"/>
      <point x="553" y="714" type="qcurve"/>
      <point x="582" y="714"/>
      <point x="623" y="673"/>
      <point x="623" y="644" type="qcurve"/>
      <point x="623" y="615"/>
      <point x="582" y="574"/>
      <point x="553" y="574" type="qcurve"/>
      <point x="524" y="574"/>
      <point x="483" y="615"/>
    </contour>
    <contour>
      <point x="138" y="644" type="qcurve"/>
      <point x="138" y="673"/>
      <point x="179" y="714"/>
      <point x="208" y="714" type="qcurve"/>
      <point x="237" y="714"/>
      <point x="278" y="673"/>
      <point x="278" y="644" type="qcurve"/>
      <point x="278" y="615"/>
      <point x="237" y="574"/>
      <point x="208" y="574" type="qcurve"/>
      <point x="179" y="574"/>
      <point x="138" y="615"/>
    </contour>
    <contour>
      <point x="158" y="210" type="line"/>
      <point x="151" y="179"/>
      <point x="151" y="152" type="qcurve"/>
      <point x="151" y="60"/>
      <point x="250" y="60" type="qcurve"/>
      <point x="319" y="60"/>
      <point x="417" y="157"/>
      <point x="434" y="238" type="qcurve"/>
      <point x="488" y="496" type="line"/>
      <point x="566" y="496" type="line"/>
      <point x="435" y="-122" type="line"/>
      <point x="428" y="-156"/>
      <point x="376" y="-200"/>
      <point x="342" y="-200" type="qcurve"/>
      <point x="134" y="-200" type="line"/>
      <point x="134" y="-128" type="line"/>
      <point x="329" y="-128" type="line"/>
      <point x="356" y="-128"/>
      <point x="362" y="-98" type="qcurve"/>
      <point x="400" y="78" type="line"/>
      <point x="388" y="78" type="line"/>
      <point x="358" y="33"/>
      <point x="275" y="-14"/>
      <point x="218" y="-14" type="qcurve"/>
      <point x="151" y="-14"/>
      <point x="71" y="66"/>
      <point x="71" y="139" type="qcurve"/>
      <point x="71" y="166"/>
      <point x="78" y="200" type="qcurve"/>
      <point x="123" y="414" type="line"/>
      <point x="125" y="424"/>
      <point x="117" y="435"/>
      <point x="109" y="435" type="qcurve"/>
      <point x="102" y="435"/>
      <point x="96" y="430" type="qcurve"/>
      <point x="45" y="395" type="line"/>
      <point x="5" y="454" type="line"/>
      <point x="57" y="489" type="line"/>
      <point x="88" y="510"/>
      <point x="120" y="510" type="qcurve"/>
      <point x="153" y="510"/>
      <point x="201" y="465"/>
      <point x="201" y="427" type="qcurve"/>
      <point x="201" y="416"/>
      <point x="198" y="401" type="qcurve"/>
    </contour>
  </outline>
</glyph>
<glyph name="lslash" format="1">
  <advance width="612"/>
  <unicode hex="0142"/>
  <outline>
    <contour>
      <point x="226" y="284" type="line"/>
      <point x="160" y="266" type="line"/>
      <point x="140" y="340" type="line"/>
      <point x="246" y="368" type="line"/>
      <point x="304" y="614" type="line"/>
      <point x="307" y="626"/>
      <point x="296" y="639"/>
      <point x="286" y="639" type="qcurve"/>
      <point x="279" y="639"/>
      <point x="271" y="634" type="qcurve"/>
      <point x="154" y="554" type="line"/>
      <point x="114" y="613" type="line"/>
      <point x="232" y="693" type="line"/>
      <point x="248" y="704"/>
      <point x="282" y="714"/>
      <point x="299" y="714" type="qcurve"/>
      <point x="332" y="714"/>
      <point x="383" y="674"/>
      <point x="383" y="632" type="qcurve"/>
      <point x="383" y="615"/>
      <point x="379" y="600" type="qcurve"/>
      <point x="329" y="390" type="line"/>
      <point x="410" y="411" type="line"/>
      <point x="430" y="339" type="line"/>
      <point x="310" y="306" type="line"/>
      <point x="258" y="87" type="line"/>
      <point x="255" y="75"/>
      <point x="266" y="61"/>
      <point x="275" y="61" type="qcurve"/>
      <point x="282" y="61"/>
      <point x="290" y="66" type="qcurve"/>
      <point x="405" y="144" type="line"/>
      <point x="445" y="85" type="line"/>
      <point x="330" y="7" type="line"/>
      <point x="298" y="-14"/>
      <point x="263" y="-14" type="qcurve"/>
      <point x="230" y="-14"/>
      <point x="179" y="26"/>
      <point x="179" y="68" type="qcurve"/>
      <point x="179" y="85"/>
      <point x="183" y="100" type="qcurve"/>
    </contour>
  </outline>
</glyph>
<glyph name="eng" format="1">
  <advance width="612"/>
  <unicode hex="014B"/>
  <outline>
    <contour>
      <point x="413" y="298" type="line"/>
      <point x="416" y="312"/>
      <point x="418" y="331"/>
      <point x="418" y="341" type="qcurve"/>
      <point x="418" y="389"/>
      <point x="361" y="436"/>
      <point x="310" y="436" type="qcurve"/>
      <point x="242" y="436"/>
      <point x="156" y="339"/>
      <point x="140" y="264" type="qcurve"/>
      <point x="84" y="0" type="line"/>
      <point x="6" y="0" type="line"/>
      <point x="112" y="496" type="line"/>
      <point x="190" y="496" type="line"/>
      <point x="175" y="424" type="line"/>
      <point x="187" y="424" type="line"/>
      <point x="212" y="469"/>
      <point x="293" y="510"/>
      <point x="338" y="510" type="qcurve"/>
      <point x="370" y="510"/>
      <point x="428" y="489"/>
      <point x="471" y="449"/>
      <point x="496" y="391"/>
      <point x="496" y="353" type="qcurve"/>
      <point x="496" y="328"/>
      <point x="490" y="300" type="qcurve"/>
      <point x="401" y="-122" type="line"/>
      <point x="393" y="-156"/>
      <point x="341" y="-200"/>
      <point x="307" y="-200" type="qcurve"/>
      <point x="176" y="-200" type="line"/>
      <point x="176" y="-128" type="line"/>
      <point x="294" y="-128" type="line"/>
      <point x="322" y="-128"/>
      <point x="328" y="-98" type="qcurve"/>
    </contour>
  </outline>
</glyph>
<glyph name="uni0162" format="1">
  <advance width="612"/>
  <unicode hex="0162"/>
  <outline>
    <contour>
      <point x="103" y="700" type="line"/>
      <point x="606" y="700" type="line"/>
      <point x="606" y="622" type="line"/>
      <point x="403" y="622" type="line"/>
      <point x="271" y="0" type="line"/>
      <point x="242" y="0" type="line"/>
      <point x="226" y="-68" type="line"/>
      <point x="232" y="-68" type="line"/>
      <point x="249" y="-36"/>
      <point x="288" y="-36" type="qcurve"/>
      <point x="321" y="-36"/>
      <point x="356" y="-80"/>
      <point x="356" y="-110" type="qcurve"/>
      <point x="356" y="-155"/>
      <point x="305" y="-212"/>
      <point x="252" y="-212" type="qcurve"/>
      <point x="211" y="-212"/>
      <point x="163" y="-173"/>
      <point x="158" y="-142" type="qcurve"/>
      <point x="208" y="-125" type="line"/>
      <point x="210" y="-141"/>
      <point x="231" y="-164"/>
      <point x="254" y="-164" type="qcurve"/>
      <point x="277" y="-164"/>
      <point x="302" y="-139"/>
      <point x="302" y="-118" type="qcurve"/>
      <point x="302" y="-100"/>
      <point x="283" y="-84"/>
      <point x="270" y="-84" type="qcurve"/>
      <point x="259" y="-84"/>
      <point x="247" y="-92"/>
      <point x="243" y="-98" type="qcurve"/>
      <point x="168" y="-98" type="line"/>
      <point x="168" y="-86" type="line"/>
      <point x="319" y="622" type="line"/>
      <point x="103" y="622" type="line"/>
    </contour>
  </outline>
</glyph>
<glyph name="uni0163" format="1">
  <advance width="612"/>
  <unicode hex="0163"/>
  <outline>
    <contour>
      <point x="85" y="496" type="line"/>
      <point x="257" y="496" type="line"/>
      <point x="303" y="714" type="line"/>
      <point x="381" y="714" type="line"/>
      <point x="335" y="496" type="line"/>
      <point x="511" y="496" type="line"/>
      <point x="511" y="424" type="line"/>
      <point x="319" y="424" type="line"/>
      <point x="248" y="87" type="line"/>
      <point x="245" y="75"/>
      <point x="256" y="61"/>
      <point x="265" y="61" type="qcurve"/>
      <point x="272" y="61"/>
      <point x="280" y="66" type="qcurve"/>
      <point x="413" y="156" type="line"/>
      <point x="453" y="97" type="line"/>
      <point x="320" y="7" type="line"/>
      <point x="288" y="-14"/>
      <point x="254" y="-14" type="qcurve"/>
      <point x="250" y="-14" type="line"/>
      <point x="231" y="-68" type="line"/>
      <point x="237" y="-68" type="line"/>
      <point x="254" y="-36"/>
      <point x="291" y="-36" type="qcurve"/>
      <point x="324" y="-36"/>
      <point x="359" y="-80"/>
      <point x="359" y="-110" type="qcurve"/>
      <point x="359" y="-155"/>
      <point x="308" y="-212"/>
      <point x="255" y="-212" type="qcurve"/>
      <point x="214" y="-212"/>
      <point x="166" y="-173"/>
      <point x="161" y="-142" type="qcurve"/>
      <point x="211" y="-125" type="line"/>
      <point x="213" y="-141"/>
      <point x="234" y="-164"/>
      <point x="257" y="-164" type="qcurve"/>
      <point x="280" y="-164"/>
      <point x="305" y="-139"/>
      <point x="305" y="-118" type="qcurve"/>
      <point x="305" y="-100"/>
      <point x="286" y="-84"/>
      <point x="273" y="-84" type="qcurve"/>
      <point x="262" y="-84"/>
      <point x="250" y="-92"/>
      <point x="246" y="-98" type="qcurve"/>
      <point x="171" y="-98" type="line"/>
      <point x="171" y="-86" type="line"/>
      <point x="201" y="2" type="line"/>
      <point x="187" y="13"/>
      <point x="169" y="47"/>
      <point x="169" y="70" type="qcurve"/>
      <point x="169" y="77"/>
      <point x="171" y="92"/>
      <point x="173" y="100" type="qcurve"/>
      <point x="241" y="424" type="line"/>
      <point x="85" y="424" type="line"/>
    </contour>
  </outline>
</glyph>
<glyph name="tcaron" format="1">
  <advance width="612"/>
  <unicode hex="0165"/>
  <outline>
    <contour>
      <point x="93" y="496" type="line"/>
      <point x="257" y="496" type="line"/>
      <point x="303" y="714" type="line"/>
      <point x="381" y="714" type="line"/>
      <point x="335" y="496" type="line"/>
      <point x="399" y="496" type="line"/>
      <point x="399" y="424" type="line"/>
      <point x="319" y="424" type="line"/>
      <point x="248" y="87" type="line"/>
      <point x="245" y="75"/>
      <point x="256" y="61"/>
      <point x="265" y="61" type="qcurve"/>
      <point x="272" y="61"/>
      <point x="280" y="66" type="qcurve"/>
      <point x="413" y="156" type="line"/>
      <point x="453" y="97" type="line"/>
      <point x="320" y="7" type="line"/>
      <point x="288" y="-14"/>
      <point x="254" y="-14" type="qcurve"/>
      <point x="219" y="-14"/>
      <point x="169" y="28"/>
      <point x="169" y="70" type="qcurve"/>
      <point x="169" y="77"/>
      <point x="171" y="92"/>
      <point x="173" y="100" type="qcurve"/>
      <point x="241" y="424" type="line"/>
      <point x="93" y="424" type="line"/>
    </contour>
    <contour>
      <point x="451" y="630" type="qcurve"/>
      <point x="451" y="659"/>
      <point x="492" y="700"/>
      <point x="521" y="700" type="qcurve"/>
      <point x="550" y="700"/>
      <point x="591" y="659"/>
      <point x="591" y="630" type="qcurve"/>
      <point x="591" y="623"/>
      <point x="590" y="618" type="qcurve"/>
      <point x="566" y="502" type="line"/>
      <point x="558" y="464"/>
      <point x="512" y="424"/>
      <point x="473" y="424" type="qcurve"/>
      <point x="421" y="424" type="line"/>
      <point x="421" y="478" type="line"/>
      <point x="480" y="478" type="line"/>
      <point x="508" y="478"/>
      <point x="514" y="508" type="qcurve"/>
      <point x="525" y="560" type="line"/>
      <point x="521" y="560" type="line"/>
      <point x="492" y="560"/>
      <point x="451" y="601"/>
    </contour>
  </outline>
</glyph>
<glyph name="Tbar" format="1">
  <advance width="612"/>
  <unicode hex="0166"/>
  <outline>
    <contour>
      <point x="116" y="700" type="line"/>
      <point x="607" y="700" type="line"/>
      <point x="607" y="622" type="line"/>
      <point x="404" y="622" type="line"/>
      <point x="363" y="428" type="line"/>
      <point x="503" y="428" type="line"/>
      <point x="503" y="350" type="line"/>
      <point x="346" y="350" type="line"/>
      <point x="272" y="0" type="line"/>
      <point x="188" y="0" type="line"/>
      <point x="262" y="350" type="line"/>
      <point x="123" y="350" type="line"/>
      <point x="123" y="428" type="line"/>
      <point x="279" y="428" type="line"/>
      <point x="320" y="622" type="line"/>
      <point x="116" y="622" type="line"/>
    </contour>
  </outline>
</glyph>
<glyph name="Uogonek" format="1">
  <advance width="612"/>
  <unicode hex="0172"/>
  <outline>
    <contour>
      <point x="226" y="700" type="line"/>
      <point x="128" y="236" type="line"/>
      <point x="125" y="220"/>
      <point x="121" y="191"/>
      <point x="121" y="178" type="qcurve"/>
      <point x="121" y="62"/>
      <point x="244" y="62" type="qcurve"/>
      <point x="319" y="62"/>
      <point x="416" y="150"/>
      <point x="434" y="236" type="qcurve"/>
      <point x="532" y="700" type="line"/>
      <point x="616" y="700" type="line"/>
      <point x="518" y="236" type="line"/>
      <point x="488" y="95"/>
      <point x="405" y="34" type="qcurve"/>
      <point x="267" y="-67" type="line"/>
      <point x="263" y="-70"/>
      <point x="257" y="-78"/>
      <point x="257" y="-84" type="qcurve"/>
      <point x="257" y="-98"/>
      <point x="273" y="-98" type="qcurve"/>
      <point x="360" y="-98" type="line"/>
      <point x="360" y="-164" type="line"/>
      <point x="256" y="-164" type="line"/>
      <point x="223" y="-164"/>
      <point x="182" y="-121"/>
      <point x="182" y="-92" type="qcurve"/>
      <point x="182" y="-74"/>
      <point x="202" y="-36"/>
      <point x="223" y="-21" type="qcurve"/>
      <point x="233" y="-14" type="line"/>
      <point x="189" y="-14"/>
      <point x="117" y="10"/>
      <point x="66" y="57"/>
      <point x="37" y="125"/>
      <point x="37" y="170" type="qcurve"/>
      <point x="37" y="187"/>
      <point x="40" y="222"/>
      <point x="45" y="242" type="qcurve"/>
      <point x="142" y="700" type="line"/>
    </contour>
  </outline>
</glyph>
<glyph name="uogonek" format="1">
  <advance width="612"/>
  <unicode hex="0173"/>
  <outline>
    <contour>
      <point x="365" y="84" type="line"/>
      <point x="353" y="84" type="line"/>
      <point x="326" y="36"/>
      <point x="242" y="-14"/>
      <point x="182" y="-14" type="qcurve"/>
      <point x="116" y="-14"/>
      <point x="34" y="61"/>
      <point x="34" y="135" type="qcurve"/>
      <point x="34" y="150"/>
      <point x="37" y="181"/>
      <point x="42" y="200" type="qcurve"/>
      <point x="108" y="496" type="line"/>
      <point x="186" y="496" type="line"/>
      <point x="122" y="210" type="line"/>
      <point x="115" y="179"/>
      <point x="115" y="152" type="qcurve"/>
      <point x="115" y="60"/>
      <point x="214" y="60" type="qcurve"/>
      <point x="283" y="60"/>
      <point x="380" y="157"/>
      <point x="398" y="238" type="qcurve"/>
      <point x="456" y="496" type="line"/>
      <point x="534" y="496" type="line"/>
      <point x="443" y="84" type="line"/>
      <point x="441" y="76"/>
      <point x="449" y="66"/>
      <point x="456" y="66" type="qcurve"/>
      <point x="463" y="66"/>
      <point x="470" y="71" type="qcurve"/>
      <point x="513" y="102" type="line"/>
      <point x="555" y="44" type="line"/>
      <point x="408" y="-66" type="line"/>
      <point x="400" y="-72"/>
      <point x="396" y="-80"/>
      <point x="396" y="-84" type="qcurve"/>
      <point x="396" y="-98"/>
      <point x="411" y="-98" type="qcurve"/>
      <point x="498" y="-98" type="line"/>
      <point x="498" y="-164" type="line"/>
      <point x="394" y="-164" type="line"/>
      <point x="359" y="-164"/>
      <point x="320" y="-121"/>
      <point x="320" y="-92" type="qcurve"/>
      <point x="320" y="-74"/>
      <point x="340" y="-36"/>
      <point x="361" y="-21" type="qcurve"/>
      <point x="390" y="0" type="line"/>
      <point x="378" y="8"/>
      <point x="362" y="37"/>
      <point x="362" y="58" type="qcurve"/>
      <point x="362" y="63"/>
      <point x="363" y="73"/>
      <point x="364" y="78" type="qcurve"/>
    </contour>
  </outline>
</glyph>
<glyph name="longs" format="1">
  <advance width="612"/>
  <unicode hex="017F"/>
  <outline>
    <contour>
      <point x="220" y="-126" type="line"/>
      <point x="212" y="-164"/>
      <point x="165" y="-200"/>
      <point x="137" y="-200" type="qcurve"/>
      <point x="105" y="-200"/>
      <point x="66" y="-174"/>
      <point x="52" y="-152" type="qcurve"/>
      <point x="8" y="-81" type="line"/>
      <point x="69" y="-42" type="line"/>
      <point x="111" y="-109" type="line"/>
      <point x="118" y="-121"/>
      <point x="129" y="-121" type="qcurve"/>
      <point x="137" y="-121"/>
      <point x="144" y="-112"/>
      <point x="146" y="-106" type="qcurve"/>
      <point x="259" y="424" type="line"/>
      <point x="106" y="424" type="line"/>
      <point x="106" y="496" type="line"/>
      <point x="275" y="496" type="line"/>
      <point x="301" y="622" type="line"/>
      <point x="309" y="656"/>
      <point x="361" y="700"/>
      <point x="395" y="700" type="qcurve"/>
      <point x="574" y="700" type="line"/>
      <point x="574" y="628" type="line"/>
      <point x="408" y="628" type="line"/>
      <point x="380" y="628"/>
      <point x="374" y="598" type="qcurve"/>
    </contour>
  </outline>
</glyph>
<glyph name="uni0180" format="1">
  <advance width="612"/>
  <unicode hex="0180"/>
  <outline>
    <contour>
      <point x="264" y="714" type="line"/>
      <point x="247" y="634" type="line"/>
      <point x="418" y="634" type="line"/>
      <point x="418" y="562" type="line"/>
      <point x="231" y="562" type="line"/>
      <point x="201" y="418" type="line"/>
      <point x="213" y="418" type="line"/>
      <point x="241" y="459"/>
      <point x="329" y="510"/>
      <point x="388" y="510" type="qcurve"/>
      <point x="427" y="510"/>
      <point x="494" y="483"/>
      <point x="542" y="432"/>
      <point x="570" y="361"/>
      <point x="570" y="318" type="qcurve"/>
      <point x="570" y="241"/>
      <point x="526" y="119"/>
      <point x="450" y="32"/>
      <point x="347" y="-14"/>
      <point x="288" y="-14" type="qcurve"/>
      <point x="241" y="-14"/>
      <point x="157" y="31"/>
      <point x="141" y="76" type="qcurve"/>
      <point x="129" y="76" type="line"/>
      <point x="113" y="0" type="line"/>
      <point x="36" y="0" type="line"/>
      <point x="155" y="562" type="line"/>
      <point x="102" y="562" type="line"/>
      <point x="102" y="634" type="line"/>
      <point x="170" y="634" type="line"/>
      <point x="187" y="714" type="line"/>
    </contour>
    <contour>
      <point x="286" y="60" type="qcurve"/>
      <point x="327" y="60"/>
      <point x="401" y="95"/>
      <point x="456" y="159"/>
      <point x="488" y="249"/>
      <point x="488" y="303" type="qcurve"/>
      <point x="488" y="364"/>
      <point x="423" y="436"/>
      <point x="363" y="436" type="qcurve"/>
      <point x="319" y="436"/>
      <point x="245" y="398"/>
      <point x="191" y="332"/>
      <point x="161" y="246"/>
      <point x="161" y="198" type="qcurve"/>
      <point x="161" y="132"/>
      <point x="227" y="60"/>
    </contour>
  </outline>
</glyph>
<glyph name="uni018F" format="1">
  <advance width="612"/>
  <unicode hex="018F"/>
  <outline>
    <contour>
      <point x="59" y="362" type="line"/>
      <point x="467" y="362" type="line"/>
      <point x="481" y="429" type="line"/>
      <point x="486" y="450"/>
      <point x="489" y="480"/>
      <point x="489" y="496" type="qcurve"/>
      <point x="489" y="559"/>
      <point x="424" y="638"/>
      <point x="354" y="638" type="qcurve"/>
      <point x="315" y="638"/>
      <point x="252" y="611"/>
      <point x="204" y="565"/>
      <point x="172" y="502"/>
      <point x="164" y="466" type="qcurve"/>
      <point x="160" y="448" type="line"/>
      <point x="77" y="448" type="line"/>
      <point x="82" y="472" type="line"/>
      <point x="92" y="523"/>
      <point x="138" y="611"/>
      <point x="207" y="677"/>
      <point x="302" y="714"/>
      <point x="362" y="714" type="qcurve"/>
      <point x="412" y="714"/>
      <point x="490" y="683"/>
      <point x="544" y="627"/>
      <point x="572" y="548"/>
      <point x="572" y="499" type="qcurve"/>
      <point x="572" y="459"/>
      <point x="563" y="416" type="qcurve"/>
      <point x="532" y="272" type="line"/>
      <point x="500" y="126"/>
      <point x="359" y="-14"/>
      <point x="239" y="-14" type="qcurve"/>
      <point x="187" y="-14"/>
      <point x="108" y="16"/>
      <point x="55" y="70"/>
      <point x="28" y="143"/>
      <point x="28" y="186" type="qcurve"/>
      <point x="28" y="201"/>
      <point x="31" y="233"/>
      <point x="35" y="250" type="qcurve"/>
    </contour>
    <contour>
      <point x="252" y="62" type="qcurve"/>
      <point x="330" y="62"/>
      <point x="427" y="175"/>
      <point x="449" y="278" type="qcurve"/>
      <point x="450" y="284" type="line"/>
      <point x="126" y="284" type="line"/>
      <point x="117" y="240" type="line"/>
      <point x="114" y="225"/>
      <point x="112" y="202"/>
      <point x="112" y="190" type="qcurve"/>
      <point x="112" y="163"/>
      <point x="127" y="117"/>
      <point x="160" y="82"/>
      <point x="213" y="62"/>
    </contour>
  </outline>
</glyph>
<glyph name="uni01A0" format="1">
  <advance width="612"/>
  <unicode hex="01A0"/>
  <outline>
    <contour>
      <point x="514" y="630" type="qcurve"/>
      <point x="514" y="659"/>
      <point x="555" y="700"/>
      <point x="584" y="700" type="qcurve"/>
      <point x="613" y="700"/>
      <point x="654" y="659"/>
      <point x="654" y="630" type="qcurve"/>
      <point x="654" y="623"/>
      <point x="653" y="618" type="qcurve"/>
      <point x="635" y="532" type="line"/>
      <point x="627" y="494"/>
      <point x="581" y="454"/>
      <point x="542" y="454" type="qcurve"/>
      <point x="478" y="454" type="line"/>
      <point x="427" y="218" type="line"/>
      <point x="401" y="96"/>
      <point x="276" y="-14"/>
      <point x="184" y="-14" type="qcurve"/>
      <point x="109" y="-14"/>
      <point x="14" y="75"/>
      <point x="14" y="161" type="qcurve"/>
      <point x="14" y="178"/>
      <point x="18" y="212"/>
      <point x="22" y="232" type="qcurve"/>
      <point x="74" y="476" type="line"/>
      <point x="98" y="589"/>
      <point x="219" y="714"/>
      <point x="317" y="714" type="qcurve"/>
      <point x="357" y="714"/>
      <point x="422" y="689"/>
      <point x="467" y="644"/>
      <point x="491" y="581"/>
      <point x="491" y="544" type="qcurve"/>
      <point x="491" y="526"/>
      <point x="488" y="508" type="qcurve"/>
      <point x="549" y="508" type="line"/>
      <point x="577" y="508"/>
      <point x="583" y="538" type="qcurve"/>
      <point x="588" y="560" type="line"/>
      <point x="584" y="560" type="line"/>
      <point x="555" y="560"/>
      <point x="514" y="601"/>
    </contour>
    <contour>
      <point x="190" y="62" type="qcurve"/>
      <point x="252" y="62"/>
      <point x="327" y="141"/>
      <point x="345" y="224" type="qcurve"/>
      <point x="398" y="476" type="line"/>
      <point x="406" y="514"/>
      <point x="406" y="540" type="qcurve"/>
      <point x="406" y="588"/>
      <point x="360" y="638"/>
      <point x="309" y="638" type="qcurve"/>
      <point x="249" y="638"/>
      <point x="175" y="553"/>
      <point x="158" y="476" type="qcurve"/>
      <point x="105" y="224" type="line"/>
      <point x="97" y="186"/>
      <point x="97" y="160" type="qcurve"/>
      <point x="97" y="62"/>
    </contour>
  </outline>
</glyph>
<glyph name="uni01A1" format="1">
  <advance width="612"/>
  <unicode hex="01A1"/>
  <outline>
    <contour>
      <point x="502" y="426" type="qcurve"/>
      <point x="502" y="455"/>
      <point x="543" y="496"/>
      <point x="572" y="496" type="qcurve"/>
      <point x="601" y="496"/>
      <point x="642" y="455"/>
      <point x="642" y="426" type="qcurve"/>
      <point x="642" y="419"/>
      <point x="641" y="414" type="qcurve"/>
      <point x="623" y="328" type="line"/>
      <point x="615" y="290"/>
      <point x="569" y="250"/>
      <point x="530" y="250" type="qcurve"/>
      <point x="466" y="250" type="line"/>
      <point x="464" y="240" type="line"/>
      <point x="438" y="111"/>
      <point x="303" y="-14"/>
      <point x="206" y="-14" type="qcurve"/>
      <point x="168" y="-14"/>
      <point x="103" y="13"/>
      <point x="56" y="63"/>
      <point x="30" y="131"/>
      <point x="30" y="173" type="qcurve"/>
      <point x="30" y="190"/>
      <point x="34" y="221"/>
      <point x="38" y="242" type="qcurve"/>
      <point x="41" y="254" type="line"/>
      <point x="67" y="375"/>
      <point x="195" y="510"/>
      <point x="300" y="510" type="qcurve"/>
      <point x="337" y="510"/>
      <point x="401" y="486"/>
      <point x="448" y="439"/>
      <point x="475" y="372"/>
      <point x="475" y="329" type="qcurve"/>
      <point x="475" y="323"/>
      <point x="475" y="313"/>
      <point x="474" y="304" type="qcurve"/>
      <point x="537" y="304" type="line"/>
      <point x="565" y="304"/>
      <point x="571" y="334" type="qcurve"/>
      <point x="576" y="356" type="line"/>
      <point x="572" y="356" type="line"/>
      <point x="543" y="356"/>
      <point x="502" y="397"/>
    </contour>
    <contour>
      <point x="213" y="60" type="qcurve"/>
      <point x="280" y="60"/>
      <point x="361" y="149"/>
      <point x="384" y="242" type="qcurve"/>
      <point x="387" y="254" type="line"/>
      <point x="394" y="286"/>
      <point x="394" y="318" type="qcurve"/>
      <point x="394" y="372"/>
      <point x="344" y="436"/>
      <point x="292" y="436" type="qcurve"/>
      <point x="226" y="436"/>
      <point x="138" y="335"/>
      <point x="121" y="254" type="qcurve"/>
      <point x="118" y="242" type="line"/>
      <point x="114" y="225"/>
      <point x="111" y="192"/>
      <point x="111" y="178" type="qcurve"/>
      <point x="111" y="122"/>
      <point x="162" y="60"/>
    </contour>
  </outline>
</glyph>
<glyph name="uni01B0" format="1">
  <advance width="612"/>
  <unicode hex="01B0"/>
  <outline>
    <contour>
      <point x="503" y="426" type="qcurve"/>
      <point x="503" y="455"/>
      <point x="544" y="496"/>
      <point x="573" y="496" type="qcurve"/>
      <point x="602" y="496"/>
      <point x="643" y="455"/>
      <point x="643" y="426" type="qcurve"/>
      <point x="643" y="419"/>
      <point x="642" y="414" type="qcurve"/>
      <point x="624" y="328" type="line"/>
      <point x="616" y="290"/>
      <point x="570" y="250"/>
      <point x="531" y="250" type="qcurve"/>
      <point x="431" y="250" type="line"/>
      <point x="378" y="0" type="line"/>
      <point x="300" y="0" type="line"/>
      <point x="315" y="68" type="line"/>
      <point x="303" y="68" type="line"/>
      <point x="279" y="28"/>
      <point x="212" y="-14"/>
      <point x="164" y="-14" type="qcurve"/>
      <point x="102" y="-14"/>
      <point x="22" y="55"/>
      <point x="22" y="126" type="qcurve"/>
      <point x="22" y="140"/>
      <point x="25" y="170"/>
      <point x="29" y="187" type="qcurve"/>
      <point x="94" y="496" type="line"/>
      <point x="172" y="496" type="line"/>
      <point x="106" y="184" type="line"/>
      <point x="101" y="161"/>
      <point x="101" y="144" type="qcurve"/>
      <point x="101" y="103"/>
      <point x="145" y="60"/>
      <point x="187" y="60" type="qcurve"/>
      <point x="252" y="60"/>
      <point x="330" y="145"/>
      <point x="344" y="208" type="qcurve"/>
      <point x="406" y="496" type="line"/>
      <point x="484" y="496" type="line"/>
      <point x="443" y="304" type="line"/>
      <point x="538" y="304" type="line"/>
      <point x="566" y="304"/>
      <point x="572" y="334" type="qcurve"/>
      <point x="577" y="356" type="line"/>
      <point x="573" y="356" type="line"/>
      <point x="544" y="356"/>
      <point x="503" y="397"/>
    </contour>
  </outline>
</glyph>
<glyph name="uni0258" format="1">
  <advance width="612"/>
  <unicode hex="0258"/>
  <outline>
    <contour>
      <point x="42" y="224" type="line"/>
      <point x="54" y="279" type="line"/>
      <point x="63" y="320"/>
      <point x="105" y="403"/>
      <point x="172" y="469"/>
      <point x="266" y="510"/>
      <point x="328" y="510" type="qcurve"/>
      <point x="425" y="510"/>
      <point x="535" y="395"/>
      <point x="535" y="289" type="qcurve"/>
      <point x="535" y="231"/>
      <point x="492" y="122"/>
      <point x="414" y="37"/>
      <point x="304" y="-14"/>
      <point x="237" y="-14" type="qcurve"/>
      <point x="146" y="-14"/>
      <point x="43" y="65"/>
      <point x="31" y="142" type="qcurve"/>
      <point x="109" y="162" type="line"/>
      <point x="112" y="140"/>
      <point x="128" y="102"/>
      <point x="159" y="75"/>
      <point x="207" y="60"/>
      <point x="242" y="60" type="qcurve"/>
      <point x="319" y="60"/>
      <point x="424" y="150"/>
      <point x="442" y="224" type="qcurve"/>
    </contour>
    <contour>
      <point x="317" y="436" type="qcurve"/>
      <point x="255" y="436"/>
      <point x="156" y="361"/>
      <point x="139" y="296" type="qcurve"/>
      <point x="456" y="296" type="line"/>
      <point x="457" y="303"/>
      <point x="457" y="308"/>
      <point x="457" y="309" type="qcurve"/>
      <point x="457" y="336"/>
      <point x="437" y="383"/>
      <point x="400" y="417"/>
      <point x="348" y="436"/>
    </contour>
  </outline>
</glyph>
<glyph name="breve" format="1">
  <advance width="612"/>
  <unicode hex="02D8"/>
  <outline>
    <contour>
      <point x="480" y="688" type="line"/>
      <point x="477" y="674" type="line"/>
      <point x="466" y="623"/>
      <point x="405" y="570"/>
      <point x="351" y="570" type="qcurve"/>
      <point x="301" y="570"/>
      <point x="250" y="630"/>
      <point x="259" y="674" type="qcurve"/>
      <point x="262" y="688" type="line"/>
      <point x="330" y="688" type="line"/>
      <point x="327" y="677" type="line"/>
      <point x="322" y="658"/>
      <point x="341" y="635"/>
      <point x="361" y="635" type="qcurve"/>
      <point x="383" y="635"/>
      <point x="403" y="660"/>
      <point x="407" y="676" type="qcurve"/>
      <point x="410" y="688" type="line"/>
    </contour>
  </outline>
</glyph>
<glyph name="dotaccent" format="1">
  <advance width="612"/>
  <unicode hex="02D9"/>
  <outline>
    <contour>
      <point x="288" y="644" type="qcurve"/>
      <point x="288" y="673"/>
      <point x="329" y="714"/>
      <point x="358" y="714" type="qcurve"/>
      <point x="387" y="714"/>
      <point x="428" y="673"/>
      <point x="428" y="644" type="qcurve"/>
      <point x="428" y="615"/>
      <point x="387" y="574"/>
      <point x="358" y="574" type="qcurve"/>
      <point x="329" y="574"/>
      <point x="288" y="615"/>
    </contour>
  </outline>
</glyph>
<glyph name="ogonek" format="1">
  <advance width="612"/>
  <unicode hex="02DB"/>
  <outline>
    <contour>
      <point x="369" y="30" type="line"/>
      <point x="325" y="-68" type="line"/>
      <point x="322" y="-76"/>
      <point x="322" y="-81" type="qcurve"/>
      <point x="322" y="-98"/>
      <point x="341" y="-98" type="qcurve"/>
      <point x="383" y="-98" type="line"/>
      <point x="383" y="-164" type="line"/>
      <point x="313" y="-164" type="line"/>
      <point x="288" y="-164"/>
      <point x="251" y="-132"/>
      <point x="251" y="-103" type="qcurve"/>
      <point x="251" y="-85"/>
      <point x="259" y="-66" type="qcurve"/>
      <point x="300" y="30" type="line"/>
    </contour>
  </outline>
</glyph>
<glyph name="tilde" format="1">
  <advance width="612"/>
  <unicode hex="02DC"/>
  <outline>
    <contour>
      <point x="387" y="639" type="qcurve"/>
      <point x="392" y="629"/>
      <point x="402" y="619"/>
      <point x="411" y="619" type="qcurve"/>
      <point x="421" y="619"/>
      <point x="430" y="629" type="qcurve"/>
      <point x="478" y="684" type="line"/>
      <point x="527" y="642" type="line"/>
      <point x="486" y="593" type="line"/>
      <point x="472" y="576"/>
      <point x="434" y="551"/>
      <point x="408" y="551" type="qcurve"/>
      <point x="377" y="551"/>
      <point x="344" y="579"/>
      <point x="327" y="610" type="qcurve"/>
      <point x="320" y="622"/>
      <point x="311" y="632"/>
      <point x="303" y="632" type="qcurve"/>
      <point x="292" y="632"/>
      <point x="281" y="620" type="qcurve"/>
      <point x="235" y="567" type="line"/>
      <point x="186" y="609" type="line"/>
      <point x="227" y="658" type="line"/>
      <point x="241" y="675"/>
      <point x="279" y="700"/>
      <point x="306" y="700" type="qcurve"/>
      <point x="335" y="700"/>
      <point x="369" y="671"/>
    </contour>
  </outline>
</glyph>
<glyph name="uni0309" format="1">
  <advance width="612"/>
  <unicode hex="0309"/>
  <outline>
    <contour>
      <point x="208" y="546" type="line"/>
      <point x="208" y="638" type="line"/>
      <point x="213" y="644" type="line"/>
      <point x="285" y="644" type="line"/>
      <point x="292" y="630"/>
      <point x="311" y="630" type="qcurve"/>
      <point x="329" y="630"/>
      <point x="351" y="655"/>
      <point x="351" y="672" type="qcurve"/>
      <point x="351" y="689"/>
      <point x="332" y="710"/>
      <point x="315" y="710" type="qcurve"/>
      <point x="293" y="710"/>
      <point x="269" y="685"/>
      <point x="262" y="670" type="qcurve"/>
      <point x="218" y="688" type="line"/>
      <point x="231" y="718"/>
      <point x="281" y="758"/>
      <point x="320" y="758" type="qcurve"/>
      <point x="358" y="758"/>
      <point x="406" y="710"/>
      <point x="406" y="674" type="qcurve"/>
      <point x="406" y="655"/>
      <point x="392" y="622"/>
      <point x="367" y="597"/>
      <point x="334" y="582"/>
      <point x="315" y="582" type="qcurve"/>
      <point x="276" y="582"/>
      <point x="263" y="614" type="qcurve"/>
      <point x="257" y="614" type="line"/>
      <point x="257" y="546" type="line"/>
    </contour>
  </outline>
</glyph>
<glyph name="uni031B" format="1">
  <advance width="612"/>
  <unicode hex="031B"/>
  <outline>
    <contour>
      <point x="263" y="630" type="qcurve"/>
      <point x="263" y="659"/>
      <point x="304" y="700"/>
      <point x="333" y="700" type="qcurve"/>
      <point x="362" y="700"/>
      <point x="403" y="659"/>
      <point x="403" y="630" type="qcurve"/>
      <point x="403" y="623"/>
      <point x="402" y="618" type="qcurve"/>
      <point x="384" y="532" type="line"/>
      <point x="376" y="494"/>
      <point x="330" y="454"/>
      <point x="291" y="454" type="qcurve"/>
      <point x="203" y="454" type="line"/>
      <point x="203" y="508" type="line"/>
      <point x="298" y="508" type="line"/>
      <point x="326" y="508"/>
      <point x="332" y="538" type="qcurve"/>
      <point x="337" y="560" type="line"/>
      <point x="333" y="560" type="line"/>
      <point x="304" y="560"/>
      <point x="263" y="601"/>
    </contour>
  </outline>
</glyph>
<glyph name="pi" format="1">
  <advance width="612"/>
  <unicode hex="03C0"/>
  <outline>
    <contour>
      <point x="87" y="0" type="line"/>
      <point x="177" y="424" type="line"/>
      <point x="105" y="424" type="line"/>
      <point x="120" y="496" type="line"/>
      <point x="598" y="496" type="line"/>
      <point x="583" y="424" type="line"/>
      <point x="511" y="424" type="line"/>
      <point x="442" y="102" type="line"/>
      <point x="441" y="97"/>
      <point x="441" y="94"/>
      <point x="441" y="92" type="qcurve"/>
      <point x="441" y="72"/>
      <point x="463" y="72" type="qcurve"/>
      <point x="508" y="72" type="line"/>
      <point x="493" y="0" type="line"/>
      <point x="420" y="0" type="line"/>
      <point x="391" y="0"/>
      <point x="357" y="33"/>
      <point x="357" y="60" type="qcurve"/>
      <point x="357" y="65"/>
      <point x="358" y="73"/>
      <point x="359" y="78" type="qcurve"/>
      <point x="433" y="424" type="line"/>
      <point x="255" y="424" type="line"/>
      <point x="165" y="0" type="line"/>
    </contour>
  </outline>
</glyph>
<glyph name="uni1EA8" format="1">
  <advance width="612"/>
  <unicode hex="1EA8"/>
  <outline>
    <contour>
      <point x="537" y="858" type="line"/>
      <point x="537" y="950" type="line"/>
      <point x="542" y="956" type="line"/>
      <point x="614" y="956" type="line"/>
      <point x="623" y="941"/>
      <point x="642" y="941" type="qcurve"/>
      <point x="680" y="941"/>
      <point x="680" y="982" type="qcurve"/>
      <point x="680" y="1000"/>
      <point x="658" y="1022"/>
      <point x="638" y="1022" type="qcurve"/>
      <point x="620" y="1022"/>
      <point x="596" y="1000"/>
      <point x="591" y="982" type="qcurve"/>
      <point x="546" y="1000" type="line"/>
      <point x="558" y="1030"/>
      <point x="603" y="1070"/>
      <point x="644" y="1070" type="qcurve"/>
      <point x="683" y="1070"/>
      <point x="734" y="1022"/>
      <point x="734" y="986" type="qcurve"/>
      <point x="734" y="948"/>
      <point x="686" y="894"/>
      <point x="650" y="894" type="qcurve"/>
      <point x="629" y="894"/>
      <point x="598" y="911"/>
      <point x="592" y="926" type="qcurve"/>
      <point x="586" y="926" type="line"/>
      <point x="586" y="858" type="line"/>
    </contour>
    <component base="A"/>
    <component base="circumflex" xOffset="51" yOffset="204"/>
  </outline>
</glyph>
<glyph name="uni1EBA" format="1">
  <advance width="612"/>
  <unicode hex="1EBA"/>
  <outline>
    <contour>
      <point x="341" y="750" type="line"/>
      <point x="341" y="842" type="line"/>
      <point x="346" y="848" type="line"/>
      <point x="418" y="848" type="line"/>
      <point x="427" y="833"/>
      <point x="446" y="833" type="qcurve"/>
      <point x="484" y="833"/>
      <point x="484" y="874" type="qcurve"/>
      <point x="484" y="892"/>
      <point x="462" y="914"/>
      <point x="442" y="914" type="qcurve"/>
      <point x="424" y="914"/>
      <point x="400" y="892"/>
      <point x="395" y="874" type="qcurve"/>
      <point x="350" y="892" type="line"/>
      <point x="362" y="922"/>
      <point x="407" y="962"/>
      <point x="448" y="962" type="qcurve"/>
      <point x="487" y="962"/>
      <point x="538" y="914"/>
      <point x="538" y="878" type="qcurve"/>
      <point x="538" y="840"/>
      <point x="490" y="786"/>
      <point x="454" y="786" type="qcurve"/>
      <point x="433" y="786"/>
      <point x="402" y="803"/>
      <point x="396" y="818" type="qcurve"/>
      <point x="390" y="818" type="line"/>
      <point x="390" y="750" type="line"/>
    </contour>
    <component base="E"/>
  </outline>
</glyph>
<glyph name="uni1EC2" format="1">
  <advance width="612"/>
  <unicode hex="1EC2"/>
  <outline>
    <contour>
      <point x="528" y="858" type="line"/>
      <point x="528" y="950" type="line"/>
      <point x="533" y="956" type="line"/>
      <point x="605" y="956" type="line"/>
      <point x="614" y="941"/>
      <point x="633" y="941" type="qcurve"/>
      <point x="671" y="941"/>
      <point x="671" y="982" type="qcurve"/>
      <point x="671" y="1000"/>
      <point x="649" y="1022"/>
      <point x="629" y="1022" type="qcurve"/>
      <point x="611" y="1022"/>
      <point x="587" y="1000"/>
      <point x="582" y="982" type="qcurve"/>
      <point x="537" y="1000" type="line"/>
      <point x="549" y="1030"/>
      <point x="594" y="1070"/>
      <point x="635" y="1070" type="qcurve"/>
      <point x="674" y="1070"/>
      <point x="725" y="1022"/>
      <point x="725" y="986" type="qcurve"/>
      <point x="725" y="948"/>
      <point x="677" y="894"/>
      <point x="641" y="894" type="qcurve"/>
      <point x="620" y="894"/>
      <point x="589" y="911"/>
      <point x="583" y="926" type="qcurve"/>
      <point x="577" y="926" type="line"/>
      <point x="577" y="858" type="line"/>
    </contour>
    <component base="E"/>
    <component base="circumflex" xOffset="42" yOffset="204"/>
  </outline>
</glyph>
<glyph name="uni1EC3" format="1">
  <advance width="612"/>
  <unicode hex="1EC3"/>
  <outline>
    <contour>
      <point x="491" y="658" type="line"/>
      <point x="491" y="750" type="line"/>
      <point x="496" y="756" type="line"/>
      <point x="568" y="756" type="line"/>
      <point x="575" y="742"/>
      <point x="594" y="742" type="qcurve"/>
      <point x="612" y="742"/>
      <point x="634" y="767"/>
      <point x="634" y="784" type="qcurve"/>
      <point x="634" y="801"/>
      <point x="615" y="822"/>
      <point x="598" y="822" type="qcurve"/>
      <point x="576" y="822"/>
      <point x="552" y="797"/>
      <point x="545" y="782" type="qcurve"/>
      <point x="501" y="800" type="line"/>
      <point x="514" y="830"/>
      <point x="564" y="870"/>
      <point x="603" y="870" type="qcurve"/>
      <point x="641" y="870"/>
      <point x="689" y="822"/>
      <point x="689" y="786" type="qcurve"/>
      <point x="689" y="767"/>
      <point x="675" y="734"/>
      <point x="650" y="709"/>
      <point x="617" y="694"/>
      <point x="598" y="694" type="qcurve"/>
      <point x="559" y="694"/>
      <point x="546" y="726" type="qcurve"/>
      <point x="540" y="726" type="line"/>
      <point x="540" y="658" type="line"/>
    </contour>
    <component base="e"/>
    <component base="circumflex" xOffset="3"/>
  </outline>
</glyph>
<glyph name="uni1EDE" format="1">
  <advance width="612"/>
  <unicode hex="1EDE"/>
  <outline>
    <contour>
      <point x="305" y="750" type="line"/>
      <point x="305" y="842" type="line"/>
      <point x="310" y="848" type="line"/>
      <point x="382" y="848" type="line"/>
      <point x="391" y="833"/>
      <point x="410" y="833" type="qcurve"/>
      <point x="448" y="833"/>
      <point x="448" y="874" type="qcurve"/>
      <point x="448" y="892"/>
      <point x="426" y="914"/>
      <point x="406" y="914" type="qcurve"/>
      <point x="388" y="914"/>
      <point x="364" y="892"/>
      <point x="359" y="874" type="qcurve"/>
      <point x="314" y="892" type="line"/>
      <point x="326" y="922"/>
      <point x="371" y="962"/>
      <point x="412" y="962" type="qcurve"/>
      <point x="451" y="962"/>
      <point x="502" y="914"/>
      <point x="502" y="878" type="qcurve"/>
      <point x="502" y="840"/>
      <point x="454" y="786"/>
      <point x="418" y="786" type="qcurve"/>
      <point x="397" y="786"/>
      <point x="366" y="803"/>
      <point x="360" y="818" type="qcurve"/>
      <point x="354" y="818" type="line"/>
      <point x="354" y="750" type="line"/>
    </contour>
    <contour>
      <point x="514" y="630" type="qcurve"/>
      <point x="514" y="659"/>
      <point x="555" y="700"/>
      <point x="584" y="700" type="qcurve"/>
      <point x="613" y="700"/>
      <point x="654" y="659"/>
      <point x="654" y="630" type="qcurve"/>
      <point x="654" y="623"/>
      <point x="653" y="618" type="qcurve"/>
      <point x="635" y="532" type="line"/>
      <point x="627" y="494"/>
      <point x="581" y="454"/>
      <point x="542" y="454" type="qcurve"/>
      <point x="478" y="454" type="line"/>
      <point x="427" y="218" type="line"/>
      <point x="401" y="96"/>
      <point x="276" y="-14"/>
      <point x="184" y="-14" type="qcurve"/>
      <point x="109" y="-14"/>
      <point x="14" y="75"/>
      <point x="14" y="161" type="qcurve"/>
      <point x="14" y="178"/>
      <point x="18" y="212"/>
      <point x="22" y="232" type="qcurve"/>
      <point x="74" y="476" type="line"/>
      <point x="98" y="589"/>
      <point x="219" y="714"/>
      <point x="317" y="714" type="qcurve"/>
      <point x="357" y="714"/>
      <point x="422" y="689"/>
      <point x="467" y="644"/>
      <point x="491" y="581"/>
      <point x="491" y="544" type="qcurve"/>
      <point x="491" y="526"/>
      <point x="488" y="508" type="qcurve"/>
      <point x="549" y="508" type="line"/>
      <point x="577" y="508"/>
      <point x="583" y="538" type="qcurve"/>
      <point x="588" y="560" type="line"/>
      <point x="584" y="560" type="line"/>
      <point x="555" y="560"/>
      <point x="514" y="601"/>
    </contour>
    <contour>
      <point x="190" y="62" type="qcurve"/>
      <point x="252" y="62"/>
      <point x="327" y="141"/>
      <point x="345" y="224" type="qcurve"/>
      <point x="398" y="476" type="line"/>
      <point x="406" y="514"/>
      <point x="406" y="540" type="qcurve"/>
      <point x="406" y="588"/>
      <point x="360" y="638"/>
      <point x="309" y="638" type="qcurve"/>
      <point x="249" y="638"/>
      <point x="175" y="553"/>
      <point x="158" y="476" type="qcurve"/>
      <point x="105" y="224" type="line"/>
      <point x="97" y="186"/>
      <point x="97" y="160" type="qcurve"/>
      <point x="97" y="62"/>
    </contour>
  </outline>
</glyph>
<glyph name="uni1EDF" format="1">
  <advance width="612"/>
  <unicode hex="1EDF"/>
  <outline>
    <contour>
      <point x="282" y="546" type="line"/>
      <point x="282" y="638" type="line"/>
      <point x="287" y="644" type="line"/>
      <point x="359" y="644" type="line"/>
      <point x="366" y="630"/>
      <point x="385" y="630" type="qcurve"/>
      <point x="403" y="630"/>
      <point x="425" y="655"/>
      <point x="425" y="672" type="qcurve"/>
      <point x="425" y="689"/>
      <point x="406" y="710"/>
      <point x="389" y="710" type="qcurve"/>
      <point x="367" y="710"/>
      <point x="343" y="685"/>
      <point x="336" y="670" type="qcurve"/>
      <point x="292" y="688" type="line"/>
      <point x="305" y="718"/>
      <point x="355" y="758"/>
      <point x="394" y="758" type="qcurve"/>
      <point x="432" y="758"/>
      <point x="480" y="710"/>
      <point x="480" y="674" type="qcurve"/>
      <point x="480" y="655"/>
      <point x="466" y="622"/>
      <point x="441" y="597"/>
      <point x="408" y="582"/>
      <point x="389" y="582" type="qcurve"/>
      <point x="350" y="582"/>
      <point x="337" y="614" type="qcurve"/>
      <point x="331" y="614" type="line"/>
      <point x="331" y="546" type="line"/>
    </contour>
    <component base="uni01A1"/>
  </outline>
</glyph>
<glyph name="uni1EE6" format="1">
  <advance width="612"/>
  <unicode hex="1EE6"/>
  <outline>
    <contour>
      <point x="356" y="750" type="line"/>
      <point x="356" y="842" type="line"/>
      <point x="361" y="848" type="line"/>
      <point x="433" y="848" type="line"/>
      <point x="442" y="833"/>
      <point x="461" y="833" type="qcurve"/>
      <point x="499" y="833"/>
      <point x="499" y="874" type="qcurve"/>
      <point x="499" y="892"/>
      <point x="477" y="914"/>
      <point x="457" y="914" type="qcurve"/>
      <point x="439" y="914"/>
      <point x="415" y="892"/>
      <point x="410" y="874" type="qcurve"/>
      <point x="365" y="892" type="line"/>
      <point x="377" y="922"/>
      <point x="422" y="962"/>
      <point x="463" y="962" type="qcurve"/>
      <point x="502" y="962"/>
      <point x="553" y="914"/>
      <point x="553" y="878" type="qcurve"/>
      <point x="553" y="840"/>
      <point x="505" y="786"/>
      <point x="469" y="786" type="qcurve"/>
      <point x="448" y="786"/>
      <point x="417" y="803"/>
      <point x="411" y="818" type="qcurve"/>
      <point x="405" y="818" type="line"/>
      <point x="405" y="750" type="line"/>
    </contour>
    <component base="U"/>
  </outline>
</glyph>
<glyph name="uni1EED" format="1">
  <advance width="612"/>
  <unicode hex="1EED"/>
  <outline>
    <contour>
      <point x="262" y="546" type="line"/>
      <point x="262" y="638" type="line"/>
      <point x="267" y="644" type="line"/>
      <point x="339" y="644" type="line"/>
      <point x="346" y="630"/>
      <point x="365" y="630" type="qcurve"/>
      <point x="383" y="630"/>
      <point x="405" y="655"/>
      <point x="405" y="672" type="qcurve"/>
      <point x="405" y="689"/>
      <point x="386" y="710"/>
      <point x="369" y="710" type="qcurve"/>
      <point x="347" y="710"/>
      <point x="323" y="685"/>
      <point x="316" y="670" type="qcurve"/>
      <point x="272" y="688" type="line"/>
      <point x="285" y="718"/>
      <point x="335" y="758"/>
      <point x="374" y="758" type="qcurve"/>
      <point x="412" y="758"/>
      <point x="460" y="710"/>
      <point x="460" y="674" type="qcurve"/>
      <point x="460" y="655"/>
      <point x="446" y="622"/>
      <point x="421" y="597"/>
      <point x="388" y="582"/>
      <point x="369" y="582" type="qcurve"/>
      <point x="330" y="582"/>
      <point x="317" y="614" type="qcurve"/>
      <point x="311" y="614" type="line"/>
      <point x="311" y="546" type="line"/>
    </contour>
    <component base="uni01B0"/>
  </outline>
</glyph>
<glyph name="quoteleft" format="1">
  <advance width="612"/>
  <unicode hex="2018"/>
  <outline>
    <contour>
      <point x="418" y="538" type="qcurve"/>
      <point x="418" y="509"/>
      <point x="377" y="468"/>
      <point x="348" y="468" type="qcurve"/>
      <point x="319" y="468"/>
      <point x="278" y="509"/>
      <point x="278" y="538" type="qcurve"/>
      <point x="278" y="545"/>
      <point x="279" y="550" type="qcurve"/>
      <point x="297" y="636" type="line"/>
      <point x="305" y="674"/>
      <point x="351" y="714"/>
      <point x="390" y="714" type="qcurve"/>
      <point x="442" y="714" type="line"/>
      <point x="442" y="660" type="line"/>
      <point x="383" y="660" type="line"/>
      <point x="355" y="660"/>
      <point x="349" y="630" type="qcurve"/>
      <point x="344" y="608" type="line"/>
      <point x="348" y="608" type="line"/>
      <point x="377" y="608"/>
      <point x="418" y="567"/>
    </contour>
  </outline>
</glyph>
<glyph name="quoteright" format="1">
  <advance width="612"/>
  <unicode hex="2019"/>
  <outline>
    <contour>
      <point x="298" y="644" type="qcurve"/>
      <point x="298" y="673"/>
      <point x="339" y="714"/>
      <point x="368" y="714" type="qcurve"/>
      <point x="397" y="714"/>
      <point x="438" y="673"/>
      <point x="438" y="644" type="qcurve"/>
      <point x="438" y="637"/>
      <point x="437" y="632" type="qcurve"/>
      <point x="419" y="546" type="line"/>
      <point x="411" y="508"/>
      <point x="365" y="468"/>
      <point x="326" y="468" type="qcurve"/>
      <point x="274" y="468" type="line"/>
      <point x="274" y="522" type="line"/>
      <point x="333" y="522" type="line"/>
      <point x="361" y="522"/>
      <point x="367" y="552" type="qcurve"/>
      <point x="372" y="574" type="line"/>
      <point x="368" y="574" type="line"/>
      <point x="339" y="574"/>
      <point x="298" y="615"/>
    </contour>
  </outline>
</glyph>
<glyph name="quotesinglbase" format="1">
  <advance width="612"/>
  <unicode hex="201A"/>
  <outline>
    <contour>
      <point x="198" y="70" type="qcurve"/>
      <point x="198" y="99"/>
      <point x="239" y="140"/>
      <point x="268" y="140" type="qcurve"/>
      <point x="297" y="140"/>
      <point x="338" y="99"/>
      <point x="338" y="70" type="qcurve"/>
      <point x="338" y="63"/>
      <point x="337" y="58" type="qcurve"/>
      <point x="319" y="-28" type="line"/>
      <point x="311" y="-66"/>
      <point x="265" y="-106"/>
      <point x="226" y="-106" type="qcurve"/>
      <point x="174" y="-106" type="line"/>
      <point x="174" y="-52" type="line"/>
      <point x="233" y="-52" type="line"/>
      <point x="261" y="-52"/>
      <point x="267" y="-22" type="qcurve"/>
      <point x="272" y="0" type="line"/>
      <point x="268" y="0" type="line"/>
      <point x="239" y="0"/>
      <point x="198" y="41"/>
    </contour>
  </outline>
</glyph>
<glyph name="quotedblleft" format="1">
  <advance width="612"/>
  <unicode hex="201C"/>
  <outline>
    <contour>
      <point x="332" y="538" type="qcurve"/>
      <point x="332" y="509"/>
      <point x="291" y="468"/>
      <point x="262" y="468" type="qcurve"/>
      <point x="233" y="468"/>
      <point x="192" y="509"/>
      <point x="192" y="538" type="qcurve"/>
      <point x="192" y="545"/>
      <point x="193" y="550" type="qcurve"/>
      <point x="211" y="636" type="line"/>
      <point x="219" y="674"/>
      <point x="265" y="714"/>
      <point x="304" y="714" type="qcurve"/>
      <point x="356" y="714" type="line"/>
      <point x="356" y="660" type="line"/>
      <point x="297" y="660" type="line"/>
      <point x="269" y="660"/>
      <point x="263" y="630" type="qcurve"/>
      <point x="258" y="608" type="line"/>
      <point x="262" y="608" type="line"/>
      <point x="291" y="608"/>
      <point x="332" y="567"/>
    </contour>
    <contour>
      <point x="514" y="538" type="qcurve"/>
      <point x="514" y="509"/>
      <point x="473" y="468"/>
      <point x="444" y="468" type="qcurve"/>
      <point x="415" y="468"/>
      <point x="374" y="509"/>
      <point x="374" y="538" type="qcurve"/>
      <point x="374" y="545"/>
      <point x="375" y="550" type="qcurve"/>
      <point x="393" y="636" type="line"/>
      <point x="401" y="674"/>
      <point x="447" y="714"/>
      <point x="486" y="714" type="qcurve"/>
      <point x="538" y="714" type="line"/>
      <point x="538" y="660" type="line"/>
      <point x="479" y="660" type="line"/>
      <point x="451" y="660"/>
      <point x="445" y="630" type="qcurve"/>
      <point x="440" y="608" type="line"/>
      <point x="444" y="608" type="line"/>
      <point x="473" y="608"/>
      <point x="514" y="567"/>
    </contour>
  </outline>
</glyph>
<glyph name="quotedblright" format="1">
  <advance width="612"/>
  <unicode hex="201D"/>
  <outline>
    <contour>
      <point x="210" y="644" type="qcurve"/>
      <point x="210" y="673"/>
      <point x="251" y="714"/>
      <point x="280" y="714" type="qcurve"/>
      <point x="309" y="714"/>
      <point x="350" y="673"/>
      <point x="350" y="644" type="qcurve"/>
      <point x="350" y="637"/>
      <point x="349" y="632" type="qcurve"/>
      <point x="331" y="546" type="line"/>
      <point x="323" y="508"/>
      <point x="277" y="468"/>
      <point x="238" y="468" type="qcurve"/>
      <point x="186" y="468" type="line"/>
      <point x="186" y="522" type="line"/>
      <point x="245" y="522" type="line"/>
      <point x="273" y="522"/>
      <point x="279" y="552" type="qcurve"/>
      <point x="284" y="574" type="line"/>
      <point x="280" y="574" type="line"/>
      <point x="251" y="574"/>
      <point x="210" y="615"/>
    </contour>
    <contour>
      <point x="392" y="644" type="qcurve"/>
      <point x="392" y="673"/>
      <point x="433" y="714"/>
      <point x="462" y="714" type="qcurve"/>
      <point x="491" y="714"/>
      <point x="532" y="673"/>
      <point x="532" y="644" type="qcurve"/>
      <point x="532" y="637"/>
      <point x="531" y="632" type="qcurve"/>
      <point x="513" y="546" type="line"/>
      <point x="505" y="508"/>
      <point x="459" y="468"/>
      <point x="420" y="468" type="qcurve"/>
      <point x="368" y="468" type="line"/>
      <point x="368" y="522" type="line"/>
      <point x="427" y="522" type="line"/>
      <point x="455" y="522"/>
      <point x="461" y="552" type="qcurve"/>
      <point x="466" y="574" type="line"/>
      <point x="462" y="574" type="line"/>
      <point x="433" y="574"/>
      <point x="392" y="615"/>
    </contour>
  </outline>
</glyph>
<glyph name="dagger" format="1">
  <advance width="612"/>
  <unicode hex="2020"/>
  <outline>
    <contour>
      <point x="198" y="604" type="line"/>
      <point x="312" y="604" type="line"/>
      <point x="335" y="714" type="line"/>
      <point x="407" y="714" type="line"/>
      <point x="384" y="604" type="line"/>
      <point x="483" y="604" type="line"/>
      <point x="483" y="534" type="line"/>
      <point x="369" y="534" type="line"/>
      <point x="302" y="218" type="line"/>
      <point x="230" y="218" type="line"/>
      <point x="297" y="534" type="line"/>
      <point x="198" y="534" type="line"/>
    </contour>
  </outline>
</glyph>
<glyph name="daggerdbl" format="1">
  <advance width="612"/>
  <unicode hex="2021"/>
  <outline>
    <contour>
      <point x="154" y="398" type="line"/>
      <point x="268" y="398" type="line"/>
      <point x="297" y="534" type="line"/>
      <point x="198" y="534" type="line"/>
      <point x="198" y="604" type="line"/>
      <point x="312" y="604" type="line"/>
      <point x="335" y="714" type="line"/>
      <point x="407" y="714" type="line"/>
      <point x="384" y="604" type="line"/>
      <point x="483" y="604" type="line"/>
      <point x="483" y="534" type="line"/>
      <point x="369" y="534" type="line"/>
      <point x="340" y="398" type="line"/>
      <point x="439" y="398" type="line"/>
      <point x="439" y="328" type="line"/>
      <point x="325" y="328" type="line"/>
      <point x="302" y="218" type="line"/>
      <point x="230" y="218" type="line"/>
      <point x="253" y="328" type="line"/>
      <point x="154" y="328" type="line"/>
    </contour>
  </outline>
</glyph>
<glyph name="uni2032" format="1">
  <advance width="612"/>
  <unicode hex="2032"/>
  <outline>
    <contour>
      <point x="252" y="644" type="qcurve"/>
      <point x="252" y="673"/>
      <point x="293" y="714"/>
      <point x="322" y="714" type="qcurve"/>
      <point x="351" y="714"/>
      <point x="392" y="673"/>
      <point x="392" y="644" type="qcurve"/>
      <point x="392" y="615"/>
      <point x="352" y="575"/>
      <point x="323" y="574" type="qcurve"/>
      <point x="281" y="472" type="line"/>
      <point x="231" y="492" type="line"/>
      <point x="274" y="593" type="line"/>
      <point x="252" y="612"/>
    </contour>
  </outline>
</glyph>
<glyph name="uni2074" format="1">
  <advance width="612"/>
  <unicode hex="2074"/>
  <outline>
    <contour>
      <point x="315" y="700" type="line"/>
      <point x="418" y="700" type="line"/>
      <point x="379" y="514" type="line"/>
      <point x="413" y="514" type="line"/>
      <point x="413" y="466" type="line"/>
      <point x="368" y="466" type="line"/>
      <point x="357" y="412" type="line"/>
      <point x="303" y="412" type="line"/>
      <point x="314" y="466" type="line"/>
      <point x="191" y="466" type="line"/>
      <point x="191" y="530" type="line"/>
    </contour>
    <contour>
      <point x="244" y="520" type="line"/>
      <point x="244" y="514" type="line"/>
      <point x="325" y="514" type="line"/>
      <point x="358" y="670" type="line"/>
      <point x="352" y="670" type="line"/>
    </contour>
  </outline>
</glyph>
<glyph name="uni2075" format="1">
  <advance width="612"/>
  <unicode hex="2075"/>
  <outline>
    <contour>
      <point x="209" y="539" type="line"/>
      <point x="243" y="700" type="line"/>
      <point x="426" y="700" type="line"/>
      <point x="426" y="652" type="line"/>
      <point x="287" y="652" type="line"/>
      <point x="270" y="572" type="line"/>
      <point x="276" y="572" type="line"/>
      <point x="300" y="607"/>
      <point x="341" y="607" type="qcurve"/>
      <point x="373" y="607"/>
      <point x="412" y="567"/>
      <point x="412" y="532" type="qcurve"/>
      <point x="412" y="475"/>
      <point x="346" y="406"/>
      <point x="291" y="406" type="qcurve"/>
      <point x="240" y="406"/>
      <point x="194" y="454"/>
      <point x="194" y="491" type="qcurve"/>
      <point x="194" y="495"/>
      <point x="194" y="499"/>
      <point x="195" y="505" type="qcurve"/>
      <point x="249" y="505" type="line"/>
      <point x="248" y="500"/>
      <point x="248" y="496"/>
      <point x="248" y="493" type="qcurve"/>
      <point x="248" y="476"/>
      <point x="271" y="454"/>
      <point x="295" y="454" type="qcurve"/>
      <point x="323" y="454"/>
      <point x="357" y="494"/>
      <point x="357" y="521" type="qcurve"/>
      <point x="357" y="539"/>
      <point x="340" y="559"/>
      <point x="327" y="559" type="qcurve"/>
      <point x="314" y="559"/>
      <point x="297" y="547"/>
      <point x="293" y="539" type="qcurve"/>
    </contour>
  </outline>
</glyph>
<glyph name="uni2076" format="1">
  <advance width="612"/>
  <unicode hex="2076"/>
  <outline>
    <contour>
      <point x="359" y="616" type="line"/>
      <point x="360" y="621"/>
      <point x="360" y="625"/>
      <point x="360" y="627" type="qcurve"/>
      <point x="360" y="658"/>
      <point x="325" y="658" type="qcurve"/>
      <point x="302" y="658"/>
      <point x="276" y="631"/>
      <point x="271" y="608" type="qcurve"/>
      <point x="262" y="566" type="line"/>
      <point x="268" y="566" type="line"/>
      <point x="277" y="578"/>
      <point x="309" y="596"/>
      <point x="330" y="596" type="qcurve"/>
      <point x="361" y="596"/>
      <point x="397" y="555"/>
      <point x="397" y="518" type="qcurve"/>
      <point x="397" y="499"/>
      <point x="381" y="459"/>
      <point x="351" y="427"/>
      <point x="306" y="406"/>
      <point x="278" y="406" type="qcurve"/>
      <point x="243" y="406"/>
      <point x="194" y="448"/>
      <point x="194" y="486" type="qcurve"/>
      <point x="194" y="498"/>
      <point x="197" y="513" type="qcurve"/>
      <point x="217" y="608" type="line"/>
      <point x="226" y="653"/>
      <point x="287" y="706"/>
      <point x="331" y="706" type="qcurve"/>
      <point x="369" y="706"/>
      <point x="415" y="667"/>
      <point x="415" y="635" type="qcurve"/>
      <point x="415" y="630"/>
      <point x="414" y="621"/>
      <point x="413" y="616" type="qcurve"/>
    </contour>
    <contour>
      <point x="302" y="548" type="qcurve"/>
      <point x="281" y="548"/>
      <point x="247" y="516"/>
      <point x="247" y="492" type="qcurve"/>
      <point x="247" y="474"/>
      <point x="268" y="454"/>
      <point x="285" y="454" type="qcurve"/>
      <point x="308" y="454"/>
      <point x="341" y="486"/>
      <point x="341" y="509" type="qcurve"/>
      <point x="341" y="528"/>
      <point x="319" y="548"/>
    </contour>
  </outline>
</glyph>
<glyph name="uni2077" format="1">
  <advance width="612"/>
  <unicode hex="2077"/>
  <outline>
    <contour>
      <point x="244" y="700" type="line"/>
      <point x="435" y="700" type="line"/>
      <point x="435" y="626" type="line"/>
      <point x="294" y="463" type="line"/>
      <point x="284" y="452"/>
      <point x="271" y="433"/>
      <point x="269" y="424" type="qcurve"/>
      <point x="267" y="412" type="line"/>
      <point x="208" y="412" type="line"/>
      <point x="211" y="427" type="line"/>
      <point x="218" y="456"/>
      <point x="245" y="486" type="qcurve"/>
      <point x="385" y="644" type="line"/>
      <point x="385" y="650" type="line"/>
      <point x="244" y="650" type="line"/>
    </contour>
  </outline>
</glyph>
<glyph name="uni2079" format="1">
  <advance width="612"/>
  <unicode hex="2079"/>
  <outline>
    <contour>
      <point x="247" y="496" type="line"/>
      <point x="246" y="491"/>
      <point x="246" y="487"/>
      <point x="246" y="485" type="qcurve"/>
      <point x="246" y="454"/>
      <point x="281" y="454" type="qcurve"/>
      <point x="304" y="454"/>
      <point x="330" y="481"/>
      <point x="335" y="504" type="qcurve"/>
      <point x="344" y="546" type="line"/>
      <point x="338" y="546" type="line"/>
      <point x="329" y="534"/>
      <point x="297" y="516"/>
      <point x="276" y="516" type="qcurve"/>
      <point x="245" y="516"/>
      <point x="209" y="557"/>
      <point x="209" y="594" type="qcurve"/>
      <point x="209" y="613"/>
      <point x="225" y="653"/>
      <point x="255" y="685"/>
      <point x="299" y="706"/>
      <point x="328" y="706" type="qcurve"/>
      <point x="363" y="706"/>
      <point x="412" y="664"/>
      <point x="412" y="626" type="qcurve"/>
      <point x="412" y="614"/>
      <point x="409" y="599" type="qcurve"/>
      <point x="389" y="504" type="line"/>
      <point x="380" y="459"/>
      <point x="319" y="406"/>
      <point x="275" y="406" type="qcurve"/>
      <point x="237" y="406"/>
      <point x="191" y="445"/>
      <point x="191" y="477" type="qcurve"/>
      <point x="191" y="482"/>
      <point x="192" y="491"/>
      <point x="193" y="496" type="qcurve"/>
    </contour>
    <contour>
      <point x="304" y="564" type="qcurve"/>
      <point x="325" y="564"/>
      <point x="359" y="596"/>
      <point x="359" y="620" type="qcurve"/>
      <point x="359" y="638"/>
      <point x="338" y="658"/>
      <point x="321" y="658" type="qcurve"/>
      <point x="298" y="658"/>
      <point x="265" y="626"/>
      <point x="265" y="603" type="qcurve"/>
      <point x="265" y="584"/>
      <point x="287" y="564"/>
    </contour>
  </outline>
</glyph>
<glyph name="uni207D" format="1">
  <advance width="612"/>
  <unicode hex="207D"/>
  <outline>
    <contour>
      <point x="397" y="351" type="line"/>
      <point x="397" y="303" type="line"/>
      <point x="374" y="303" type="line"/>
      <point x="343" y="303"/>
      <point x="290" y="324"/>
      <point x="252" y="363"/>
      <point x="231" y="417"/>
      <point x="231" y="450" type="qcurve"/>
      <point x="231" y="461"/>
      <point x="234" y="482"/>
      <point x="236" y="493" type="qcurve"/>
      <point x="267" y="640" type="line"/>
      <point x="276" y="685"/>
      <point x="318" y="749"/>
      <point x="375" y="790"/>
      <point x="444" y="809"/>
      <point x="481" y="809" type="qcurve"/>
      <point x="494" y="809" type="line"/>
      <point x="494" y="761" type="line"/>
      <point x="471" y="761" type="line"/>
      <point x="437" y="761"/>
      <point x="383" y="740"/>
      <point x="343" y="705"/>
      <point x="318" y="658"/>
      <point x="312" y="631" type="qcurve"/>
      <point x="284" y="491" type="line"/>
      <point x="280" y="472"/>
      <point x="280" y="452" type="qcurve"/>
      <point x="280" y="401"/>
      <point x="338" y="351"/>
      <point x="384" y="351" type="qcurve"/>
    </contour>
  </outline>
</glyph>
<glyph name="uni207F" format="1">
  <advance width="612"/>
  <unicode hex="207F"/>
  <outline>
    <contour>
      <point x="246" y="412" type="line"/>
      <point x="192" y="412" type="line"/>
      <point x="253" y="700" type="line"/>
      <point x="307" y="700" type="line"/>
      <point x="299" y="660" type="line"/>
      <point x="305" y="660" type="line"/>
      <point x="321" y="681"/>
      <point x="363" y="706"/>
      <point x="399" y="706" type="qcurve"/>
      <point x="440" y="706"/>
      <point x="485" y="660"/>
      <point x="485" y="621" type="qcurve"/>
      <point x="485" y="603"/>
      <point x="481" y="586" type="qcurve"/>
      <point x="444" y="412" type="line"/>
      <point x="390" y="412" type="line"/>
      <point x="425" y="576" type="line"/>
      <point x="427" y="584"/>
      <point x="428" y="595"/>
      <point x="428" y="603" type="qcurve"/>
      <point x="428" y="627"/>
      <point x="401" y="658"/>
      <point x="373" y="658" type="qcurve"/>
      <point x="335" y="658"/>
      <point x="287" y="607"/>
      <point x="279" y="566" type="qcurve"/>
    </contour>
  </outline>
</glyph>
<glyph name="uni2086" format="1">
  <advance width="612"/>
  <unicode hex="2086"/>
  <outline>
    <contour>
      <point x="309" y="4" type="line"/>
      <point x="310" y="9"/>
      <point x="310" y="13"/>
      <point x="310" y="15" type="qcurve"/>
      <point x="310" y="46"/>
      <point x="275" y="46" type="qcurve"/>
      <point x="252" y="46"/>
      <point x="226" y="19"/>
      <point x="221" y="-4" type="qcurve"/>
      <point x="212" y="-46" type="line"/>
      <point x="218" y="-46" type="line"/>
      <point x="227" y="-34"/>
      <point x="259" y="-16"/>
      <point x="280" y="-16" type="qcurve"/>
      <point x="311" y="-16"/>
      <point x="347" y="-57"/>
      <point x="347" y="-94" type="qcurve"/>
      <point x="347" y="-113"/>
      <point x="331" y="-153"/>
      <point x="301" y="-185"/>
      <point x="256" y="-206"/>
      <point x="228" y="-206" type="qcurve"/>
      <point x="193" y="-206"/>
      <point x="144" y="-164"/>
      <point x="144" y="-126" type="qcurve"/>
      <point x="144" y="-114"/>
      <point x="147" y="-99" type="qcurve"/>
      <point x="167" y="-4" type="line"/>
      <point x="176" y="41"/>
      <point x="237" y="94"/>
      <point x="281" y="94" type="qcurve"/>
      <point x="319" y="94"/>
      <point x="365" y="55"/>
      <point x="365" y="23" type="qcurve"/>
      <point x="365" y="18"/>
      <point x="364" y="9"/>
      <point x="363" y="4" type="qcurve"/>
    </contour>
    <contour>
      <point x="252" y="-64" type="qcurve"/>
      <point x="231" y="-64"/>
      <point x="197" y="-96"/>
      <point x="197" y="-120" type="qcurve"/>
      <point x="197" y="-138"/>
      <point x="218" y="-158"/>
      <point x="235" y="-158" type="qcurve"/>
      <point x="258" y="-158"/>
      <point x="291" y="-126"/>
      <point x="291" y="-103" type="qcurve"/>
      <point x="291" y="-84"/>
      <point x="269" y="-64"/>
    </contour>
  </outline>
</glyph>
<glyph name="uni2087" format="1">
  <advance width="612"/>
  <unicode hex="2087"/>
  <outline>
    <contour>
      <point x="175" y="88" type="line"/>
      <point x="366" y="88" type="line"/>
      <point x="366" y="14" type="line"/>
      <point x="225" y="-149" type="line"/>
      <point x="215" y="-160"/>
      <point x="202" y="-179"/>
      <point x="200" y="-188" type="qcurve"/>
      <point x="198" y="-200" type="line"/>
      <point x="139" y="-200" type="line"/>
      <point x="142" y="-185" type="line"/>
      <point x="149" y="-156"/>
      <point x="176" y="-126" type="qcurve"/>
      <point x="316" y="32" type="line"/>
      <point x="316" y="38" type="line"/>
      <point x="175" y="38" type="line"/>
    </contour>
  </outline>
</glyph>
<glyph name="uni2088" format="1">
  <advance width="612"/>
  <unicode hex="2088"/>
  <outline>
    <contour>
      <point x="216" y="-206" type="qcurve"/>
      <point x="178" y="-206"/>
      <point x="126" y="-169"/>
      <point x="126" y="-135" type="qcurve"/>
      <point x="126" y="-105"/>
      <point x="164" y="-63"/>
      <point x="197" y="-54" type="qcurve"/>
      <point x="197" y="-48" type="line"/>
      <point x="184" y="-43"/>
      <point x="162" y="-17"/>
      <point x="162" y="5" type="qcurve"/>
      <point x="162" y="42"/>
      <point x="222" y="94"/>
      <point x="269" y="94" type="qcurve"/>
      <point x="305" y="94"/>
      <point x="354" y="54"/>
      <point x="354" y="22" type="qcurve"/>
      <point x="354" y="-5"/>
      <point x="320" y="-44"/>
      <point x="291" y="-53" type="qcurve"/>
      <point x="291" y="-59" type="line"/>
      <point x="306" y="-65"/>
      <point x="330" y="-87"/>
      <point x="330" y="-111" type="qcurve"/>
      <point x="330" y="-135"/>
      <point x="311" y="-170"/>
      <point x="279" y="-194"/>
      <point x="238" y="-206"/>
    </contour>
    <contour>
      <point x="223" y="-158" type="qcurve"/>
      <point x="246" y="-158"/>
      <point x="277" y="-132"/>
      <point x="277" y="-109" type="qcurve"/>
      <point x="277" y="-94"/>
      <point x="256" y="-74"/>
      <point x="239" y="-74" type="qcurve"/>
      <point x="216" y="-74"/>
      <point x="183" y="-100"/>
      <point x="183" y="-123" type="qcurve"/>
      <point x="183" y="-140"/>
      <point x="205" y="-158"/>
    </contour>
    <contour>
      <point x="249" y="-26" type="qcurve"/>
      <point x="270" y="-26"/>
      <point x="304" y="-6"/>
      <point x="304" y="14" type="qcurve"/>
      <point x="304" y="31"/>
      <point x="279" y="46"/>
      <point x="264" y="46" type="qcurve"/>
      <point x="244" y="46"/>
      <point x="210" y="26"/>
      <point x="210" y="6" type="qcurve"/>
      <point x="210" y="-11"/>
      <point x="235" y="-26"/>
    </contour>
  </outline>
</glyph>
<glyph name="uni2089" format="1">
  <advance width="612"/>
  <unicode hex="2089"/>
  <outline>
    <contour>
      <point x="194" y="-116" type="line"/>
      <point x="193" y="-121"/>
      <point x="193" y="-125"/>
      <point x="193" y="-127" type="qcurve"/>
      <point x="193" y="-158"/>
      <point x="228" y="-158" type="qcurve"/>
      <point x="251" y="-158"/>
      <point x="277" y="-131"/>
      <point x="282" y="-108" type="qcurve"/>
      <point x="291" y="-66" type="line"/>
      <point x="285" y="-66" type="line"/>
      <point x="276" y="-78"/>
      <point x="244" y="-96"/>
      <point x="223" y="-96" type="qcurve"/>
      <point x="192" y="-96"/>
      <point x="156" y="-55"/>
      <point x="156" y="-18" type="qcurve"/>
      <point x="156" y="1"/>
      <point x="172" y="41"/>
      <point x="202" y="73"/>
      <point x="246" y="94"/>
      <point x="275" y="94" type="qcurve"/>
      <point x="310" y="94"/>
      <point x="359" y="52"/>
      <point x="359" y="14" type="qcurve"/>
      <point x="359" y="2"/>
      <point x="356" y="-13" type="qcurve"/>
      <point x="336" y="-108" type="line"/>
      <point x="327" y="-153"/>
      <point x="266" y="-206"/>
      <point x="222" y="-206" type="qcurve"/>
      <point x="184" y="-206"/>
      <point x="138" y="-167"/>
      <point x="138" y="-135" type="qcurve"/>
      <point x="138" y="-130"/>
      <point x="139" y="-121"/>
      <point x="140" y="-116" type="qcurve"/>
    </contour>
    <contour>
      <point x="251" y="-48" type="qcurve"/>
      <point x="272" y="-48"/>
      <point x="306" y="-16"/>
      <point x="306" y="8" type="qcurve"/>
      <point x="306" y="26"/>
      <point x="285" y="46"/>
      <point x="268" y="46" type="qcurve"/>
      <point x="245" y="46"/>
      <point x="212" y="14"/>
      <point x="212" y="-9" type="qcurve"/>
      <point x="212" y="-28"/>
      <point x="234" y="-48"/>
    </contour>
  </outline>
</glyph>
<glyph name="uni208D" format="1">
  <advance width="612"/>
  <unicode hex="208D"/>
  <outline>
    <contour>
      <point x="355" y="-261" type="line"/>
      <point x="355" y="-309" type="line"/>
      <point x="332" y="-309" type="line"/>
      <point x="301" y="-309"/>
      <point x="248" y="-288"/>
      <point x="210" y="-249"/>
      <point x="189" y="-195"/>
      <point x="189" y="-162" type="qcurve"/>
      <point x="189" y="-151"/>
      <point x="192" y="-130"/>
      <point x="194" y="-119" type="qcurve"/>
      <point x="225" y="28" type="line"/>
      <point x="234" y="73"/>
      <point x="276" y="137"/>
      <point x="333" y="178"/>
      <point x="402" y="197"/>
      <point x="439" y="197" type="qcurve"/>
      <point x="452" y="197" type="line"/>
      <point x="452" y="149" type="line"/>
      <point x="429" y="149" type="line"/>
      <point x="395" y="149"/>
      <point x="341" y="128"/>
      <point x="301" y="93"/>
      <point x="276" y="46"/>
      <point x="270" y="19" type="qcurve"/>
      <point x="242" y="-121" type="line"/>
      <point x="238" y="-140"/>
      <point x="238" y="-160" type="qcurve"/>
      <point x="238" y="-211"/>
      <point x="296" y="-261"/>
      <point x="342" y="-261" type="qcurve"/>
    </contour>
  </outline>
</glyph>
<glyph name="uni208E" format="1">
  <advance width="612"/>
  <unicode hex="208E"/>
  <outline>
    <contour>
      <point x="256" y="149" type="line"/>
      <point x="256" y="197" type="line"/>
      <point x="279" y="197" type="line"/>
      <point x="310" y="197"/>
      <point x="363" y="176"/>
      <point x="401" y="137"/>
      <point x="422" y="83"/>
      <point x="422" y="50" type="qcurve"/>
      <point x="422" y="39"/>
      <point x="419" y="18"/>
      <point x="417" y="7" type="qcurve"/>
      <point x="386" y="-140" type="line"/>
      <point x="377" y="-185"/>
      <point x="335" y="-249"/>
      <point x="278" y="-290"/>
      <point x="209" y="-309"/>
      <point x="172" y="-309" type="qcurve"/>
      <point x="159" y="-309" type="line"/>
      <point x="159" y="-261" type="line"/>
      <point x="182" y="-261" type="line"/>
      <point x="216" y="-261"/>
      <point x="270" y="-240"/>
      <point x="310" y="-205"/>
      <point x="335" y="-158"/>
      <point x="341" y="-131" type="qcurve"/>
      <point x="369" y="9" type="line"/>
      <point x="373" y="28"/>
      <point x="373" y="48" type="qcurve"/>
      <point x="373" y="99"/>
      <point x="315" y="149"/>
      <point x="269" y="149" type="qcurve"/>
    </contour>
  </outline>
</glyph>
<glyph name="uni20A4" format="1">
  <advance width="612"/>
  <unicode hex="20A4"/>
  <outline>
    <contour>
      <point x="88" y="294" type="line"/>
      <point x="156" y="294" type="line"/>
      <point x="164" y="330" type="line"/>
      <point x="111" y="330" type="line"/>
      <point x="111" y="402" type="line"/>
      <point x="179" y="402" type="line"/>
      <point x="187" y="440" type="line"/>
      <point x="205" y="523"/>
      <point x="303" y="612"/>
      <point x="381" y="612" type="qcurve"/>
      <point x="446" y="612"/>
      <point x="523" y="542"/>
      <point x="523" y="479" type="qcurve"/>
      <point x="523" y="468"/>
      <point x="520" y="447"/>
      <point x="518" y="435" type="qcurve"/>
      <point x="514" y="416" type="line"/>
      <point x="436" y="416" type="line"/>
      <point x="441" y="438" type="line"/>
      <point x="445" y="455"/>
      <point x="445" y="470" type="qcurve"/>
      <point x="445" y="506"/>
      <point x="406" y="540"/>
      <point x="374" y="540" type="qcurve"/>
      <point x="332" y="540"/>
      <point x="276" y="491"/>
      <point x="265" y="440" type="qcurve"/>
      <point x="257" y="402" type="line"/>
      <point x="339" y="402" type="line"/>
      <point x="339" y="330" type="line"/>
      <point x="242" y="330" type="line"/>
      <point x="234" y="294" type="line"/>
      <point x="315" y="294" type="line"/>
      <point x="315" y="222" type="line"/>
      <point x="219" y="222" type="line"/>
      <point x="209" y="174" type="line"/>
      <point x="443" y="174" type="line"/>
      <point x="443" y="102" type="line"/>
      <point x="63" y="102" type="line"/>
      <point x="63" y="174" type="line"/>
      <point x="131" y="174" type="line"/>
      <point x="141" y="222" type="line"/>
      <point x="88" y="222" type="line"/>
    </contour>
  </outline>
</glyph>
<glyph name="Euro" format="1">
  <advance width="612"/>
  <unicode hex="20AC"/>
  <outline>
    <contour>
      <point x="41" y="438" type="line"/>
      <point x="111" y="438" type="line"/>
      <point x="148" y="516"/>
      <point x="293" y="612"/>
      <point x="393" y="612" type="qcurve"/>
      <point x="439" y="612"/>
      <point x="513" y="584"/>
      <point x="564" y="536"/>
      <point x="591" y="471"/>
      <point x="591" y="434" type="qcurve"/>
      <point x="591" y="422" type="line"/>
      <point x="509" y="404" type="line"/>
      <point x="510" y="412"/>
      <point x="510" y="418"/>
      <point x="510" y="420" type="qcurve"/>
      <point x="510" y="444"/>
      <point x="496" y="487"/>
      <point x="464" y="519"/>
      <point x="415" y="538"/>
      <point x="379" y="538" type="qcurve"/>
      <point x="320" y="538"/>
      <point x="228" y="485"/>
      <point x="199" y="438" type="qcurve"/>
      <point x="332" y="438" type="line"/>
      <point x="332" y="366" type="line"/>
      <point x="168" y="366" type="line"/>
      <point x="166" y="357"/>
      <point x="162" y="339"/>
      <point x="161" y="330" type="qcurve"/>
      <point x="309" y="330" type="line"/>
      <point x="309" y="258" type="line"/>
      <point x="163" y="258" type="line"/>
      <point x="172" y="208"/>
      <point x="246" y="162"/>
      <point x="302" y="162" type="qcurve"/>
      <point x="340" y="162"/>
      <point x="401" y="184"/>
      <point x="447" y="221"/>
      <point x="479" y="270"/>
      <point x="488" y="296" type="qcurve"/>
      <point x="562" y="278" type="line"/>
      <point x="547" y="236"/>
      <point x="497" y="166"/>
      <point x="427" y="116"/>
      <point x="339" y="88"/>
      <point x="286" y="88" type="qcurve"/>
      <point x="245" y="88"/>
      <point x="173" y="111"/>
      <point x="118" y="154"/>
      <point x="82" y="217"/>
      <point x="78" y="258" type="qcurve"/>
      <point x="18" y="258" type="line"/>
      <point x="18" y="330" type="line"/>
      <point x="80" y="330" type="line"/>
      <point x="81" y="348"/>
      <point x="86" y="366" type="qcurve"/>
      <point x="41" y="366" type="line"/>
    </contour>
  </outline>
</glyph>
<glyph name="uni20B2" format="1">
  <advance width="612"/>
  <unicode hex="20B2"/>
  <outline>
    <contour>
      <point x="392" y="607" type="line"/>
      <point x="446" y="594"/>
      <point x="500" y="519"/>
      <point x="500" y="472" type="qcurve"/>
      <point x="500" y="454"/>
      <point x="495" y="432" type="qcurve"/>
      <point x="492" y="420" type="line"/>
      <point x="414" y="420" type="line"/>
      <point x="417" y="432" type="line"/>
      <point x="420" y="447"/>
      <point x="420" y="461" type="qcurve"/>
      <point x="420" y="486"/>
      <point x="400" y="525"/>
      <point x="377" y="534" type="qcurve"/>
      <point x="337" y="348" type="line"/>
      <point x="477" y="348" type="line"/>
      <point x="425" y="102" type="line"/>
      <point x="353" y="102" type="line"/>
      <point x="365" y="158" type="line"/>
      <point x="353" y="158" type="line"/>
      <point x="343" y="137"/>
      <point x="308" y="104"/>
      <point x="283" y="96" type="qcurve"/>
      <point x="269" y="28" type="line"/>
      <point x="197" y="28" type="line"/>
      <point x="210" y="90" type="line"/>
      <point x="165" y="98"/>
      <point x="103" y="170"/>
      <point x="103" y="234" type="qcurve"/>
      <point x="103" y="248"/>
      <point x="106" y="274"/>
      <point x="110" y="292" type="qcurve"/>
      <point x="138" y="423" type="line"/>
      <point x="155" y="501"/>
      <point x="244" y="602"/>
      <point x="321" y="610" type="qcurve"/>
      <point x="334" y="672" type="line"/>
      <point x="406" y="672" type="line"/>
    </contour>
    <contour>
      <point x="187" y="286" type="line"/>
      <point x="185" y="278"/>
      <point x="181" y="252"/>
      <point x="181" y="241" type="qcurve"/>
      <point x="181" y="184"/>
      <point x="226" y="166" type="qcurve"/>
      <point x="305" y="535" type="line"/>
      <point x="268" y="524"/>
      <point x="224" y="460"/>
      <point x="214" y="412" type="qcurve"/>
    </contour>
    <contour>
      <point x="322" y="276" type="line"/>
      <point x="298" y="165" type="line"/>
      <point x="330" y="176"/>
      <point x="378" y="232"/>
      <point x="387" y="268" type="qcurve"/>
      <point x="389" y="276" type="line"/>
    </contour>
  </outline>
</glyph>
<glyph name="uni20B5" format="1">
  <advance width="612"/>
  <unicode hex="20B5"/>
  <outline>
    <contour>
      <point x="398" y="607" type="line"/>
      <point x="452" y="594"/>
      <point x="505" y="519"/>
      <point x="505" y="473" type="qcurve"/>
      <point x="505" y="457"/>
      <point x="501" y="438" type="qcurve"/>
      <point x="497" y="420" type="line"/>
      <point x="419" y="420" type="line"/>
      <point x="423" y="438" type="line"/>
      <point x="426" y="451"/>
      <point x="426" y="464" type="qcurve"/>
      <point x="426" y="487"/>
      <point x="405" y="526"/>
      <point x="382" y="534" type="qcurve"/>
      <point x="304" y="164" type="line"/>
      <point x="336" y="174"/>
      <point x="378" y="227"/>
      <point x="386" y="262" type="qcurve"/>
      <point x="390" y="280" type="line"/>
      <point x="468" y="280" type="line"/>
      <point x="464" y="262" type="line"/>
      <point x="448" y="192"/>
      <point x="363" y="98"/>
      <point x="288" y="89" type="qcurve"/>
      <point x="275" y="28" type="line"/>
      <point x="203" y="28" type="line"/>
      <point x="216" y="92" type="line"/>
      <point x="168" y="102"/>
      <point x="110" y="174"/>
      <point x="110" y="235" type="qcurve"/>
      <point x="110" y="260"/>
      <point x="116" y="292" type="qcurve"/>
      <point x="144" y="423" type="line"/>
      <point x="161" y="501"/>
      <point x="250" y="602"/>
      <point x="327" y="610" type="qcurve"/>
      <point x="340" y="672" type="line"/>
      <point x="412" y="672" type="line"/>
    </contour>
    <contour>
      <point x="193" y="286" type="line"/>
      <point x="190" y="272"/>
      <point x="188" y="251"/>
      <point x="188" y="241" type="qcurve"/>
      <point x="188" y="182"/>
      <point x="232" y="166" type="qcurve"/>
      <point x="311" y="535" type="line"/>
      <point x="274" y="524"/>
      <point x="230" y="460"/>
      <point x="220" y="412" type="qcurve"/>
    </contour>
  </outline>
</glyph>
<glyph name="uni20B9" format="1">
  <advance width="612"/>
  <unicode hex="20B9"/>
  <outline>
    <contour>
      <point x="448" y="520" type="line"/>
      <point x="453" y="513"/>
      <point x="458" y="497"/>
      <point x="459" y="485" type="qcurve"/>
      <point x="514" y="485" type="line"/>
      <point x="514" y="413" type="line"/>
      <point x="447" y="413" type="line"/>
      <point x="423" y="367"/>
      <point x="368" y="348" type="qcurve"/>
      <point x="368" y="336" type="line"/>
      <point x="402" y="331"/>
      <point x="402" y="295" type="qcurve"/>
      <point x="402" y="290"/>
      <point x="401" y="282"/>
      <point x="400" y="277" type="qcurve"/>
      <point x="363" y="102" type="line"/>
      <point x="285" y="102" type="line"/>
      <point x="319" y="262" type="line"/>
      <point x="320" y="266"/>
      <point x="321" y="272"/>
      <point x="321" y="275" type="qcurve"/>
      <point x="321" y="300"/>
      <point x="289" y="300" type="qcurve"/>
      <point x="124" y="300" type="line"/>
      <point x="124" y="372" type="line"/>
      <point x="274" y="372" type="line"/>
      <point x="338" y="372"/>
      <point x="365" y="413" type="qcurve"/>
      <point x="148" y="413" type="line"/>
      <point x="148" y="485" type="line"/>
      <point x="375" y="485" type="line"/>
      <point x="359" y="526"/>
      <point x="300" y="526" type="qcurve"/>
      <point x="172" y="526" type="line"/>
      <point x="172" y="598" type="line"/>
      <point x="538" y="598" type="line"/>
      <point x="538" y="526" type="line"/>
      <point x="448" y="526" type="line"/>
    </contour>
  </outline>
</glyph>
<glyph name="uni2120" format="1">
  <advance width="612"/>
  <unicode hex="2120"/>
  <outline>
    <contour>
      <point x="229" y="614" type="line"/>
      <point x="230" y="619"/>
      <point x="230" y="622"/>
      <point x="230" y="625" type="qcurve"/>
      <point x="230" y="658"/>
      <point x="189" y="658" type="qcurve"/>
      <point x="171" y="658"/>
      <point x="141" y="637"/>
      <point x="141" y="619" type="qcurve"/>
      <point x="141" y="603"/>
      <point x="163" y="587"/>
      <point x="193" y="582" type="qcurve"/>
      <point x="264" y="570"/>
      <point x="264" y="509" type="qcurve"/>
      <point x="264" y="465"/>
      <point x="200" y="406"/>
      <point x="143" y="406" type="qcurve"/>
      <point x="99" y="406"/>
      <point x="49" y="453"/>
      <point x="49" y="488" type="qcurve"/>
      <point x="49" y="493"/>
      <point x="50" y="501"/>
      <point x="51" y="506" type="qcurve"/>
      <point x="54" y="522" type="line"/>
      <point x="108" y="522" type="line"/>
      <point x="107" y="514" type="line"/>
      <point x="106" y="507"/>
      <point x="106" y="502"/>
      <point x="106" y="498" type="qcurve"/>
      <point x="106" y="478"/>
      <point x="126" y="454"/>
      <point x="152" y="454" type="qcurve"/>
      <point x="175" y="454"/>
      <point x="207" y="477"/>
      <point x="207" y="499" type="qcurve"/>
      <point x="207" y="530"/>
      <point x="162" y="537" type="qcurve"/>
      <point x="132" y="542"/>
      <point x="85" y="578"/>
      <point x="85" y="613" type="qcurve"/>
      <point x="85" y="652"/>
      <point x="147" y="706"/>
      <point x="195" y="706" type="qcurve"/>
      <point x="239" y="706"/>
      <point x="285" y="666"/>
      <point x="285" y="634" type="qcurve"/>
      <point x="285" y="624"/>
      <point x="283" y="614" type="qcurve"/>
      <point x="281" y="604" type="line"/>
      <point x="227" y="604" type="line"/>
    </contour>
    <contour>
      <point x="334" y="700" type="line"/>
      <point x="438" y="700" type="line"/>
      <point x="400" y="448" type="line"/>
      <point x="406" y="448" type="line"/>
      <point x="475" y="700" type="line"/>
      <point x="579" y="700" type="line"/>
      <point x="518" y="412" type="line"/>
      <point x="464" y="412" type="line"/>
      <point x="519" y="670" type="line"/>
      <point x="510" y="670" type="line"/>
      <point x="440" y="412" type="line"/>
      <point x="350" y="412" type="line"/>
      <point x="391" y="670" type="line"/>
      <point x="382" y="670" type="line"/>
      <point x="327" y="412" type="line"/>
      <point x="273" y="412" type="line"/>
    </contour>
  </outline>
</glyph>
<glyph name="uni2126" format="1">
  <advance width="612"/>
  <unicode hex="2126"/>
  <outline>
    <contour>
      <point x="495" y="0" type="line"/>
      <point x="279" y="0" type="line"/>
      <point x="279" y="84" type="line"/>
      <point x="312" y="93"/>
      <point x="367" y="124"/>
      <point x="410" y="173"/>
      <point x="443" y="243"/>
      <point x="453" y="290" type="qcurve"/>
      <point x="482" y="426" type="line"/>
      <point x="490" y="464"/>
      <point x="490" y="497" type="qcurve"/>
      <point x="490" y="561"/>
      <point x="428" y="636"/>
      <point x="365" y="636" type="qcurve"/>
      <point x="324" y="636"/>
      <point x="257" y="605"/>
      <point x="204" y="549"/>
      <point x="168" y="472"/>
      <point x="158" y="426" type="qcurve"/>
      <point x="129" y="290" type="line"/>
      <point x="124" y="264"/>
      <point x="118" y="222"/>
      <point x="118" y="204" type="qcurve"/>
      <point x="118" y="153"/>
      <point x="159" y="101"/>
      <point x="196" y="84" type="qcurve"/>
      <point x="196" y="0" type="line"/>
      <point x="-19" y="0" type="line"/>
      <point x="-19" y="78" type="line"/>
      <point x="86" y="78" type="line"/>
      <point x="89" y="90" type="line"/>
      <point x="65" y="107"/>
      <point x="37" y="172"/>
      <point x="37" y="217" type="qcurve"/>
      <point x="37" y="233"/>
      <point x="39" y="263"/>
      <point x="44" y="284" type="qcurve"/>
      <point x="79" y="448" type="line"/>
      <point x="92" y="508"/>
      <point x="142" y="606"/>
      <point x="216" y="676"/>
      <point x="314" y="714"/>
      <point x="374" y="714" type="qcurve"/>
      <point x="470" y="714"/>
      <point x="576" y="602"/>
      <point x="576" y="509" type="qcurve"/>
      <point x="576" y="491"/>
      <point x="573" y="455"/>
      <point x="568" y="434" type="qcurve"/>
      <point x="536" y="284" type="line"/>
      <point x="519" y="207"/>
      <point x="453" y="108"/>
      <point x="408" y="90" type="qcurve"/>
      <point x="408" y="78" type="line"/>
      <point x="495" y="78" type="line"/>
    </contour>
  </outline>
</glyph>
<glyph name="uni212E" format="1">
  <advance width="612"/>
  <unicode hex="212E"/>
  <outline>
    <contour>
      <point x="158" y="326" type="line"/>
      <point x="158" y="244" type="line"/>
      <point x="173" y="208"/>
      <point x="250" y="156"/>
      <point x="310" y="156" type="qcurve"/>
      <point x="347" y="156"/>
      <point x="402" y="173"/>
      <point x="440" y="203"/>
      <point x="463" y="241"/>
      <point x="470" y="262" type="qcurve"/>
      <point x="538" y="244" type="line"/>
      <point x="517" y="175"/>
      <point x="404" y="88"/>
      <point x="308" y="88" type="qcurve"/>
      <point x="255" y="88"/>
      <point x="166" y="125"/>
      <point x="102" y="193"/>
      <point x="66" y="287"/>
      <point x="66" y="344" type="qcurve"/>
      <point x="66" y="368" type="line"/>
      <point x="66" y="420"/>
      <point x="103" y="510"/>
      <point x="169" y="575"/>
      <point x="258" y="612"/>
      <point x="310" y="612" type="qcurve"/>
      <point x="371" y="612"/>
      <point x="460" y="567"/>
      <point x="517" y="501"/>
      <point x="544" y="423"/>
      <point x="544" y="390" type="qcurve"/>
      <point x="544" y="326" type="line"/>
    </contour>
    <contour>
      <point x="310" y="544" type="qcurve"/>
      <point x="281" y="544"/>
      <point x="232" y="529"/>
      <point x="193" y="504"/>
      <point x="165" y="472"/>
      <point x="158" y="455" type="qcurve"/>
      <point x="158" y="392" type="line"/>
      <point x="454" y="392" type="line"/>
      <point x="454" y="462" type="line"/>
      <point x="437" y="497"/>
      <point x="361" y="544"/>
    </contour>
  </outline>
</glyph>
<glyph name="arrowright" format="1">
  <advance width="612"/>
  <unicode hex="2192"/>
  <outline>
    <contour>
      <point x="423" y="149" type="line"/>
      <point x="372" y="200" type="line"/>
      <point x="460" y="288" type="line"/>
      <point x="510" y="316" type="line"/>
      <point x="505" y="328" type="line"/>
      <point x="460" y="314" type="line"/>
      <point x="36" y="314" type="line"/>
      <point x="36" y="386" type="line"/>
      <point x="460" y="386" type="line"/>
      <point x="505" y="372" type="line"/>
      <point x="510" y="384" type="line"/>
      <point x="460" y="412" type="line"/>
      <point x="372" y="500" type="line"/>
      <point x="423" y="551" type="line"/>
      <point x="576" y="398" type="line"/>
      <point x="576" y="302" type="line"/>
    </contour>
  </outline>
</glyph>
<glyph name="uni2215" format="1">
  <advance width="612"/>
  <unicode hex="2215"/>
  <outline>
    <contour>
      <point x="581" y="806" type="line"/>
      <point x="637" y="765" type="line"/>
      <point x="27" y="-116" type="line"/>
      <point x="-29" y="-75" type="line"/>
    </contour>
  </outline>
</glyph>
<glyph name="radical" format="1">
  <advance width="612"/>
  <unicode hex="221A"/>
  <outline>
    <contour>
      <point x="26" y="386" type="line"/>
      <point x="191" y="386" type="line"/>
      <point x="203" y="36" type="line"/>
      <point x="215" y="36" type="line"/>
      <point x="582" y="856" type="line"/>
      <point x="666" y="856" type="line"/>
      <point x="283" y="0" type="line"/>
      <point x="127" y="0" type="line"/>
      <point x="114" y="314" type="line"/>
      <point x="25" y="314" type="line"/>
    </contour>
  </outline>
</glyph>
<glyph name="integral" format="1">
  <advance width="612"/>
  <unicode hex="222B"/>
  <outline>
    <contour>
      <point x="249" y="-122" type="line"/>
      <point x="242" y="-156"/>
      <point x="190" y="-200"/>
      <point x="156" y="-200" type="qcurve"/>
      <point x="42" y="-200" type="line"/>
      <point x="42" y="-128" type="line"/>
      <point x="143" y="-128" type="line"/>
      <point x="171" y="-128"/>
      <point x="177" y="-98" type="qcurve"/>
      <point x="330" y="622" type="line"/>
      <point x="337" y="656"/>
      <point x="389" y="700"/>
      <point x="423" y="700" type="qcurve"/>
      <point x="536" y="700" type="line"/>
      <point x="536" y="628" type="line"/>
      <point x="436" y="628" type="line"/>
      <point x="410" y="628"/>
      <point x="402" y="598" type="qcurve"/>
    </contour>
  </outline>
</glyph>
<glyph name="notequal" format="1">
  <advance width="612"/>
  <unicode hex="2260"/>
  <outline>
    <contour>
      <point x="115" y="458" type="line"/>
      <point x="323" y="458" type="line"/>
      <point x="384" y="570" type="line"/>
      <point x="445" y="538" type="line"/>
      <point x="402" y="458" type="line"/>
      <point x="533" y="458" type="line"/>
      <point x="533" y="386" type="line"/>
      <point x="363" y="386" type="line"/>
      <point x="324" y="314" type="line"/>
      <point x="497" y="314" type="line"/>
      <point x="497" y="242" type="line"/>
      <point x="285" y="242" type="line"/>
      <point x="221" y="122" type="line"/>
      <point x="159" y="154" type="line"/>
      <point x="206" y="242" type="line"/>
      <point x="79" y="242" type="line"/>
      <point x="79" y="314" type="line"/>
      <point x="245" y="314" type="line"/>
      <point x="284" y="386" type="line"/>
      <point x="115" y="386" type="line"/>
    </contour>
  </outline>
</glyph>
<glyph name="B.alt" format="1">
  <advance width="612"/>
  <outline>
    <contour>
      <point x="18" y="6" type="line"/>
      <point x="166" y="700" type="line"/>
      <point x="392" y="700" type="line"/>
      <point x="483" y="700"/>
      <point x="574" y="607"/>
      <point x="574" y="535" type="qcurve"/>
      <point x="574" y="505"/>
      <point x="552" y="447"/>
      <point x="512" y="400"/>
      <point x="453" y="365"/>
      <point x="417" y="357" type="qcurve"/>
      <point x="417" y="345" type="line"/>
      <point x="459" y="333"/>
      <point x="505" y="264"/>
      <point x="505" y="219" type="qcurve"/>
      <point x="505" y="171"/>
      <point x="467" y="90"/>
      <point x="401" y="32"/>
      <point x="309" y="0"/>
      <point x="255" y="0" type="qcurve"/>
      <point x="18" y="0" type="line"/>
    </contour>
    <contour>
      <point x="118" y="78" type="line"/>
      <point x="266" y="78" type="line"/>
      <point x="299" y="78"/>
      <point x="358" y="98"/>
      <point x="402" y="135"/>
      <point x="427" y="186"/>
      <point x="427" y="216" type="qcurve"/>
      <point x="427" y="262"/>
      <point x="369" y="312"/>
      <point x="318" y="312" type="qcurve"/>
      <point x="167" y="312" type="line"/>
    </contour>
    <contour>
      <point x="184" y="390" type="line"/>
      <point x="335" y="390" type="line"/>
      <point x="365" y="390"/>
      <point x="422" y="409"/>
      <point x="466" y="445"/>
      <point x="492" y="498"/>
      <point x="492" y="532" type="qcurve"/>
      <point x="492" y="574"/>
      <point x="434" y="622"/>
      <point x="381" y="622" type="qcurve"/>
      <point x="233" y="622" type="line"/>
    </contour>
  </outline>
</glyph>
<glyph name="D.alt" format="1">
  <advance width="612"/>
  <outline>
    <contour>
      <point x="24" y="6" type="line"/>
      <point x="171" y="700" type="line"/>
      <point x="343" y="700" type="line"/>
      <point x="449" y="700"/>
      <point x="557" y="605"/>
      <point x="557" y="515" type="qcurve"/>
      <point x="557" y="496"/>
      <point x="552" y="456"/>
      <point x="547" y="434" type="qcurve"/>
      <point x="509" y="260" type="line"/>
      <point x="494" y="189"/>
      <point x="450" y="90"/>
      <point x="382" y="28"/>
      <point x="283" y="0"/>
      <point x="212" y="0" type="qcurve"/>
      <point x="24" y="0" type="line"/>
    </contour>
    <contour>
      <point x="211" y="78" type="line"/>
      <point x="257" y="78"/>
      <point x="328" y="96"/>
      <point x="380" y="139"/>
      <point x="416" y="211"/>
      <point x="427" y="266" type="qcurve"/>
      <point x="462" y="434" type="line"/>
      <point x="467" y="460"/>
      <point x="471" y="494"/>
      <point x="471" y="510" type="qcurve"/>
      <point x="471" y="574"/>
      <point x="399" y="622"/>
      <point x="326" y="622" type="qcurve"/>
      <point x="238" y="622" type="line"/>
      <point x="123" y="78" type="line"/>
    </contour>
  </outline>
</glyph>
<glyph name="Delta" format="1">
  <advance width="612"/>
  <outline>
    <contour>
      <point x="-59" y="0" type="line"/>
      <point x="301" y="700" type="line"/>
      <point x="459" y="700" type="line"/>
      <point x="522" y="0" type="line"/>
    </contour>
    <contour>
      <point x="74" y="78" type="line"/>
      <point x="430" y="78" type="line"/>
      <point x="382" y="663" type="line"/>
      <point x="370" y="663" type="line"/>
    </contour>
  </outline>
</glyph>
<glyph name="aogonek.alt" format="1">
  <advance width="612"/>
  <outline>
    <contour>
      <point x="341" y="72" type="line"/>
      <point x="316" y="28"/>
      <point x="234" y="-14"/>
      <point x="178" y="-14" type="qcurve"/>
      <point x="107" y="-14"/>
      <point x="24" y="60"/>
      <point x="24" y="129" type="qcurve"/>
      <point x="24" y="171"/>
      <point x="58" y="234"/>
      <point x="116" y="278"/>
      <point x="193" y="300"/>
      <point x="236" y="300" type="qcurve"/>
      <point x="401" y="300" type="line"/>
      <point x="405" y="320" type="line"/>
      <point x="408" y="336"/>
      <point x="408" y="347" type="qcurve"/>
      <point x="408" y="383"/>
      <point x="359" y="438"/>
      <point x="302" y="438" type="qcurve"/>
      <point x="246" y="438"/>
      <point x="174" y="383"/>
      <point x="154" y="330" type="qcurve"/>
      <point x="88" y="358" type="line"/>
      <point x="114" y="426"/>
      <point x="224" y="510"/>
      <point x="312" y="510" type="qcurve"/>
      <point x="351" y="510"/>
      <point x="415" y="486"/>
      <point x="460" y="444"/>
      <point x="485" y="385"/>
      <point x="485" y="350" type="qcurve"/>
      <point x="485" y="331"/>
      <point x="480" y="306" type="qcurve"/>
      <point x="432" y="84" type="line"/>
      <point x="430" y="76"/>
      <point x="438" y="66"/>
      <point x="445" y="66" type="qcurve"/>
      <point x="452" y="66"/>
      <point x="459" y="71" type="qcurve"/>
      <point x="495" y="97" type="line"/>
      <point x="537" y="38" type="line"/>
      <point x="395" y="-67" type="line"/>
      <point x="385" y="-74"/>
      <point x="385" y="-84" type="qcurve"/>
      <point x="385" y="-98"/>
      <point x="401" y="-98" type="qcurve"/>
      <point x="488" y="-98" type="line"/>
      <point x="488" y="-164" type="line"/>
      <point x="384" y="-164" type="line"/>
      <point x="351" y="-164"/>
      <point x="310" y="-121"/>
      <point x="310" y="-92" type="qcurve"/>
      <point x="310" y="-74"/>
      <point x="330" y="-36"/>
      <point x="351" y="-21" type="qcurve"/>
      <point x="380" y="0" type="line"/>
      <point x="367" y="8"/>
      <point x="352" y="35"/>
      <point x="352" y="55" type="qcurve"/>
      <point x="352" y="59"/>
      <point x="352" y="65"/>
      <point x="353" y="72" type="qcurve"/>
    </contour>
    <contour>
      <point x="192" y="58" type="qcurve"/>
      <point x="268" y="58"/>
      <point x="368" y="145"/>
      <point x="385" y="228" type="qcurve"/>
      <point x="224" y="228" type="line"/>
      <point x="200" y="228"/>
      <point x="156" y="215"/>
      <point x="123" y="190"/>
      <point x="103" y="154"/>
      <point x="103" y="132" type="qcurve"/>
      <point x="103" y="58"/>
    </contour>
  </outline>
</glyph>
<glyph name="at.cap" format="1">
  <advance width="612"/>
  <outline>
    <contour>
      <point x="500" y="0" type="line"/>
      <point x="471" y="0"/>
      <point x="436" y="31"/>
      <point x="436" y="60" type="qcurve"/>
      <point x="424" y="60" type="line"/>
      <point x="404" y="27"/>
      <point x="342" y="-14"/>
      <point x="297" y="-14" type="qcurve"/>
      <point x="263" y="-14"/>
      <point x="205" y="11"/>
      <point x="163" y="61"/>
      <point x="140" y="132"/>
      <point x="140" y="179" type="qcurve"/>
      <point x="140" y="229"/>
      <point x="170" y="345"/>
      <point x="231" y="444"/>
      <point x="323" y="510"/>
      <point x="385" y="510" type="qcurve"/>
      <point x="431" y="510"/>
      <point x="484" y="474"/>
      <point x="497" y="442" type="qcurve"/>
      <point x="509" y="442" type="line"/>
      <point x="526" y="522" type="line"/>
      <point x="528" y="533"/>
      <point x="531" y="552"/>
      <point x="531" y="562" type="qcurve"/>
      <point x="531" y="642"/>
      <point x="431" y="642" type="qcurve"/>
      <point x="313" y="642" type="line"/>
      <point x="247" y="642"/>
      <point x="173" y="576"/>
      <point x="159" y="510" type="qcurve"/>
      <point x="52" y="4" type="line"/>
      <point x="47" y="-24"/>
      <point x="47" y="-41" type="qcurve"/>
      <point x="47" y="-86"/>
      <point x="98" y="-128"/>
      <point x="150" y="-128" type="qcurve"/>
      <point x="509" y="-128" type="line"/>
      <point x="509" y="-200" type="line"/>
      <point x="128" y="-200" type="line"/>
      <point x="50" y="-200"/>
      <point x="-33" y="-125"/>
      <point x="-33" y="-57" type="qcurve"/>
      <point x="-33" y="-31"/>
      <point x="-27" y="-2" type="qcurve"/>
      <point x="83" y="516" type="line"/>
      <point x="104" y="616"/>
      <point x="220" y="714"/>
      <point x="323" y="714" type="qcurve"/>
      <point x="455" y="714" type="line"/>
      <point x="530" y="714"/>
      <point x="610" y="643"/>
      <point x="610" y="577" type="qcurve"/>
      <point x="610" y="551"/>
      <point x="604" y="521" type="qcurve"/>
      <point x="515" y="102" type="line"/>
      <point x="509" y="72"/>
      <point x="535" y="72" type="qcurve"/>
      <point x="552" y="72" type="line"/>
      <point x="552" y="0" type="line"/>
    </contour>
    <contour>
      <point x="319" y="60" type="qcurve"/>
      <point x="359" y="60"/>
      <point x="418" y="114"/>
      <point x="458" y="193"/>
      <point x="478" y="282"/>
      <point x="478" y="317" type="qcurve"/>
      <point x="478" y="372"/>
      <point x="434" y="436"/>
      <point x="386" y="436" type="qcurve"/>
      <point x="341" y="436"/>
      <point x="279" y="382"/>
      <point x="239" y="305"/>
      <point x="221" y="219"/>
      <point x="221" y="187" type="qcurve"/>
      <point x="221" y="60"/>
    </contour>
  </outline>
</glyph>
<glyph name="copyright.cap" format="1">
  <advance width="612"/>
  <outline>
    <contour>
      <point x="306" y="178" type="qcurve"/>
      <point x="342" y="178"/>
      <point x="378" y="218"/>
      <point x="378" y="250" type="qcurve"/>
      <point x="378" y="290" type="line"/>
      <point x="450" y="290" type="line"/>
      <point x="450" y="258" type="line"/>
      <point x="450" y="193"/>
      <point x="380" y="112"/>
      <point x="308" y="112" type="qcurve"/>
      <point x="239" y="112"/>
      <point x="162" y="189"/>
      <point x="162" y="270" type="qcurve"/>
      <point x="162" y="426" type="line"/>
      <point x="162" y="507"/>
      <point x="243" y="588"/>
      <point x="308" y="588" type="qcurve"/>
      <point x="376" y="588"/>
      <point x="450" y="507"/>
      <point x="450" y="442" type="qcurve"/>
      <point x="450" y="410" type="line"/>
      <point x="378" y="410" type="line"/>
      <point x="378" y="446" type="line"/>
      <point x="378" y="478"/>
      <point x="344" y="522"/>
      <point x="306" y="522" type="qcurve"/>
      <point x="274" y="522"/>
      <point x="234" y="479"/>
      <point x="234" y="438" type="qcurve"/>
      <point x="234" y="258" type="line"/>
      <point x="234" y="219"/>
      <point x="276" y="178"/>
    </contour>
    <contour>
      <point x="582" y="184" type="line"/>
      <point x="582" y="84"/>
      <point x="481" y="-14"/>
      <point x="390" y="-14" type="qcurve"/>
      <point x="222" y="-14" type="line"/>
      <point x="131" y="-14"/>
      <point x="30" y="84"/>
      <point x="30" y="184" type="qcurve"/>
      <point x="30" y="516" type="line"/>
      <point x="30" y="616"/>
      <point x="131" y="714"/>
      <point x="222" y="714" type="qcurve"/>
      <point x="390" y="714" type="line"/>
      <point x="481" y="714"/>
      <point x="582" y="616"/>
      <point x="582" y="516" type="qcurve"/>
    </contour>
    <contour>
      <point x="510" y="510" type="line"/>
      <point x="510" y="575"/>
      <point x="453" y="642"/>
      <point x="390" y="642" type="qcurve"/>
      <point x="222" y="642" type="line"/>
      <point x="159" y="642"/>
      <point x="102" y="575"/>
      <point x="102" y="510" type="qcurve"/>
      <point x="102" y="190" type="line"/>
      <point x="102" y="125"/>
      <point x="159" y="58"/>
      <point x="222" y="58" type="qcurve"/>
      <point x="390" y="58" type="line"/>
      <point x="453" y="58"/>
      <point x="510" y="125"/>
      <point x="510" y="190" type="qcurve"/>
    </contour>
  </outline>
</glyph>
<glyph name="daggerdbl.cap" format="1">
  <advance width="612"/>
  <outline>
    <contour>
      <point x="56" y="262" type="line"/>
      <point x="231" y="262" type="line"/>
      <point x="268" y="438" type="line"/>
      <point x="93" y="438" type="line"/>
      <point x="109" y="510" type="line"/>
      <point x="284" y="510" type="line"/>
      <point x="324" y="700" type="line"/>
      <point x="396" y="700" type="line"/>
      <point x="356" y="510" type="line"/>
      <point x="529" y="510" type="line"/>
      <point x="513" y="438" type="line"/>
      <point x="340" y="438" type="line"/>
      <point x="303" y="262" type="line"/>
      <point x="476" y="262" type="line"/>
      <point x="460" y="190" type="line"/>
      <point x="287" y="190" type="line"/>
      <point x="247" y="0" type="line"/>
      <point x="175" y="0" type="line"/>
      <point x="215" y="190" type="line"/>
      <point x="40" y="190" type="line"/>
    </contour>
  </outline>
</glyph>
<glyph name="dotlessi.alt" format="1">
  <advance width="612"/>
  <outline>
    <contour>
      <point x="333" y="409" type="line"/>
      <point x="336" y="421"/>
      <point x="323" y="434"/>
      <point x="314" y="434" type="qcurve"/>
      <point x="307" y="434"/>
      <point x="300" y="430" type="qcurve"/>
      <point x="151" y="328" type="line"/>
      <point x="111" y="387" type="line"/>
      <point x="261" y="489" type="line"/>
      <point x="292" y="510"/>
      <point x="328" y="510" type="qcurve"/>
      <point x="362" y="510"/>
      <point x="412" y="470"/>
      <point x="412" y="428" type="qcurve"/>
      <point x="412" y="420"/>
      <point x="411" y="407"/>
      <point x="408" y="396" type="qcurve"/>
      <point x="313" y="0" type="line"/>
      <point x="235" y="0" type="line"/>
    </contour>
  </outline>
</glyph>
<glyph name="g.alt" format="1">
  <advance width="612"/>
  <outline>
    <contour>
      <point x="315" y="72" type="line"/>
      <point x="377" y="72"/>
      <point x="447" y="6"/>
      <point x="447" y="-42" type="qcurve"/>
      <point x="447" y="-76"/>
      <point x="422" y="-134"/>
      <point x="375" y="-176"/>
      <point x="308" y="-200"/>
      <point x="265" y="-200" type="qcurve"/>
      <point x="132" y="-200" type="line"/>
      <point x="74" y="-200"/>
      <point x="2" y="-144"/>
      <point x="2" y="-93" type="qcurve"/>
      <point x="2" y="-55"/>
      <point x="48" y="6"/>
      <point x="87" y="18" type="qcurve"/>
      <point x="87" y="30" type="line"/>
      <point x="73" y="37"/>
      <point x="49" y="64"/>
      <point x="49" y="90" type="qcurve"/>
      <point x="49" y="125"/>
      <point x="94" y="175"/>
      <point x="129" y="184" type="qcurve"/>
      <point x="129" y="196" type="line"/>
      <point x="117" y="210"/>
      <point x="99" y="262"/>
      <point x="99" y="297" type="qcurve"/>
      <point x="99" y="344"/>
      <point x="132" y="422"/>
      <point x="192" y="479"/>
      <point x="275" y="510"/>
      <point x="325" y="510" type="qcurve"/>
      <point x="351" y="510"/>
      <point x="387" y="501"/>
      <point x="399" y="496" type="qcurve"/>
      <point x="540" y="496" type="line"/>
      <point x="540" y="423" type="line"/>
      <point x="463" y="423" type="line"/>
      <point x="463" y="411" type="line"/>
      <point x="474" y="401"/>
      <point x="489" y="363"/>
      <point x="489" y="334" type="qcurve"/>
      <point x="489" y="292"/>
      <point x="456" y="220"/>
      <point x="398" y="168"/>
      <point x="317" y="138"/>
      <point x="269" y="138" type="qcurve"/>
      <point x="229" y="138"/>
      <point x="176" y="156"/>
      <point x="159" y="167" type="qcurve"/>
      <point x="145" y="158"/>
      <point x="128" y="133"/>
      <point x="128" y="116" type="qcurve"/>
      <point x="128" y="93"/>
      <point x="161" y="72"/>
      <point x="191" y="72" type="qcurve"/>
    </contour>
    <contour>
      <point x="315" y="437" type="qcurve"/>
      <point x="285" y="437"/>
      <point x="234" y="417"/>
      <point x="198" y="381"/>
      <point x="177" y="331"/>
      <point x="177" y="302" type="qcurve"/>
      <point x="177" y="257"/>
      <point x="232" y="211"/>
      <point x="273" y="211" type="qcurve"/>
      <point x="304" y="211"/>
      <point x="356" y="229"/>
      <point x="395" y="263"/>
      <point x="417" y="312"/>
      <point x="417" y="344" type="qcurve"/>
      <point x="417" y="388"/>
      <point x="359" y="437"/>
    </contour>
    <contour>
      <point x="175" y="0" type="line"/>
      <point x="158" y="0"/>
      <point x="125" y="-9"/>
      <point x="99" y="-28"/>
      <point x="84" y="-57"/>
      <point x="84" y="-76" type="qcurve"/>
      <point x="84" y="-102"/>
      <point x="118" y="-128"/>
      <point x="147" y="-128" type="qcurve"/>
      <point x="276" y="-128" type="line"/>
      <point x="292" y="-128"/>
      <point x="325" y="-118"/>
      <point x="351" y="-99"/>
      <point x="367" y="-71"/>
      <point x="367" y="-52" type="qcurve"/>
      <point x="367" y="-28"/>
      <point x="332" y="0"/>
      <point x="303" y="0" type="qcurve"/>
    </contour>
  </outline>
</glyph>
<glyph name="j.alt" format="1">
  <advance width="612"/>
  <outline>
    <contour>
      <point x="355" y="644" type="qcurve"/>
      <point x="355" y="673"/>
      <point x="396" y="714"/>
      <point x="425" y="714" type="qcurve"/>
      <point x="454" y="714"/>
      <point x="495" y="673"/>
      <point x="495" y="644" type="qcurve"/>
      <point x="495" y="615"/>
      <point x="454" y="574"/>
      <point x="425" y="574" type="qcurve"/>
      <point x="396" y="574"/>
      <point x="355" y="615"/>
    </contour>
    <contour>
      <point x="293" y="-200" type="line"/>
      <point x="215" y="-200" type="line"/>
      <point x="346" y="412" type="line"/>
      <point x="348" y="423"/>
      <point x="340" y="434"/>
      <point x="332" y="434" type="qcurve"/>
      <point x="325" y="434"/>
      <point x="319" y="430" type="qcurve"/>
      <point x="170" y="328" type="line"/>
      <point x="130" y="387" type="line"/>
      <point x="280" y="489" type="line"/>
      <point x="311" y="510"/>
      <point x="343" y="510" type="qcurve"/>
      <point x="379" y="510"/>
      <point x="424" y="466"/>
      <point x="424" y="427" type="qcurve"/>
      <point x="424" y="417"/>
      <point x="421" y="401" type="qcurve"/>
    </contour>
  </outline>
</glyph>
<glyph name="jcircumflex.alt" format="1">
  <advance width="612"/>
  <outline>
    <contour>
      <point x="293" y="-200" type="line"/>
      <point x="215" y="-200" type="line"/>
      <point x="346" y="412" type="line"/>
      <point x="348" y="423"/>
      <point x="340" y="434"/>
      <point x="332" y="434" type="qcurve"/>
      <point x="325" y="434"/>
      <point x="319" y="430" type="qcurve"/>
      <point x="170" y="328" type="line"/>
      <point x="130" y="387" type="line"/>
      <point x="280" y="489" type="line"/>
      <point x="311" y="510"/>
      <point x="343" y="510" type="qcurve"/>
      <point x="379" y="510"/>
      <point x="424" y="466"/>
      <point x="424" y="427" type="qcurve"/>
      <point x="424" y="417"/>
      <point x="421" y="401" type="qcurve"/>
    </contour>
    <component base="circumflex" xOffset="31"/>
  </outline>
</glyph>
<glyph name="l.alt" format="1">
  <advance width="612"/>
  <outline>
    <contour>
      <point x="348" y="614" type="line"/>
      <point x="351" y="626"/>
      <point x="339" y="639"/>
      <point x="330" y="639" type="qcurve"/>
      <point x="323" y="639"/>
      <point x="315" y="634" type="qcurve"/>
      <point x="180" y="542" type="line"/>
      <point x="140" y="601" type="line"/>
      <point x="276" y="693" type="line"/>
      <point x="292" y="704"/>
      <point x="326" y="714"/>
      <point x="343" y="714" type="qcurve"/>
      <point x="376" y="714"/>
      <point x="427" y="674"/>
      <point x="427" y="632" type="qcurve"/>
      <point x="427" y="624"/>
      <point x="425" y="608"/>
      <point x="423" y="600" type="qcurve"/>
      <point x="281" y="0" type="line"/>
      <point x="203" y="0" type="line"/>
    </contour>
  </outline>
</glyph>
